<svg xmlns="http://www.w3.org/2000/svg" xmlns:xlink="http://www.w3.org/1999/xlink" version="1.1" viewBox="0 0 5626 3219" style="background: #111111"><defs joint-selector="defs"></defs><g joint-selector="layers"  transform="matrix(1,0,0,1,0,0)"><g ></g><g ><!--z-index:1--><!--z-index:2--><!--z-index:3--><!--z-index:4--><!--z-index:5--><!--z-index:6--><!--z-index:7--><!--z-index:8--><!--z-index:9--><!--z-index:10--><!--z-index:11--><!--z-index:12--><!--z-index:13--><!--z-index:14--><!--z-index:15--><!--z-index:16--><!--z-index:17--><!--z-index:18--><!--z-index:19--><!--z-index:20--><!--z-index:21--><!--z-index:22--><!--z-index:23--><!--z-index:24--><!--z-index:25--><!--z-index:26--><!--z-index:27--><!--z-index:28--><!--z-index:29--><!--z-index:30--><!--z-index:31--><!--z-index:32--><!--z-index:33--><!--z-index:34--><!--z-index:35--><!--z-index:36--><!--z-index:37--><!--z-index:38--><!--z-index:39--><!--z-index:40--><!--z-index:41--><!--z-index:42--><!--z-index:43--><!--z-index:44--><!--z-index:45--><!--z-index:46--><!--z-index:47--><!--z-index:48--><!--z-index:49--><!--z-index:50--><!--z-index:51--><!--z-index:52--><!--z-index:53--><!--z-index:54--><!--z-index:55--><!--z-index:56--><!--z-index:57--><!--z-index:58--><!--z-index:59--><!--z-index:60--><!--z-index:61--><!--z-index:62--><!--z-index:63--><!--z-index:64--><!--z-index:65--><!--z-index:66--><!--z-index:67--><!--z-index:68--><!--z-index:69--><!--z-index:70--><!--z-index:71--><!--z-index:72--><!--z-index:73--><!--z-index:74--><!--z-index:75--><!--z-index:76--><!--z-index:77--><!--z-index:78--><!--z-index:79--><!--z-index:80--><!--z-index:81--><!--z-index:82--><!--z-index:83--><!--z-index:84--><!--z-index:85--><!--z-index:86--><!--z-index:87--><!--z-index:88--><!--z-index:89--><!--z-index:90--><!--z-index:91--><!--z-index:92--><!--z-index:93--><!--z-index:94--><!--z-index:95--><!--z-index:96--><!--z-index:97--><!--z-index:98--><!--z-index:99--><!--z-index:100--><!--z-index:101--><g   id="j_1190"  transform="translate(20,3175)"><g id="v-15895"><text  id="v-15896" font-size="24px" xml:space="preserve" y="0.8em" font-weight="normal" text-anchor="start" fill="#cccccc" pointer-events="none" display="block" font-family="Open Sans, Tahoma, Arial"><tspan dy="0" >воскресенье, 30 ноября 2025 г. в 20:42 Москва, стандартное время</tspan></text></g></g><!--z-index:102--><g   id="j_1189"  transform="translate(20,3129)"><g id="v-15893"><text  id="v-15894" font-size="36px" xml:space="preserve" y="0.8em" font-weight="normal" text-anchor="start" fill="#cccccc" pointer-events="none" display="block" font-family="Open Sans, Tahoma, Arial"><tspan dy="0" >Component View: Система Расчета Премий (SuperSurance) - Proposals Service</tspan></text></g></g><!--z-index:103--><g   id="j_1192"  transform="translate(200,159)" style=""><g id="v-15910"><rect  id="v-15911" width="5226" height="2819" rx="0" ry="0" stroke-width="2" pointer-events="none" stroke="#cccccc" fill="#111111" stroke-dasharray=""></rect><text  id="v-15912" font-size="33.599999999999994px" xml:space="preserve" y="2780" font-weight="bold" text-anchor="start" pointer-events="visible" font-family="Open Sans, Tahoma, Arial" fill="#cccccc" transform="matrix(1,0,0,1,15,0)"><tspan dy="0" >Система Расчета Премий (SuperSurance)</tspan></text><text  id="v-15913" font-size="16.799999999999997px" xml:space="preserve" y="2804" font-weight="normal" text-anchor="start" pointer-events="visible" font-family="Open Sans, Tahoma, Arial" fill="#cccccc" transform="matrix(1,0,0,1,15,0)"><tspan dy="0" >[Software System]</tspan></text><image  id="v-15914" pointer-events="visible"></image></g></g><!--z-index:104--><g   id="j_1191"  transform="translate(1366,179)" style=""><g  id="v-15903" style="opacity: 1;"><rect  id="v-15904" rx="20" ry="20" stroke-width="2" pointer-events="visiblePainted" fill="#555555" stroke="#4d4d4d" stroke-dasharray="" width="450" height="300"></rect><text  id="v-15905" font-size="33.599999999999994px" xml:space="preserve" y="86.9" font-weight="bold" text-anchor="middle" pointer-events="visible" font-family="Open Sans, Tahoma, Arial" fill="#ffffff" dominant-baseline="hanging" transform="matrix(1,0,0,1,225,0)"><tspan dy="0" >API Gateway</tspan></text><text  id="v-15906" font-size="16.799999999999997px" xml:space="preserve" y="128.5" text-anchor="middle" font-family="Open Sans, Tahoma, Arial" fill="#ffffff" dominant-baseline="hanging" transform="matrix(1,0,0,1,225,0)" style="display: block;"><tspan dy="0" >[Container: Nginx / Spring Cloud Gateway]</tspan></text><text  id="v-15907" font-size="24px" xml:space="preserve" y="160.3" text-anchor="middle" font-family="Open Sans, Tahoma, Arial" fill="#ffffff" dominant-baseline="hanging" transform="matrix(1,0,0,1,225,0)" style="display: block;"><tspan dy="0" >Единая точка входа,</tspan><tspan dy="1.2em" x="0" >маршрутизация, rate limiting.</tspan></text><g  id="v-15908" color="#ffffff" transform="matrix(1,0,0,1,222.5,268)" display="none"><g ></g><g ></g><g ></g><g ></g></g><image  id="v-15909"></image></g></g><!--z-index:105--><g   id="j_1193"  transform="translate(4936,2579)" style=""><g  id="v-15924" style="opacity: 1;"><rect  id="v-15925" rx="1" ry="1" stroke-width="2" pointer-events="visiblePainted" fill="#1168bd" stroke="#0f5eaa" stroke-dasharray="" width="450" height="300"></rect><text  id="v-15926" font-size="33.599999999999994px" xml:space="preserve" y="72.5" font-weight="bold" text-anchor="middle" pointer-events="visible" font-family="Open Sans, Tahoma, Arial" fill="#ffffff" dominant-baseline="hanging" transform="matrix(1,0,0,1,225,0)"><tspan dy="0" >Calculation Engine</tspan></text><text  id="v-15927" font-size="16.799999999999997px" xml:space="preserve" y="114.1" text-anchor="middle" font-family="Open Sans, Tahoma, Arial" fill="#ffffff" dominant-baseline="hanging" transform="matrix(1,0,0,1,225,0)" style="display: block;"><tspan dy="0" >[Container: Java / Spring Boot / Drools]</tspan></text><text  id="v-15928" font-size="24px" xml:space="preserve" y="145.89999999999998" text-anchor="middle" font-family="Open Sans, Tahoma, Arial" fill="#ffffff" dominant-baseline="hanging" transform="matrix(1,0,0,1,225,0)" style="display: block;"><tspan dy="0" >Stateless сервис. Применяет</tspan><tspan dy="1.2em" x="0" >тарифные правила к контексту</tspan><tspan dy="1.2em" x="0" >клиента.</tspan></text><g  id="v-15929" color="#ffffff" transform="matrix(1,0,0,1,222.5,268)" display="none"><g ></g><g ></g><g ></g><g ></g></g><image  id="v-15930"></image></g></g><!--z-index:106--><g   id="j_1194"  transform="translate(1936,2579)" style=""><g  id="v-15937" style="opacity: 1;"><rect  id="v-15938" rx="1" ry="1" stroke-width="2" pointer-events="visiblePainted" fill="#1168bd" stroke="#0f5eaa" stroke-dasharray="" width="450" height="300"></rect><text  id="v-15939" font-size="33.599999999999994px" xml:space="preserve" y="101.30000000000001" font-weight="bold" text-anchor="middle" pointer-events="visible" font-family="Open Sans, Tahoma, Arial" fill="#ffffff" dominant-baseline="hanging" transform="matrix(1,0,0,1,225,0)"><tspan dy="0" >CRM Service</tspan></text><text  id="v-15940" font-size="16.799999999999997px" xml:space="preserve" y="142.9" text-anchor="middle" font-family="Open Sans, Tahoma, Arial" fill="#ffffff" dominant-baseline="hanging" transform="matrix(1,0,0,1,225,0)" style="display: block;"><tspan dy="0" >[Container: Java / Spring Boot]</tspan></text><text  id="v-15941" font-size="24px" xml:space="preserve" y="174.7" text-anchor="middle" font-family="Open Sans, Tahoma, Arial" fill="#ffffff" dominant-baseline="hanging" transform="matrix(1,0,0,1,225,0)" style="display: block;"><tspan dy="0" >Управление данными клиентов.</tspan></text><g  id="v-15942" color="#ffffff" transform="matrix(1,0,0,1,222.5,268)" display="none"><g ></g><g ></g><g ></g><g ></g></g><image  id="v-15943"></image></g></g><!--z-index:107--><g   id="j_1196"  transform="translate(1166,759)" style=""><g id="v-15957"><rect  id="v-15958" width="4240" height="1619" rx="0" ry="0" stroke-width="2" pointer-events="none" stroke="#0f5eaa" fill="#111111" stroke-dasharray=""></rect><text  id="v-15959" font-size="33.599999999999994px" xml:space="preserve" y="1580" font-weight="bold" text-anchor="start" pointer-events="visible" font-family="Open Sans, Tahoma, Arial" fill="#ffffff" transform="matrix(1,0,0,1,15,0)"><tspan dy="0" >Proposals Service</tspan></text><text  id="v-15960" font-size="16.799999999999997px" xml:space="preserve" y="1604" font-weight="normal" text-anchor="start" pointer-events="visible" font-family="Open Sans, Tahoma, Arial" fill="#ffffff" transform="matrix(1,0,0,1,15,0)"><tspan dy="0" >[Container]</tspan></text><image  id="v-15961" pointer-events="visible"></image></g></g><!--z-index:108--><g   id="j_1204"  transform="translate(528,1379)" style=""><g  id="v-16044" style="opacity: 1;"><rect  id="v-16045" rx="1" ry="1" stroke-width="2" pointer-events="visiblePainted" fill="#1168bd" stroke="#0f5eaa" stroke-dasharray="" width="450" height="300"></rect><text  id="v-16046" font-size="33.599999999999994px" xml:space="preserve" y="58.10000000000001" font-weight="bold" text-anchor="middle" pointer-events="visible" font-family="Open Sans, Tahoma, Arial" fill="#ffffff" dominant-baseline="hanging" transform="matrix(1,0,0,1,225,0)"><tspan dy="0" >Notification Service</tspan></text><text  id="v-16047" font-size="16.799999999999997px" xml:space="preserve" y="99.7" text-anchor="middle" font-family="Open Sans, Tahoma, Arial" fill="#ffffff" dominant-baseline="hanging" transform="matrix(1,0,0,1,225,0)" style="display: block;"><tspan dy="0" >[Container: Java / Spring Boot]</tspan></text><text  id="v-16048" font-size="24px" xml:space="preserve" y="131.5" text-anchor="middle" font-family="Open Sans, Tahoma, Arial" fill="#ffffff" dominant-baseline="hanging" transform="matrix(1,0,0,1,225,0)" style="display: block;"><tspan dy="0" >Единая точка входа для</tspan><tspan dy="1.2em" x="0" >отправки уведомлений.</tspan><tspan dy="1.2em" x="0" >Поддерживает шаблонизацию и</tspan><tspan dy="1.2em" x="0" >многоканальность.</tspan></text><g  id="v-16049" color="#ffffff" transform="matrix(1,0,0,1,210,268)" display="none"><g  transform="translate(5 0)"><svg xmlns="http://www.w3.org/2000/svg" width="20" height="20" fill="currentColor" viewBox="0 0 16 16"><path fill-rule="evenodd" d="M6.5 12a5.5 5.5 0 1 0 0-11 5.5 5.5 0 0 0 0 11zM13 6.5a6.5 6.5 0 1 1-13 0 6.5 6.5 0 0 1 13 0z"></path><path d="M10.344 11.742c.03.04.062.078.098.115l3.85 3.85a1 1 0 0 0 1.415-1.414l-3.85-3.85a1.007 1.007 0 0 0-.115-.1 6.538 6.538 0 0 1-1.398 1.4z"></path><path fill-rule="evenodd" d="M6.5 3a.5.5 0 0 1 .5.5V6h2.5a.5.5 0 0 1 0 1H7v2.5a.5.5 0 0 1-1 0V7H3.5a.5.5 0 0 1 0-1H6V3.5a.5.5 0 0 1 .5-.5z"></path></svg></g><g ></g><g ></g><g ></g></g><image  id="v-16050"></image></g></g><!--z-index:109--><g   id="j_1205"  transform="translate(2686,2579)" style=""><g  id="v-16060" style="opacity: 1;"><rect  id="v-16061" rx="1" ry="1" stroke-width="2" pointer-events="visiblePainted" fill="#1168bd" stroke="#0f5eaa" stroke-dasharray="" width="450" height="300"></rect><text  id="v-16062" font-size="33.599999999999994px" xml:space="preserve" y="66.74000000000001" font-weight="bold" text-anchor="middle" pointer-events="visible" font-family="Open Sans, Tahoma, Arial" fill="#ffffff" dominant-baseline="hanging" transform="matrix(1,0,0,1,225,0)"><tspan dy="0" >Anti-Corruption Layer</tspan><tspan dy="1.2em" x="0" >(ACL)</tspan></text><text  id="v-16063" font-size="16.799999999999997px" xml:space="preserve" y="148.66" text-anchor="middle" font-family="Open Sans, Tahoma, Arial" fill="#ffffff" dominant-baseline="hanging" transform="matrix(1,0,0,1,225,0)" style="display: block;"><tspan dy="0" >[Container: Java / Spring Boot]</tspan></text><text  id="v-16064" font-size="24px" xml:space="preserve" y="180.45999999999998" text-anchor="middle" font-family="Open Sans, Tahoma, Arial" fill="#ffffff" dominant-baseline="hanging" transform="matrix(1,0,0,1,225,0)" style="display: block;"><tspan dy="0" >Адаптер к внешним сервисам</tspan><tspan dy="1.2em" x="0" >данных.</tspan></text><g  id="v-16065" color="#ffffff" transform="matrix(1,0,0,1,222.5,268)" display="none"><g ></g><g ></g><g ></g><g ></g></g><image  id="v-16066"></image></g></g><!--z-index:110--><g   id="j_1206"  transform="translate(4186,2579)" style=""><g  id="v-16067" style="opacity: 1;"><path  d="M 0,30 a 225,30 0,0,0 450 0 a 225,30 0,0,0 -450 0 l 0,240 a 225,30 0,0,0 450 0 l 0,-240" id="v-16068" stroke-width="2" pointer-events="visiblePainted" fill="#111111" stroke="#cccccc" stroke-dasharray=""></path><rect  id="v-16069" stroke-width="0" pointer-events="visiblePainted" fill="none" stroke="none" width="450" height="270" x="0" y="30"></rect><text  id="v-16070" font-size="33.599999999999994px" xml:space="preserve" y="116.30000000000001" font-weight="bold" text-anchor="middle" pointer-events="visible" font-family="Open Sans, Tahoma, Arial" fill="#ffffff" dominant-baseline="hanging" transform="matrix(1,0,0,1,225,0)"><tspan dy="0" >Proposals DB</tspan></text><text  id="v-16071" font-size="16.799999999999997px" xml:space="preserve" y="157.9" text-anchor="middle" font-family="Open Sans, Tahoma, Arial" fill="#ffffff" dominant-baseline="hanging" transform="matrix(1,0,0,1,225,0)" style="display: block;"><tspan dy="0" >[Container: PostgreSQL]</tspan></text><text  id="v-16072" font-size="24px" xml:space="preserve" y="189.7" text-anchor="middle" font-family="Open Sans, Tahoma, Arial" fill="#ffffff" dominant-baseline="hanging" transform="matrix(1,0,0,1,225,0)" style="display: block;"><tspan dy="0" >Заявки.</tspan></text><g  id="v-16073" font-weight="normal" text-anchor="middle" color="#ffffff" transform="matrix(1,0,0,1,222.5,268)" display="none"><g ></g><g ></g><g ></g><g ></g></g><image  id="v-16074"></image></g></g><!--z-index:111--><g   id="j_1207"  transform="translate(220,779)" style=""><g  id="v-16078" style="opacity: 1;"><path  d="M 30,0 a 30,150 0,0,1 0 300 a 30,150 0,0,1 0 -300 l 390,0 a 30,150 0,0,1 0 300 l -390,0" id="v-16079" stroke-width="2" pointer-events="visiblePainted" fill="#111111" stroke="#cccccc" stroke-dasharray=""></path><rect  id="v-16080" stroke-width="0" pointer-events="visiblePainted" fill="none" stroke="none" width="420" height="300" x="30" y="0"></rect><text  id="v-16081" font-size="33.599999999999994px" xml:space="preserve" y="101.30000000000001" font-weight="bold" text-anchor="middle" pointer-events="visible" font-family="Open Sans, Tahoma, Arial" fill="#ffffff" dominant-baseline="hanging" transform="matrix(1,0,0,1,240,0)"><tspan dy="0" >Message Broker</tspan></text><text  id="v-16082" font-size="16.799999999999997px" xml:space="preserve" y="142.9" text-anchor="middle" font-family="Open Sans, Tahoma, Arial" fill="#ffffff" dominant-baseline="hanging" transform="matrix(1,0,0,1,240,0)" style="display: block;"><tspan dy="0" >[Container: Kafka]</tspan></text><text  id="v-16083" font-size="24px" xml:space="preserve" y="174.7" text-anchor="middle" font-family="Open Sans, Tahoma, Arial" fill="#ffffff" dominant-baseline="hanging" transform="matrix(1,0,0,1,240,0)" style="display: block;"><tspan dy="0" >Kafka</tspan></text><g  id="v-16084" font-weight="normal" text-anchor="middle" color="#ffffff" transform="matrix(1,0,0,1,237.5,268)" display="none"><g ></g><g ></g><g ></g><g ></g></g><image  id="v-16085"></image></g></g><!--z-index:112--><g   id="j_1195"  transform="translate(1982,779)" style=""><g  id="v-15950" style="opacity: 1;"><rect  id="v-15951" rx="1" ry="1" stroke-width="2" pointer-events="visiblePainted" fill="#111111" stroke="#cccccc" stroke-dasharray="" width="450" height="300"></rect><text  id="v-15952" font-size="33.599999999999994px" xml:space="preserve" y="86.9" font-weight="bold" text-anchor="middle" pointer-events="visible" font-family="Open Sans, Tahoma, Arial" fill="#cccccc" dominant-baseline="hanging" transform="matrix(1,0,0,1,225,0)"><tspan dy="0" >Proposal Controller</tspan></text><text  id="v-15953" font-size="16.799999999999997px" xml:space="preserve" y="128.5" text-anchor="middle" font-family="Open Sans, Tahoma, Arial" fill="#cccccc" dominant-baseline="hanging" transform="matrix(1,0,0,1,225,0)" style="display: block;"><tspan dy="0" >[Component: Spring MVC]</tspan></text><text  id="v-15954" font-size="24px" xml:space="preserve" y="160.3" text-anchor="middle" font-family="Open Sans, Tahoma, Arial" fill="#cccccc" dominant-baseline="hanging" transform="matrix(1,0,0,1,225,0)" style="display: block;"><tspan dy="0" >Обрабатывает входящие HTTP</tspan><tspan dy="1.2em" x="0" >запросы.</tspan></text><g  id="v-15955" color="#cccccc" transform="matrix(1,0,0,1,222.5,268)" display="none"><g ></g><g ></g><g ></g><g ></g></g><image  id="v-15956"></image></g></g><!--z-index:113--><g   id="j_1197"  transform="translate(2686,1379)" style=""><g  id="v-15968" style="opacity: 1;"><rect  id="v-15969" rx="1" ry="1" stroke-width="2" pointer-events="visiblePainted" fill="#111111" stroke="#cccccc" stroke-dasharray="" width="450" height="300"></rect><text  id="v-15970" font-size="33.599999999999994px" xml:space="preserve" y="86.9" font-weight="bold" text-anchor="middle" pointer-events="visible" font-family="Open Sans, Tahoma, Arial" fill="#cccccc" dominant-baseline="hanging" transform="matrix(1,0,0,1,225,0)"><tspan dy="0" >Proposal Orchestrator</tspan></text><text  id="v-15971" font-size="16.799999999999997px" xml:space="preserve" y="128.5" text-anchor="middle" font-family="Open Sans, Tahoma, Arial" fill="#cccccc" dominant-baseline="hanging" transform="matrix(1,0,0,1,225,0)" style="display: block;"><tspan dy="0" >[Component: Spring Service]</tspan></text><text  id="v-15972" font-size="24px" xml:space="preserve" y="160.3" text-anchor="middle" font-family="Open Sans, Tahoma, Arial" fill="#cccccc" dominant-baseline="hanging" transform="matrix(1,0,0,1,225,0)" style="display: block;"><tspan dy="0" >Координирует процесс</tspan><tspan dy="1.2em" x="0" >обогащения и расчета.</tspan></text><g  id="v-15973" color="#cccccc" transform="matrix(1,0,0,1,222.5,268)" display="none"><g ></g><g ></g><g ></g><g ></g></g><image  id="v-15974"></image></g></g><!--z-index:114--><g   id="j_1198"  transform="translate(3436,1979)" style=""><g  id="v-15978" style="opacity: 1;"><rect  id="v-15979" rx="1" ry="1" stroke-width="2" pointer-events="visiblePainted" fill="#111111" stroke="#cccccc" stroke-dasharray="" width="450" height="300"></rect><text  id="v-15980" font-size="33.599999999999994px" xml:space="preserve" y="86.9" font-weight="bold" text-anchor="middle" pointer-events="visible" font-family="Open Sans, Tahoma, Arial" fill="#cccccc" dominant-baseline="hanging" transform="matrix(1,0,0,1,225,0)"><tspan dy="0" >Workflow Engine</tspan></text><text  id="v-15981" font-size="16.799999999999997px" xml:space="preserve" y="128.5" text-anchor="middle" font-family="Open Sans, Tahoma, Arial" fill="#cccccc" dominant-baseline="hanging" transform="matrix(1,0,0,1,225,0)" style="display: block;"><tspan dy="0" >[Component: State Machine]</tspan></text><text  id="v-15982" font-size="24px" xml:space="preserve" y="160.3" text-anchor="middle" font-family="Open Sans, Tahoma, Arial" fill="#cccccc" dominant-baseline="hanging" transform="matrix(1,0,0,1,225,0)" style="display: block;"><tspan dy="0" >Управляет статусами (Draft -&gt;</tspan><tspan dy="1.2em" x="0" >Calculated -&gt; Issued).</tspan></text><g  id="v-15983" color="#cccccc" transform="matrix(1,0,0,1,222.5,268)" display="none"><g ></g><g ></g><g ></g><g ></g></g><image  id="v-15984"></image></g></g><!--z-index:115--><g   id="j_1199"  transform="translate(4186,1979)" style=""><g  id="v-15988" style="opacity: 1;"><rect  id="v-15989" rx="1" ry="1" stroke-width="2" pointer-events="visiblePainted" fill="#111111" stroke="#cccccc" stroke-dasharray="" width="450" height="300"></rect><text  id="v-15990" font-size="33.599999999999994px" xml:space="preserve" y="101.30000000000001" font-weight="bold" text-anchor="middle" pointer-events="visible" font-family="Open Sans, Tahoma, Arial" fill="#cccccc" dominant-baseline="hanging" transform="matrix(1,0,0,1,225,0)"><tspan dy="0" >Proposal Repository</tspan></text><text  id="v-15991" font-size="16.799999999999997px" xml:space="preserve" y="142.9" text-anchor="middle" font-family="Open Sans, Tahoma, Arial" fill="#cccccc" dominant-baseline="hanging" transform="matrix(1,0,0,1,225,0)" style="display: block;"><tspan dy="0" >[Component: JPA Repository]</tspan></text><text  id="v-15992" font-size="24px" xml:space="preserve" y="174.7" text-anchor="middle" font-family="Open Sans, Tahoma, Arial" fill="#cccccc" dominant-baseline="hanging" transform="matrix(1,0,0,1,225,0)" style="display: block;"><tspan dy="0" >Сохраняет заявки.</tspan></text><g  id="v-15993" color="#cccccc" transform="matrix(1,0,0,1,222.5,268)" display="none"><g ></g><g ></g><g ></g><g ></g></g><image  id="v-15994"></image></g></g><!--z-index:116--><g   id="j_1200"  transform="translate(1936,1979)" style=""><g  id="v-15995" style="opacity: 1;"><rect  id="v-15996" rx="1" ry="1" stroke-width="2" pointer-events="visiblePainted" fill="#111111" stroke="#cccccc" stroke-dasharray="" width="450" height="300"></rect><text  id="v-15997" font-size="33.599999999999994px" xml:space="preserve" y="101.30000000000001" font-weight="bold" text-anchor="middle" pointer-events="visible" font-family="Open Sans, Tahoma, Arial" fill="#cccccc" dominant-baseline="hanging" transform="matrix(1,0,0,1,225,0)"><tspan dy="0" >CRM Client</tspan></text><text  id="v-15998" font-size="16.799999999999997px" xml:space="preserve" y="142.9" text-anchor="middle" font-family="Open Sans, Tahoma, Arial" fill="#cccccc" dominant-baseline="hanging" transform="matrix(1,0,0,1,225,0)" style="display: block;"><tspan dy="0" >[Component: Feign Client]</tspan></text><text  id="v-15999" font-size="24px" xml:space="preserve" y="174.7" text-anchor="middle" font-family="Open Sans, Tahoma, Arial" fill="#cccccc" dominant-baseline="hanging" transform="matrix(1,0,0,1,225,0)" style="display: block;"><tspan dy="0" >Фасад для вызова CRM.</tspan></text><g  id="v-16000" color="#cccccc" transform="matrix(1,0,0,1,222.5,268)" display="none"><g ></g><g ></g><g ></g><g ></g></g><image  id="v-16001"></image></g></g><!--z-index:117--><g   id="j_1201"  transform="translate(4936,1979)" style=""><g  id="v-16008" style="opacity: 1;"><rect  id="v-16009" rx="1" ry="1" stroke-width="2" pointer-events="visiblePainted" fill="#111111" stroke="#cccccc" stroke-dasharray="" width="450" height="300"></rect><text  id="v-16010" font-size="33.599999999999994px" xml:space="preserve" y="86.9" font-weight="bold" text-anchor="middle" pointer-events="visible" font-family="Open Sans, Tahoma, Arial" fill="#cccccc" dominant-baseline="hanging" transform="matrix(1,0,0,1,225,0)"><tspan dy="0" >Calculation Client</tspan></text><text  id="v-16011" font-size="16.799999999999997px" xml:space="preserve" y="128.5" text-anchor="middle" font-family="Open Sans, Tahoma, Arial" fill="#cccccc" dominant-baseline="hanging" transform="matrix(1,0,0,1,225,0)" style="display: block;"><tspan dy="0" >[Component: gRPC Client]</tspan></text><text  id="v-16012" font-size="24px" xml:space="preserve" y="160.3" text-anchor="middle" font-family="Open Sans, Tahoma, Arial" fill="#cccccc" dominant-baseline="hanging" transform="matrix(1,0,0,1,225,0)" style="display: block;"><tspan dy="0" >Фасад для вызова Calculation</tspan><tspan dy="1.2em" x="0" >Engine.</tspan></text><g  id="v-16013" color="#cccccc" transform="matrix(1,0,0,1,222.5,268)" display="none"><g ></g><g ></g><g ></g><g ></g></g><image  id="v-16014"></image></g></g><!--z-index:118--><g   id="j_1202"  transform="translate(2686,1979)" style=""><g  id="v-16018" style="opacity: 1;"><rect  id="v-16019" rx="1" ry="1" stroke-width="2" pointer-events="visiblePainted" fill="#111111" stroke="#cccccc" stroke-dasharray="" width="450" height="300"></rect><text  id="v-16020" font-size="33.599999999999994px" xml:space="preserve" y="86.9" font-weight="bold" text-anchor="middle" pointer-events="visible" font-family="Open Sans, Tahoma, Arial" fill="#cccccc" dominant-baseline="hanging" transform="matrix(1,0,0,1,225,0)"><tspan dy="0" >ACL Client</tspan></text><text  id="v-16021" font-size="16.799999999999997px" xml:space="preserve" y="128.5" text-anchor="middle" font-family="Open Sans, Tahoma, Arial" fill="#cccccc" dominant-baseline="hanging" transform="matrix(1,0,0,1,225,0)" style="display: block;"><tspan dy="0" >[Component: Feign Client]</tspan></text><text  id="v-16022" font-size="24px" xml:space="preserve" y="160.3" text-anchor="middle" font-family="Open Sans, Tahoma, Arial" fill="#cccccc" dominant-baseline="hanging" transform="matrix(1,0,0,1,225,0)" style="display: block;"><tspan dy="0" >Фасад для вызова внешних</tspan><tspan dy="1.2em" x="0" >данных.</tspan></text><g  id="v-16023" color="#cccccc" transform="matrix(1,0,0,1,222.5,268)" display="none"><g ></g><g ></g><g ></g><g ></g></g><image  id="v-16024"></image></g></g><!--z-index:119--><g   id="j_1203"  transform="translate(1186,1979)" style=""><g  id="v-16028" style="opacity: 1;"><rect  id="v-16029" rx="1" ry="1" stroke-width="2" pointer-events="visiblePainted" fill="#111111" stroke="#cccccc" stroke-dasharray="" width="450" height="300"></rect><text  id="v-16030" font-size="33.599999999999994px" xml:space="preserve" y="101.30000000000001" font-weight="bold" text-anchor="middle" pointer-events="visible" font-family="Open Sans, Tahoma, Arial" fill="#cccccc" dominant-baseline="hanging" transform="matrix(1,0,0,1,225,0)"><tspan dy="0" >Event Publisher</tspan></text><text  id="v-16031" font-size="16.799999999999997px" xml:space="preserve" y="142.9" text-anchor="middle" font-family="Open Sans, Tahoma, Arial" fill="#cccccc" dominant-baseline="hanging" transform="matrix(1,0,0,1,225,0)" style="display: block;"><tspan dy="0" >[Component: Kafka Producer]</tspan></text><text  id="v-16032" font-size="24px" xml:space="preserve" y="174.7" text-anchor="middle" font-family="Open Sans, Tahoma, Arial" fill="#cccccc" dominant-baseline="hanging" transform="matrix(1,0,0,1,225,0)" style="display: block;"><tspan dy="0" >Публикует события в брокер.</tspan></text><g  id="v-16033" color="#cccccc" transform="matrix(1,0,0,1,222.5,268)" display="none"><g ></g><g ></g><g ></g><g ></g></g><image  id="v-16034"></image></g></g><!--z-index:120--><g   id="j_1208" ><path  stroke="#cccccc" d="M 5161 2279 L 5161 2579" id="v-16098" stroke-width="2" stroke-dasharray="8 8" fill="none" style="opacity: 1;"></path><path  fill="black" stroke="black" d="M 0 0 0 0" transform="matrix(6.123233995736766e-17,1,-1,6.123233995736766e-17,5161,2279)"></path><path  fill="#cccccc" stroke="#cccccc" d="M 20 0 L 0 10 L 20 20 z" id="v-16100" transform="matrix(-1.8369701987210297e-16,-1,1,-1.8369701987210297e-16,5151,2579)" style="opacity: 1;"></path><path  d="M 5161 2279 L 5161 2579" id="v-16099" fill="none" style="cursor: auto; pointer-events: visiblepainted;"></path><g ><g id="v-16092"  label-idx="0" cursor="move" transform="matrix(1,0,0,1,5161,2429)" style="cursor: default; opacity: 1;"><rect joint-selector="rect" id="v-16095" fill="#111111" rx="3" ry="3" pointer-events="none" width="187.3081817626953" height="64.0017032623291" transform="matrix(1,0,0,1,-94.5,-32)"></rect><text joint-selector="text" id="v-16094" font-size="24px" xml:space="preserve" y="0.8em" fill="#cccccc" text-anchor="middle" pointer-events="none" font-family="Open Sans, Tahoma, Arial" font-weight="normal" transform="matrix(1,0,0,1,0,-23.8)"><tspan dy="0" >Запрос расчета</tspan><tspan dy="1.2em" x="0" >(gRPC)</tspan></text></g><g id="v-16093"  label-idx="1" cursor="move" transform="matrix(1,0,0,1,5151,2455.39990234375)" style="cursor: default; opacity: 1;"><rect joint-selector="rect" id="v-16097" fill="#ffffff" rx="3" ry="3"  width="0" height="0" transform="matrix(1,0,0,1,0,0)" display="none"></rect><text joint-selector="text" id="v-16096" fill="#000000" font-size="14" text-anchor="middle" pointer-events="none"></text></g></g><g  display="none" style="display: none;"></g><g  id="v-16102" display="none"><g  id="v-16090"><path  end="source" d="M 26 0 L 0 13 L 26 26 z"></path></g><g  id="v-16091"><path  end="target" d="M 26 0 L 0 13 L 26 26 z"></path></g></g><g  id="v-16101" display="none"><g  id="v-16089" transform="translate(5161, 2319) "><g  event="remove"><circle r="11"></circle><path transform="scale(.8) translate(-16, -16)" d="M24.778,21.419 19.276,15.917 24.777,10.415 21.949,7.585 16.447,13.087 10.945,7.585 8.117,10.415 13.618,15.917 8.116,21.419 10.946,24.248 16.447,18.746 21.948,24.248z"></path><title>Remove link.</title></g><g  event="link:options"><circle r="11" transform="translate(25)"></circle><path fill="white" transform="scale(.55) translate(29, -16)" d="M31.229,17.736c0.064-0.571,0.104-1.148,0.104-1.736s-0.04-1.166-0.104-1.737l-4.377-1.557c-0.218-0.716-0.504-1.401-0.851-2.05l1.993-4.192c-0.725-0.91-1.549-1.734-2.458-2.459l-4.193,1.994c-0.647-0.347-1.334-0.632-2.049-0.849l-1.558-4.378C17.165,0.708,16.588,0.667,16,0.667s-1.166,0.041-1.737,0.105L12.707,5.15c-0.716,0.217-1.401,0.502-2.05,0.849L6.464,4.005C5.554,4.73,4.73,5.554,4.005,6.464l1.994,4.192c-0.347,0.648-0.632,1.334-0.849,2.05l-4.378,1.557C0.708,14.834,0.667,15.412,0.667,16s0.041,1.165,0.105,1.736l4.378,1.558c0.217,0.715,0.502,1.401,0.849,2.049l-1.994,4.193c0.725,0.909,1.549,1.733,2.459,2.458l4.192-1.993c0.648,0.347,1.334,0.633,2.05,0.851l1.557,4.377c0.571,0.064,1.148,0.104,1.737,0.104c0.588,0,1.165-0.04,1.736-0.104l1.558-4.377c0.715-0.218,1.399-0.504,2.049-0.851l4.193,1.993c0.909-0.725,1.733-1.549,2.458-2.458l-1.993-4.193c0.347-0.647,0.633-1.334,0.851-2.049L31.229,17.736zM16,20.871c-2.69,0-4.872-2.182-4.872-4.871c0-2.69,2.182-4.872,4.872-4.872c2.689,0,4.871,2.182,4.871,4.872C20.871,18.689,18.689,20.871,16,20.871z"></path><title>Link options.</title></g></g></g></g><!--z-index:121--><g   id="j_1209" ><path  stroke="#cccccc" d="M 4411 2279 L 4411 2579" id="v-16112" stroke-width="2" stroke-dasharray="8 8" fill="none" style="opacity: 1;"></path><path  fill="black" stroke="black" d="M 0 0 0 0" transform="matrix(6.123233995736766e-17,1,-1,6.123233995736766e-17,4411,2279)"></path><path  fill="#cccccc" stroke="#cccccc" d="M 20 0 L 0 10 L 20 20 z" id="v-16114" transform="matrix(-1.8369701987210297e-16,-1,1,-1.8369701987210297e-16,4401,2579)" style="opacity: 1;"></path><path  d="M 4411 2279 L 4411 2579" id="v-16113" fill="none" style="cursor: auto; pointer-events: visiblepainted;"></path><g ><g id="v-16106"  label-idx="0" cursor="move" transform="matrix(1,0,0,1,4411,2429)" style="cursor: default; opacity: 1;"><rect joint-selector="rect" id="v-16109" fill="#111111" rx="3" ry="3" pointer-events="none" width="47.44176483154297" height="35.20170211791992" transform="matrix(1,0,0,1,-22.2,-17.6)"></rect><text joint-selector="text" id="v-16108" font-size="24px" xml:space="preserve" y="0.8em" fill="#cccccc" text-anchor="middle" pointer-events="none" font-family="Open Sans, Tahoma, Arial" font-weight="normal" transform="matrix(1,0,0,1,0,-9.4)"><tspan dy="0" >SQL</tspan></text></g><g id="v-16107"  label-idx="1" cursor="move" transform="matrix(1,0,0,1,4401,2441)" style="cursor: default; opacity: 1;"><rect joint-selector="rect" id="v-16111" fill="#ffffff" rx="3" ry="3"  width="0" height="0" transform="matrix(1,0,0,1,0,0)" display="none"></rect><text joint-selector="text" id="v-16110" fill="#000000" font-size="14" text-anchor="middle" pointer-events="none"></text></g></g><g  display="none" style="display: none;"></g><g  id="v-16116" display="none"><g  id="v-16104"><path  end="source" d="M 26 0 L 0 13 L 26 26 z"></path></g><g  id="v-16105"><path  end="target" d="M 26 0 L 0 13 L 26 26 z"></path></g></g><g  id="v-16115" display="none"><g  id="v-16103" transform="translate(4411, 2319) "><g  event="remove"><circle r="11"></circle><path transform="scale(.8) translate(-16, -16)" d="M24.778,21.419 19.276,15.917 24.777,10.415 21.949,7.585 16.447,13.087 10.945,7.585 8.117,10.415 13.618,15.917 8.116,21.419 10.946,24.248 16.447,18.746 21.948,24.248z"></path><title>Remove link.</title></g><g  event="link:options"><circle r="11" transform="translate(25)"></circle><path fill="white" transform="scale(.55) translate(29, -16)" d="M31.229,17.736c0.064-0.571,0.104-1.148,0.104-1.736s-0.04-1.166-0.104-1.737l-4.377-1.557c-0.218-0.716-0.504-1.401-0.851-2.05l1.993-4.192c-0.725-0.91-1.549-1.734-2.458-2.459l-4.193,1.994c-0.647-0.347-1.334-0.632-2.049-0.849l-1.558-4.378C17.165,0.708,16.588,0.667,16,0.667s-1.166,0.041-1.737,0.105L12.707,5.15c-0.716,0.217-1.401,0.502-2.05,0.849L6.464,4.005C5.554,4.73,4.73,5.554,4.005,6.464l1.994,4.192c-0.347,0.648-0.632,1.334-0.849,2.05l-4.378,1.557C0.708,14.834,0.667,15.412,0.667,16s0.041,1.165,0.105,1.736l4.378,1.558c0.217,0.715,0.502,1.401,0.849,2.049l-1.994,4.193c0.725,0.909,1.549,1.733,2.459,2.458l4.192-1.993c0.648,0.347,1.334,0.633,2.05,0.851l1.557,4.377c0.571,0.064,1.148,0.104,1.737,0.104c0.588,0,1.165-0.04,1.736-0.104l1.558-4.377c0.715-0.218,1.399-0.504,2.049-0.851l4.193,1.993c0.909-0.725,1.733-1.549,2.458-2.458l-1.993-4.193c0.347-0.647,0.633-1.334,0.851-2.049L31.229,17.736zM16,20.871c-2.69,0-4.872-2.182-4.872-4.871c0-2.69,2.182-4.872,4.872-4.872c2.689,0,4.871,2.182,4.871,4.872C20.871,18.689,18.689,20.871,16,20.871z"></path><title>Link options.</title></g></g></g></g><!--z-index:122--><g   id="j_1210" ><path  stroke="#cccccc" d="M 1186 2031 L 387 1683 C 381 1680.3333333333333 378 1675.6666666666665 378 1669 L 378 1389 C 378 1382.3333333333333 378.3333333333333 1375.6666666666665 379 1369 L 423 1079" id="v-16131" stroke-width="2" stroke-dasharray="8 8" fill="none" style="opacity: 1;"></path><path  fill="black" stroke="black" d="M 0 0 0 0" transform="matrix(-0.9167894954584597,-0.39937078137618304,0.39937078137618304,-0.9167894954584597,1186,2030.97998046875)"></path><path  fill="#cccccc" stroke="#cccccc" d="M 20 0 L 0 10 L 20 20 z" id="v-16133" transform="matrix(-0.14727628658915004,0.9890953924715808,-0.9890953924715808,-0.14727628658915004,432.5609518980292,1080.4728001521132)" style="opacity: 1;"></path><path  d="M 1186 2031 L 387 1683 C 381 1680.3333333333333 378 1675.6666666666665 378 1669 L 378 1389 C 378 1382.3333333333333 378.3333333333333 1375.6666666666665 379 1369 L 423 1079" id="v-16132" fill="none" style="cursor: auto; pointer-events: visiblepainted;"></path><g ><g id="v-16125"  label-idx="0" cursor="move" transform="matrix(1,0,0,1,506.368408203125,1734.990234375)" style="cursor: default; opacity: 1;"><rect joint-selector="rect" id="v-16128" fill="#111111" rx="3" ry="3" pointer-events="none" width="187.88070678710938" height="64.0017032623291" transform="matrix(1,0,0,1,-93.5,-32)"></rect><text joint-selector="text" id="v-16127" font-size="24px" xml:space="preserve" y="0.8em" fill="#cccccc" text-anchor="middle" pointer-events="none" font-family="Open Sans, Tahoma, Arial" font-weight="normal" transform="matrix(1,0,0,1,0,-23.8)"><tspan dy="0" >Publishes:</tspan><tspan dy="1.2em" x="0" >ProposalCreated</tspan></text></g><g id="v-16126"  label-idx="1" cursor="move" transform="matrix(1,0,0,1,496.368408203125,1761.3902587890625)" style="cursor: default; opacity: 1;"><rect joint-selector="rect" id="v-16130" fill="#ffffff" rx="3" ry="3"  width="0" height="0" transform="matrix(1,0,0,1,0,0)" display="none"></rect><text joint-selector="text" id="v-16129" fill="#000000" font-size="14" text-anchor="middle" pointer-events="none"></text></g></g><g  display="none" style="display: none;"><g  transform="translate(378, 1679)" id="v-16121"><circle  idx="0" r="10"></circle><path  idx="0" d="M16,5.333c-7.732,0-14,4.701-14,10.5c0,1.982,0.741,3.833,2.016,5.414L2,25.667l5.613-1.441c2.339,1.317,5.237,2.107,8.387,2.107c7.732,0,14-4.701,14-10.5C30,10.034,23.732,5.333,16,5.333z" transform="translate(5, -33)"></path><path  idx="0" transform="scale(.8) translate(9.5, -37)" d="M24.778,21.419 19.276,15.917 24.777,10.415 21.949,7.585 16.447,13.087 10.945,7.585 8.117,10.415 13.618,15.917 8.116,21.419 10.946,24.248 16.447,18.746 21.948,24.248z"><title>Remove vertex.</title></path></g><g  transform="translate(378, 1379)" id="v-16122"><circle  idx="1" r="10"></circle><path  idx="1" d="M16,5.333c-7.732,0-14,4.701-14,10.5c0,1.982,0.741,3.833,2.016,5.414L2,25.667l5.613-1.441c2.339,1.317,5.237,2.107,8.387,2.107c7.732,0,14-4.701,14-10.5C30,10.034,23.732,5.333,16,5.333z" transform="translate(5, -33)"></path><path  idx="1" transform="scale(.8) translate(9.5, -37)" d="M24.778,21.419 19.276,15.917 24.777,10.415 21.949,7.585 16.447,13.087 10.945,7.585 8.117,10.415 13.618,15.917 8.116,21.419 10.946,24.248 16.447,18.746 21.948,24.248z"><title>Remove vertex.</title></path></g></g><g  id="v-16135" display="none"><g  id="v-16123"><path  end="source" d="M 26 0 L 0 13 L 26 26 z"></path></g><g  id="v-16124"><path  end="target" d="M 26 0 L 0 13 L 26 26 z"></path></g></g><g  id="v-16134" display="none"><g  id="v-16120" transform="translate(1149.3274210673812, 2015.0274624924264) "><g  event="remove"><circle r="11"></circle><path transform="scale(.8) translate(-16, -16)" d="M24.778,21.419 19.276,15.917 24.777,10.415 21.949,7.585 16.447,13.087 10.945,7.585 8.117,10.415 13.618,15.917 8.116,21.419 10.946,24.248 16.447,18.746 21.948,24.248z"></path><title>Remove link.</title></g><g  event="link:options"><circle r="11" transform="translate(25)"></circle><path fill="white" transform="scale(.55) translate(29, -16)" d="M31.229,17.736c0.064-0.571,0.104-1.148,0.104-1.736s-0.04-1.166-0.104-1.737l-4.377-1.557c-0.218-0.716-0.504-1.401-0.851-2.05l1.993-4.192c-0.725-0.91-1.549-1.734-2.458-2.459l-4.193,1.994c-0.647-0.347-1.334-0.632-2.049-0.849l-1.558-4.378C17.165,0.708,16.588,0.667,16,0.667s-1.166,0.041-1.737,0.105L12.707,5.15c-0.716,0.217-1.401,0.502-2.05,0.849L6.464,4.005C5.554,4.73,4.73,5.554,4.005,6.464l1.994,4.192c-0.347,0.648-0.632,1.334-0.849,2.05l-4.378,1.557C0.708,14.834,0.667,15.412,0.667,16s0.041,1.165,0.105,1.736l4.378,1.558c0.217,0.715,0.502,1.401,0.849,2.049l-1.994,4.193c0.725,0.909,1.549,1.733,2.459,2.458l4.192-1.993c0.648,0.347,1.334,0.633,2.05,0.851l1.557,4.377c0.571,0.064,1.148,0.104,1.737,0.104c0.588,0,1.165-0.04,1.736-0.104l1.558-4.377c0.715-0.218,1.399-0.504,2.049-0.851l4.193,1.993c0.909-0.725,1.733-1.549,2.458-2.458l-1.993-4.193c0.347-0.647,0.633-1.334,0.851-2.049L31.229,17.736zM16,20.871c-2.69,0-4.872-2.182-4.872-4.871c0-2.69,2.182-4.872,4.872-4.872c2.689,0,4.871,2.182,4.871,4.872C20.871,18.689,18.689,20.871,16,20.871z"></path><title>Link options.</title></g></g></g></g><!--z-index:123--><g   id="j_1211" ><path  stroke="#cccccc" d="M 522 1079 L 676 1379" id="v-16148" stroke-width="2" stroke-dasharray="8 8" fill="none" style="opacity: 1;"></path><path  fill="black" stroke="black" d="M 0 0 0 0" transform="matrix(0.4566778062486522,0.8896321606596282,-0.8896321606596282,0.4566778062486522,522,1079)"></path><path  fill="#cccccc" stroke="#cccccc" d="M 20 0 L 0 10 L 20 20 z" id="v-16150" transform="matrix(-0.45667786547949546,-0.8896321302544619,0.8896321302544619,-0.45667786547949546,667.1036848913128,1383.5667376526521)" style="opacity: 1;"></path><path  d="M 522 1079 L 676 1379" id="v-16149" fill="none" style="cursor: auto; pointer-events: visiblepainted;"></path><g ><g id="v-16142"  label-idx="0" cursor="move" transform="matrix(1,0,0,1,599,1229)" style="cursor: default; opacity: 1;"><rect joint-selector="rect" id="v-16145" fill="#111111" rx="3" ry="3" pointer-events="none" width="162.1847381591797" height="92.80170822143555" transform="matrix(1,0,0,1,-82,-46.4)"></rect><text joint-selector="text" id="v-16144" font-size="24px" xml:space="preserve" y="0.8em" fill="#cccccc" text-anchor="middle" pointer-events="none" font-family="Open Sans, Tahoma, Arial" font-weight="normal" transform="matrix(1,0,0,1,0,-38.2)"><tspan dy="0" >Слушает:</tspan><tspan dy="1.2em" x="0" >Отправить</tspan><tspan dy="1.2em" x="0" >уведомление</tspan></text></g><g id="v-16143"  label-idx="1" cursor="move" transform="matrix(1,0,0,1,589,1269.800048828125)" style="cursor: default; opacity: 1;"><rect joint-selector="rect" id="v-16147" fill="#ffffff" rx="3" ry="3"  width="0" height="0" transform="matrix(1,0,0,1,0,0)" display="none"></rect><text joint-selector="text" id="v-16146" fill="#000000" font-size="14" text-anchor="middle" pointer-events="none"></text></g></g><g  display="none" style="display: none;"></g><g  id="v-16152" display="none"><g  id="v-16140"><path  end="source" d="M 26 0 L 0 13 L 26 26 z"></path></g><g  id="v-16141"><path  end="target" d="M 26 0 L 0 13 L 26 26 z"></path></g></g><g  id="v-16151" display="none"><g  id="v-16139" transform="translate(540.2671133966963, 1114.5852858377202) "><g  event="remove"><circle r="11"></circle><path transform="scale(.8) translate(-16, -16)" d="M24.778,21.419 19.276,15.917 24.777,10.415 21.949,7.585 16.447,13.087 10.945,7.585 8.117,10.415 13.618,15.917 8.116,21.419 10.946,24.248 16.447,18.746 21.948,24.248z"></path><title>Remove link.</title></g><g  event="link:options"><circle r="11" transform="translate(25)"></circle><path fill="white" transform="scale(.55) translate(29, -16)" d="M31.229,17.736c0.064-0.571,0.104-1.148,0.104-1.736s-0.04-1.166-0.104-1.737l-4.377-1.557c-0.218-0.716-0.504-1.401-0.851-2.05l1.993-4.192c-0.725-0.91-1.549-1.734-2.458-2.459l-4.193,1.994c-0.647-0.347-1.334-0.632-2.049-0.849l-1.558-4.378C17.165,0.708,16.588,0.667,16,0.667s-1.166,0.041-1.737,0.105L12.707,5.15c-0.716,0.217-1.401,0.502-2.05,0.849L6.464,4.005C5.554,4.73,4.73,5.554,4.005,6.464l1.994,4.192c-0.347,0.648-0.632,1.334-0.849,2.05l-4.378,1.557C0.708,14.834,0.667,15.412,0.667,16s0.041,1.165,0.105,1.736l4.378,1.558c0.217,0.715,0.502,1.401,0.849,2.049l-1.994,4.193c0.725,0.909,1.549,1.733,2.459,2.458l4.192-1.993c0.648,0.347,1.334,0.633,2.05,0.851l1.557,4.377c0.571,0.064,1.148,0.104,1.737,0.104c0.588,0,1.165-0.04,1.736-0.104l1.558-4.377c0.715-0.218,1.399-0.504,2.049-0.851l4.193,1.993c0.909-0.725,1.733-1.549,2.458-2.458l-1.993-4.193c0.347-0.647,0.633-1.334,0.851-2.049L31.229,17.736zM16,20.871c-2.69,0-4.872-2.182-4.872-4.871c0-2.69,2.182-4.872,4.872-4.872c2.689,0,4.871,2.182,4.871,4.872C20.871,18.689,18.689,20.871,16,20.871z"></path><title>Link options.</title></g></g></g></g><!--z-index:124--><g   id="j_1212" ><path  stroke="#cccccc" d="M 1754 479 L 1959 668 C 1963.6666666666665 672.6666666666666 1968.333333333333 677.3333333333333 1973 682 L 2065 779" id="v-16166" stroke-width="2" stroke-dasharray="8 8" fill="none" style="opacity: 1;"></path><path  fill="black" stroke="black" d="M 0 0 0 0" transform="matrix(0.7349572977083593,0.6781133906252156,-0.6781133906252156,0.7349572977083593,1753.5699462890625,479)"></path><path  fill="#cccccc" stroke="#cccccc" d="M 20 0 L 0 10 L 20 20 z" id="v-16168" transform="matrix(-0.6883093704992261,-0.7254172664632123,0.7254172664632123,-0.6883093704992261,2057.42579604036,785.8831159789994)" style="opacity: 1;"></path><path  d="M 1754 479 L 1959 668 C 1963.6666666666665 672.6666666666666 1968.333333333333 677.3333333333333 1973 682 L 2065 779" id="v-16167" fill="none" style="cursor: auto; pointer-events: visiblepainted;"></path><g ><g id="v-16160"  label-idx="0" cursor="move" transform="matrix(1,0,0,1,1912.9237060546875,625.5199584960938)" style="cursor: default; opacity: 1;"><rect joint-selector="rect" id="v-16163" fill="#111111" rx="3" ry="3" pointer-events="none" width="187.3081817626953" height="35.20170211791992" transform="matrix(1,0,0,1,-94.5,-17.6)"></rect><text joint-selector="text" id="v-16162" font-size="24px" xml:space="preserve" y="0.8em" fill="#cccccc" text-anchor="middle" pointer-events="none" font-family="Open Sans, Tahoma, Arial" font-weight="normal" transform="matrix(1,0,0,1,0,-9.4)"><tspan dy="0" >Запрос расчета</tspan></text></g><g id="v-16161"  label-idx="1" cursor="move" transform="matrix(1,0,0,1,1902.9237060546875,637.5199584960938)" style="cursor: default; opacity: 1;"><rect joint-selector="rect" id="v-16165" fill="#ffffff" rx="3" ry="3"  width="0" height="0" transform="matrix(1,0,0,1,0,0)" display="none"></rect><text joint-selector="text" id="v-16164" fill="#000000" font-size="14" text-anchor="middle" pointer-events="none"></text></g></g><g  display="none" style="display: none;"><g  transform="translate(1966, 675)" id="v-16157"><circle  idx="0" r="10"></circle><path  idx="0" d="M16,5.333c-7.732,0-14,4.701-14,10.5c0,1.982,0.741,3.833,2.016,5.414L2,25.667l5.613-1.441c2.339,1.317,5.237,2.107,8.387,2.107c7.732,0,14-4.701,14-10.5C30,10.034,23.732,5.333,16,5.333z" transform="translate(5, -33)"></path><path  idx="0" transform="scale(.8) translate(9.5, -37)" d="M24.778,21.419 19.276,15.917 24.777,10.415 21.949,7.585 16.447,13.087 10.945,7.585 8.117,10.415 13.618,15.917 8.116,21.419 10.946,24.248 16.447,18.746 21.948,24.248z"><title>Remove vertex.</title></path></g></g><g  id="v-16170" display="none"><g  id="v-16158"><path  end="source" d="M 26 0 L 0 13 L 26 26 z"></path></g><g  id="v-16159"><path  end="target" d="M 26 0 L 0 13 L 26 26 z"></path></g></g><g  id="v-16169" display="none"><g  id="v-16156" transform="translate(1783.40863216683, 506.1133242903945) "><g  event="remove"><circle r="11"></circle><path transform="scale(.8) translate(-16, -16)" d="M24.778,21.419 19.276,15.917 24.777,10.415 21.949,7.585 16.447,13.087 10.945,7.585 8.117,10.415 13.618,15.917 8.116,21.419 10.946,24.248 16.447,18.746 21.948,24.248z"></path><title>Remove link.</title></g><g  event="link:options"><circle r="11" transform="translate(25)"></circle><path fill="white" transform="scale(.55) translate(29, -16)" d="M31.229,17.736c0.064-0.571,0.104-1.148,0.104-1.736s-0.04-1.166-0.104-1.737l-4.377-1.557c-0.218-0.716-0.504-1.401-0.851-2.05l1.993-4.192c-0.725-0.91-1.549-1.734-2.458-2.459l-4.193,1.994c-0.647-0.347-1.334-0.632-2.049-0.849l-1.558-4.378C17.165,0.708,16.588,0.667,16,0.667s-1.166,0.041-1.737,0.105L12.707,5.15c-0.716,0.217-1.401,0.502-2.05,0.849L6.464,4.005C5.554,4.73,4.73,5.554,4.005,6.464l1.994,4.192c-0.347,0.648-0.632,1.334-0.849,2.05l-4.378,1.557C0.708,14.834,0.667,15.412,0.667,16s0.041,1.165,0.105,1.736l4.378,1.558c0.217,0.715,0.502,1.401,0.849,2.049l-1.994,4.193c0.725,0.909,1.549,1.733,2.459,2.458l4.192-1.993c0.648,0.347,1.334,0.633,2.05,0.851l1.557,4.377c0.571,0.064,1.148,0.104,1.737,0.104c0.588,0,1.165-0.04,1.736-0.104l1.558-4.377c0.715-0.218,1.399-0.504,2.049-0.851l4.193,1.993c0.909-0.725,1.733-1.549,2.458-2.458l-1.993-4.193c0.347-0.647,0.633-1.334,0.851-2.049L31.229,17.736zM16,20.871c-2.69,0-4.872-2.182-4.872-4.871c0-2.69,2.182-4.872,4.872-4.872c2.689,0,4.871,2.182,4.871,4.872C20.871,18.689,18.689,20.871,16,20.871z"></path><title>Link options.</title></g></g></g></g><!--z-index:125--><g   id="j_1213" ><path  stroke="#cccccc" d="M 2383 1079 L 2735 1379" id="v-16183" stroke-width="2" stroke-dasharray="8 8" fill="none" style="opacity: 1;"></path><path  fill="black" stroke="black" d="M 0 0 0 0" transform="matrix(0.7610851030637531,0.6486520376090993,-0.6486520376090993,0.7610851030637531,2383,1079)"></path><path  fill="#cccccc" stroke="#cccccc" d="M 20 0 L 0 10 L 20 20 z" id="v-16185" transform="matrix(-0.7610851030637532,-0.6486520376090991,0.6486520376090991,-0.7610851030637532,2728.5134908107966,1386.6107991411036)" style="opacity: 1;"></path><path  d="M 2383 1079 L 2735 1379" id="v-16184" fill="none" style="cursor: auto; pointer-events: visiblepainted;"></path><g ><g id="v-16177"  label-idx="0" cursor="move" transform="matrix(1,0,0,1,2559,1229)" style="cursor: default; opacity: 1;"><rect joint-selector="rect" id="v-16180" fill="#111111" rx="3" ry="3" pointer-events="none" width="199.23777770996094" height="35.20170211791992" transform="matrix(1,0,0,1,-100.4,-17.6)"></rect><text joint-selector="text" id="v-16179" font-size="24px" xml:space="preserve" y="0.8em" fill="#cccccc" text-anchor="middle" pointer-events="none" font-family="Open Sans, Tahoma, Arial" font-weight="normal" transform="matrix(1,0,0,1,0,-9.4)"><tspan dy="0" >Запуск процесса</tspan></text></g><g id="v-16178"  label-idx="1" cursor="move" transform="matrix(1,0,0,1,2549,1241)" style="cursor: default; opacity: 1;"><rect joint-selector="rect" id="v-16182" fill="#ffffff" rx="3" ry="3"  width="0" height="0" transform="matrix(1,0,0,1,0,0)" display="none"></rect><text joint-selector="text" id="v-16181" fill="#000000" font-size="14" text-anchor="middle" pointer-events="none"></text></g></g><g  display="none" style="display: none;"></g><g  id="v-16187" display="none"><g  id="v-16175"><path  end="source" d="M 26 0 L 0 13 L 26 26 z"></path></g><g  id="v-16176"><path  end="target" d="M 26 0 L 0 13 L 26 26 z"></path></g></g><g  id="v-16186" display="none"><g  id="v-16174" transform="translate(2413.4434033550624, 1104.9460824048829) "><g  event="remove"><circle r="11"></circle><path transform="scale(.8) translate(-16, -16)" d="M24.778,21.419 19.276,15.917 24.777,10.415 21.949,7.585 16.447,13.087 10.945,7.585 8.117,10.415 13.618,15.917 8.116,21.419 10.946,24.248 16.447,18.746 21.948,24.248z"></path><title>Remove link.</title></g><g  event="link:options"><circle r="11" transform="translate(25)"></circle><path fill="white" transform="scale(.55) translate(29, -16)" d="M31.229,17.736c0.064-0.571,0.104-1.148,0.104-1.736s-0.04-1.166-0.104-1.737l-4.377-1.557c-0.218-0.716-0.504-1.401-0.851-2.05l1.993-4.192c-0.725-0.91-1.549-1.734-2.458-2.459l-4.193,1.994c-0.647-0.347-1.334-0.632-2.049-0.849l-1.558-4.378C17.165,0.708,16.588,0.667,16,0.667s-1.166,0.041-1.737,0.105L12.707,5.15c-0.716,0.217-1.401,0.502-2.05,0.849L6.464,4.005C5.554,4.73,4.73,5.554,4.005,6.464l1.994,4.192c-0.347,0.648-0.632,1.334-0.849,2.05l-4.378,1.557C0.708,14.834,0.667,15.412,0.667,16s0.041,1.165,0.105,1.736l4.378,1.558c0.217,0.715,0.502,1.401,0.849,2.049l-1.994,4.193c0.725,0.909,1.549,1.733,2.459,2.458l4.192-1.993c0.648,0.347,1.334,0.633,2.05,0.851l1.557,4.377c0.571,0.064,1.148,0.104,1.737,0.104c0.588,0,1.165-0.04,1.736-0.104l1.558-4.377c0.715-0.218,1.399-0.504,2.049-0.851l4.193,1.993c0.909-0.725,1.733-1.549,2.458-2.458l-1.993-4.193c0.347-0.647,0.633-1.334,0.851-2.049L31.229,17.736zM16,20.871c-2.69,0-4.872-2.182-4.872-4.871c0-2.69,2.182-4.872,4.872-4.872c2.689,0,4.871,2.182,4.871,4.872C20.871,18.689,18.689,20.871,16,20.871z"></path><title>Link options.</title></g></g></g></g><!--z-index:126--><g   id="j_1214" ><path  stroke="#cccccc" d="M 3099 1679 L 3474 1979" id="v-16200" stroke-width="2" stroke-dasharray="8 8" fill="none" style="opacity: 1;"></path><path  fill="black" stroke="black" d="M 0 0 0 0" transform="matrix(0.7808688000832672,0.624695059254128,-0.624695059254128,0.7808688000832672,3098.5,1679)"></path><path  fill="#cccccc" stroke="#cccccc" d="M 20 0 L 0 10 L 20 20 z" id="v-16202" transform="matrix(-0.7808688416748548,-0.6246950072646416,0.6246950072646416,-0.7808688416748548,3467.253144594102,1986.8086902472076)" style="opacity: 1;"></path><path  d="M 3099 1679 L 3474 1979" id="v-16201" fill="none" style="cursor: auto; pointer-events: visiblepainted;"></path><g ><g id="v-16194"  label-idx="0" cursor="move" transform="matrix(1,0,0,1,3286.5,1829)" style="cursor: default; opacity: 1;"><rect joint-selector="rect" id="v-16197" fill="#111111" rx="3" ry="3" pointer-events="none" width="116.4788818359375" height="64.0017032623291" transform="matrix(1,0,0,1,-57.1,-32)"></rect><text joint-selector="text" id="v-16196" font-size="24px" xml:space="preserve" y="0.8em" fill="#cccccc" text-anchor="middle" pointer-events="none" font-family="Open Sans, Tahoma, Arial" font-weight="normal" transform="matrix(1,0,0,1,0,-23.8)"><tspan dy="0" >Проверка</tspan><tspan dy="1.2em" x="0" >перехода</tspan></text></g><g id="v-16195"  label-idx="1" cursor="move" transform="matrix(1,0,0,1,3276.5,1855.4000244140625)" style="cursor: default; opacity: 1;"><rect joint-selector="rect" id="v-16199" fill="#ffffff" rx="3" ry="3"  width="0" height="0" transform="matrix(1,0,0,1,0,0)" display="none"></rect><text joint-selector="text" id="v-16198" fill="#000000" font-size="14" text-anchor="middle" pointer-events="none"></text></g></g><g  display="none" style="display: none;"></g><g  id="v-16204" display="none"><g  id="v-16192"><path  end="source" d="M 26 0 L 0 13 L 26 26 z"></path></g><g  id="v-16193"><path  end="target" d="M 26 0 L 0 13 L 26 26 z"></path></g></g><g  id="v-16203" display="none"><g  id="v-16191" transform="translate(3130.234752377721, 1703.9878019021771) "><g  event="remove"><circle r="11"></circle><path transform="scale(.8) translate(-16, -16)" d="M24.778,21.419 19.276,15.917 24.777,10.415 21.949,7.585 16.447,13.087 10.945,7.585 8.117,10.415 13.618,15.917 8.116,21.419 10.946,24.248 16.447,18.746 21.948,24.248z"></path><title>Remove link.</title></g><g  event="link:options"><circle r="11" transform="translate(25)"></circle><path fill="white" transform="scale(.55) translate(29, -16)" d="M31.229,17.736c0.064-0.571,0.104-1.148,0.104-1.736s-0.04-1.166-0.104-1.737l-4.377-1.557c-0.218-0.716-0.504-1.401-0.851-2.05l1.993-4.192c-0.725-0.91-1.549-1.734-2.458-2.459l-4.193,1.994c-0.647-0.347-1.334-0.632-2.049-0.849l-1.558-4.378C17.165,0.708,16.588,0.667,16,0.667s-1.166,0.041-1.737,0.105L12.707,5.15c-0.716,0.217-1.401,0.502-2.05,0.849L6.464,4.005C5.554,4.73,4.73,5.554,4.005,6.464l1.994,4.192c-0.347,0.648-0.632,1.334-0.849,2.05l-4.378,1.557C0.708,14.834,0.667,15.412,0.667,16s0.041,1.165,0.105,1.736l4.378,1.558c0.217,0.715,0.502,1.401,0.849,2.049l-1.994,4.193c0.725,0.909,1.549,1.733,2.459,2.458l4.192-1.993c0.648,0.347,1.334,0.633,2.05,0.851l1.557,4.377c0.571,0.064,1.148,0.104,1.737,0.104c0.588,0,1.165-0.04,1.736-0.104l1.558-4.377c0.715-0.218,1.399-0.504,2.049-0.851l4.193,1.993c0.909-0.725,1.733-1.549,2.458-2.458l-1.993-4.193c0.347-0.647,0.633-1.334,0.851-2.049L31.229,17.736zM16,20.871c-2.69,0-4.872-2.182-4.872-4.871c0-2.69,2.182-4.872,4.872-4.872c2.689,0,4.871,2.182,4.871,4.872C20.871,18.689,18.689,20.871,16,20.871z"></path><title>Link options.</title></g></g></g></g><!--z-index:127--><g   id="j_1215" ><path  stroke="#cccccc" d="M 3136 1619 L 4186 2039" id="v-16214" stroke-width="2" stroke-dasharray="8 8" fill="none" style="opacity: 1;"></path><path  fill="black" stroke="black" d="M 0 0 0 0" transform="matrix(0.9284766955435519,0.371390664708372,-0.371390664708372,0.9284766955435519,3136,1619)"></path><path  fill="#cccccc" stroke="#cccccc" d="M 20 0 L 0 10 L 20 20 z" id="v-16216" transform="matrix(-0.928476707906966,-0.3713906337998342,0.3713906337998342,-0.928476707906966,4182.286192772322,2048.284806229568)" style="opacity: 1;"></path><path  d="M 3136 1619 L 4186 2039" id="v-16215" fill="none" style="cursor: auto; pointer-events: visiblepainted;"></path><g ><g id="v-16208"  label-idx="0" cursor="move" transform="matrix(1,0,0,1,3661,1829)" style="cursor: default; opacity: 1;"><rect joint-selector="rect" id="v-16211" fill="#111111" rx="3" ry="3" pointer-events="none" width="78.32412719726562" height="35.20170211791992" transform="matrix(1,0,0,1,-37.6,-17.6)"></rect><text joint-selector="text" id="v-16210" font-size="24px" xml:space="preserve" y="0.8em" fill="#cccccc" text-anchor="middle" pointer-events="none" font-family="Open Sans, Tahoma, Arial" font-weight="normal" transform="matrix(1,0,0,1,0,-9.4)"><tspan dy="0" >Persist</tspan></text></g><g id="v-16209"  label-idx="1" cursor="move" transform="matrix(1,0,0,1,3651,1841)" style="cursor: default; opacity: 1;"><rect joint-selector="rect" id="v-16213" fill="#ffffff" rx="3" ry="3"  width="0" height="0" transform="matrix(1,0,0,1,0,0)" display="none"></rect><text joint-selector="text" id="v-16212" fill="#000000" font-size="14" text-anchor="middle" pointer-events="none"></text></g></g><g  display="none" style="display: none;"></g><g  id="v-16218" display="none"><g  id="v-16206"><path  end="source" d="M 26 0 L 0 13 L 26 26 z"></path></g><g  id="v-16207"><path  end="target" d="M 26 0 L 0 13 L 26 26 z"></path></g></g><g  id="v-16217" display="none"><g  id="v-16205" transform="translate(3173.1390676354104, 1633.855627054164) "><g  event="remove"><circle r="11"></circle><path transform="scale(.8) translate(-16, -16)" d="M24.778,21.419 19.276,15.917 24.777,10.415 21.949,7.585 16.447,13.087 10.945,7.585 8.117,10.415 13.618,15.917 8.116,21.419 10.946,24.248 16.447,18.746 21.948,24.248z"></path><title>Remove link.</title></g><g  event="link:options"><circle r="11" transform="translate(25)"></circle><path fill="white" transform="scale(.55) translate(29, -16)" d="M31.229,17.736c0.064-0.571,0.104-1.148,0.104-1.736s-0.04-1.166-0.104-1.737l-4.377-1.557c-0.218-0.716-0.504-1.401-0.851-2.05l1.993-4.192c-0.725-0.91-1.549-1.734-2.458-2.459l-4.193,1.994c-0.647-0.347-1.334-0.632-2.049-0.849l-1.558-4.378C17.165,0.708,16.588,0.667,16,0.667s-1.166,0.041-1.737,0.105L12.707,5.15c-0.716,0.217-1.401,0.502-2.05,0.849L6.464,4.005C5.554,4.73,4.73,5.554,4.005,6.464l1.994,4.192c-0.347,0.648-0.632,1.334-0.849,2.05l-4.378,1.557C0.708,14.834,0.667,15.412,0.667,16s0.041,1.165,0.105,1.736l4.378,1.558c0.217,0.715,0.502,1.401,0.849,2.049l-1.994,4.193c0.725,0.909,1.549,1.733,2.459,2.458l4.192-1.993c0.648,0.347,1.334,0.633,2.05,0.851l1.557,4.377c0.571,0.064,1.148,0.104,1.737,0.104c0.588,0,1.165-0.04,1.736-0.104l1.558-4.377c0.715-0.218,1.399-0.504,2.049-0.851l4.193,1.993c0.909-0.725,1.733-1.549,2.458-2.458l-1.993-4.193c0.347-0.647,0.633-1.334,0.851-2.049L31.229,17.736zM16,20.871c-2.69,0-4.872-2.182-4.872-4.871c0-2.69,2.182-4.872,4.872-4.872c2.689,0,4.871,2.182,4.871,4.872C20.871,18.689,18.689,20.871,16,20.871z"></path><title>Link options.</title></g></g></g></g><!--z-index:128--><g   id="j_1216" ><path  stroke="#cccccc" d="M 2724 1679 L 2349 1979" id="v-16231" stroke-width="2" stroke-dasharray="8 8" fill="none" style="opacity: 1;"></path><path  fill="black" stroke="black" d="M 0 0 0 0" transform="matrix(-0.7808688416748546,0.6246950072646418,-0.6246950072646418,-0.7808688416748546,2723.5,1679)"></path><path  fill="#cccccc" stroke="#cccccc" d="M 20 0 L 0 10 L 20 20 z" id="v-16233" transform="matrix(0.7808686753084834,-0.624695215222571,0.624695215222571,0.7808686753084834,2342.2529548446896,1971.1913171569533)" style="opacity: 1;"></path><path  d="M 2724 1679 L 2349 1979" id="v-16232" fill="none" style="cursor: auto; pointer-events: visiblepainted;"></path><g ><g id="v-16225"  label-idx="0" cursor="move" transform="matrix(1,0,0,1,2536.5,1829)" style="cursor: default; opacity: 1;"><rect joint-selector="rect" id="v-16228" fill="#111111" rx="3" ry="3" pointer-events="none" width="196.38128662109375" height="64.0017032623291" transform="matrix(1,0,0,1,-99,-32)"></rect><text joint-selector="text" id="v-16227" font-size="24px" xml:space="preserve" y="0.8em" fill="#cccccc" text-anchor="middle" pointer-events="none" font-family="Open Sans, Tahoma, Arial" font-weight="normal" transform="matrix(1,0,0,1,0,-23.8)"><tspan dy="0" >1. Получить</tspan><tspan dy="1.2em" x="0" >данные клиента</tspan></text></g><g id="v-16226"  label-idx="1" cursor="move" transform="matrix(1,0,0,1,2526.5,1855.4000244140625)" style="cursor: default; opacity: 1;"><rect joint-selector="rect" id="v-16230" fill="#ffffff" rx="3" ry="3"  width="0" height="0" transform="matrix(1,0,0,1,0,0)" display="none"></rect><text joint-selector="text" id="v-16229" fill="#000000" font-size="14" text-anchor="middle" pointer-events="none"></text></g></g><g  display="none" style="display: none;"></g><g  id="v-16235" display="none"><g  id="v-16223"><path  end="source" d="M 26 0 L 0 13 L 26 26 z"></path></g><g  id="v-16224"><path  end="target" d="M 26 0 L 0 13 L 26 26 z"></path></g></g><g  id="v-16234" display="none"><g  id="v-16222" transform="translate(2692.765247622279, 1703.9878019021771) "><g  event="remove"><circle r="11"></circle><path transform="scale(.8) translate(-16, -16)" d="M24.778,21.419 19.276,15.917 24.777,10.415 21.949,7.585 16.447,13.087 10.945,7.585 8.117,10.415 13.618,15.917 8.116,21.419 10.946,24.248 16.447,18.746 21.948,24.248z"></path><title>Remove link.</title></g><g  event="link:options"><circle r="11" transform="translate(25)"></circle><path fill="white" transform="scale(.55) translate(29, -16)" d="M31.229,17.736c0.064-0.571,0.104-1.148,0.104-1.736s-0.04-1.166-0.104-1.737l-4.377-1.557c-0.218-0.716-0.504-1.401-0.851-2.05l1.993-4.192c-0.725-0.91-1.549-1.734-2.458-2.459l-4.193,1.994c-0.647-0.347-1.334-0.632-2.049-0.849l-1.558-4.378C17.165,0.708,16.588,0.667,16,0.667s-1.166,0.041-1.737,0.105L12.707,5.15c-0.716,0.217-1.401,0.502-2.05,0.849L6.464,4.005C5.554,4.73,4.73,5.554,4.005,6.464l1.994,4.192c-0.347,0.648-0.632,1.334-0.849,2.05l-4.378,1.557C0.708,14.834,0.667,15.412,0.667,16s0.041,1.165,0.105,1.736l4.378,1.558c0.217,0.715,0.502,1.401,0.849,2.049l-1.994,4.193c0.725,0.909,1.549,1.733,2.459,2.458l4.192-1.993c0.648,0.347,1.334,0.633,2.05,0.851l1.557,4.377c0.571,0.064,1.148,0.104,1.737,0.104c0.588,0,1.165-0.04,1.736-0.104l1.558-4.377c0.715-0.218,1.399-0.504,2.049-0.851l4.193,1.993c0.909-0.725,1.733-1.549,2.458-2.458l-1.993-4.193c0.347-0.647,0.633-1.334,0.851-2.049L31.229,17.736zM16,20.871c-2.69,0-4.872-2.182-4.872-4.871c0-2.69,2.182-4.872,4.872-4.872c2.689,0,4.871,2.182,4.871,4.872C20.871,18.689,18.689,20.871,16,20.871z"></path><title>Link options.</title></g></g></g></g><!--z-index:129--><g   id="j_1217" ><path  stroke="#cccccc" d="M 2911 1679 L 2911 1979" id="v-16248" stroke-width="2" stroke-dasharray="8 8" fill="none" style="opacity: 1;"></path><path  fill="black" stroke="black" d="M 0 0 0 0" transform="matrix(6.123233995736766e-17,1,-1,6.123233995736766e-17,2911,1679)"></path><path  fill="#cccccc" stroke="#cccccc" d="M 20 0 L 0 10 L 20 20 z" id="v-16250" transform="matrix(-1.8369701987210297e-16,-1,1,-1.8369701987210297e-16,2901,1979)" style="opacity: 1;"></path><path  d="M 2911 1679 L 2911 1979" id="v-16249" fill="none" style="cursor: auto; pointer-events: visiblepainted;"></path><g ><g id="v-16242"  label-idx="0" cursor="move" transform="matrix(1,0,0,1,2911,1829)" style="cursor: default; opacity: 1;"><rect joint-selector="rect" id="v-16245" fill="#111111" rx="3" ry="3" pointer-events="none" width="172.8499298095703" height="64.0017032623291" transform="matrix(1,0,0,1,-87.8,-32)"></rect><text joint-selector="text" id="v-16244" font-size="24px" xml:space="preserve" y="0.8em" fill="#cccccc" text-anchor="middle" pointer-events="none" font-family="Open Sans, Tahoma, Arial" font-weight="normal" transform="matrix(1,0,0,1,0,-23.8)"><tspan dy="0" >2. Обогатить</tspan><tspan dy="1.2em" x="0" >данными авто</tspan></text></g><g id="v-16243"  label-idx="1" cursor="move" transform="matrix(1,0,0,1,2901,1855.4000244140625)" style="cursor: default; opacity: 1;"><rect joint-selector="rect" id="v-16247" fill="#ffffff" rx="3" ry="3"  width="0" height="0" transform="matrix(1,0,0,1,0,0)" display="none"></rect><text joint-selector="text" id="v-16246" fill="#000000" font-size="14" text-anchor="middle" pointer-events="none"></text></g></g><g  display="none" style="display: none;"></g><g  id="v-16252" display="none"><g  id="v-16240"><path  end="source" d="M 26 0 L 0 13 L 26 26 z"></path></g><g  id="v-16241"><path  end="target" d="M 26 0 L 0 13 L 26 26 z"></path></g></g><g  id="v-16251" display="none"><g  id="v-16239" transform="translate(2911, 1719) "><g  event="remove"><circle r="11"></circle><path transform="scale(.8) translate(-16, -16)" d="M24.778,21.419 19.276,15.917 24.777,10.415 21.949,7.585 16.447,13.087 10.945,7.585 8.117,10.415 13.618,15.917 8.116,21.419 10.946,24.248 16.447,18.746 21.948,24.248z"></path><title>Remove link.</title></g><g  event="link:options"><circle r="11" transform="translate(25)"></circle><path fill="white" transform="scale(.55) translate(29, -16)" d="M31.229,17.736c0.064-0.571,0.104-1.148,0.104-1.736s-0.04-1.166-0.104-1.737l-4.377-1.557c-0.218-0.716-0.504-1.401-0.851-2.05l1.993-4.192c-0.725-0.91-1.549-1.734-2.458-2.459l-4.193,1.994c-0.647-0.347-1.334-0.632-2.049-0.849l-1.558-4.378C17.165,0.708,16.588,0.667,16,0.667s-1.166,0.041-1.737,0.105L12.707,5.15c-0.716,0.217-1.401,0.502-2.05,0.849L6.464,4.005C5.554,4.73,4.73,5.554,4.005,6.464l1.994,4.192c-0.347,0.648-0.632,1.334-0.849,2.05l-4.378,1.557C0.708,14.834,0.667,15.412,0.667,16s0.041,1.165,0.105,1.736l4.378,1.558c0.217,0.715,0.502,1.401,0.849,2.049l-1.994,4.193c0.725,0.909,1.549,1.733,2.459,2.458l4.192-1.993c0.648,0.347,1.334,0.633,2.05,0.851l1.557,4.377c0.571,0.064,1.148,0.104,1.737,0.104c0.588,0,1.165-0.04,1.736-0.104l1.558-4.377c0.715-0.218,1.399-0.504,2.049-0.851l4.193,1.993c0.909-0.725,1.733-1.549,2.458-2.458l-1.993-4.193c0.347-0.647,0.633-1.334,0.851-2.049L31.229,17.736zM16,20.871c-2.69,0-4.872-2.182-4.872-4.871c0-2.69,2.182-4.872,4.872-4.872c2.689,0,4.871,2.182,4.871,4.872C20.871,18.689,18.689,20.871,16,20.871z"></path><title>Link options.</title></g></g></g></g><!--z-index:130--><g   id="j_1218" ><path  stroke="#cccccc" d="M 3136 1583 L 4776 1977 C 4782.666666666666 1978.3333333333333 4789 1980.3333333333333 4795 1983 L 4936 2039" id="v-16266" stroke-width="2" stroke-dasharray="8 8" fill="none" style="opacity: 1;"></path><path  fill="black" stroke="black" d="M 0 0 0 0" transform="matrix(0.9723873020607068,0.23337295214120202,-0.23337295214120202,0.9723873020607068,3136,1583)"></path><path  fill="#cccccc" stroke="#cccccc" d="M 20 0 L 0 10 L 20 20 z" id="v-16268" transform="matrix(-0.928476707906966,-0.3713906337998342,0.3713906337998342,-0.928476707906966,4932.286192772322,2048.284806229568)" style="opacity: 1;"></path><path  d="M 3136 1583 L 4776 1977 C 4782.666666666666 1978.3333333333333 4789 1980.3333333333333 4795 1983 L 4936 2039" id="v-16267" fill="none" style="cursor: auto; pointer-events: visiblepainted;"></path><g ><g id="v-16260"  label-idx="0" cursor="move" transform="matrix(1,0,0,1,4039.46337890625,1800.0516357421875)" style="cursor: default; opacity: 1;"><rect joint-selector="rect" id="v-16263" fill="#111111" rx="3" ry="3" pointer-events="none" width="158.28501892089844" height="64.0017032623291" transform="matrix(1,0,0,1,-78.4,-32)"></rect><text joint-selector="text" id="v-16262" font-size="24px" xml:space="preserve" y="0.8em" fill="#cccccc" text-anchor="middle" pointer-events="none" font-family="Open Sans, Tahoma, Arial" font-weight="normal" transform="matrix(1,0,0,1,0,-23.8)"><tspan dy="0" >3. Рассчитать</tspan><tspan dy="1.2em" x="0" >стоимость</tspan></text></g><g id="v-16261"  label-idx="1" cursor="move" transform="matrix(1,0,0,1,4029.46337890625,1826.4515380859375)" style="cursor: default; opacity: 1;"><rect joint-selector="rect" id="v-16265" fill="#ffffff" rx="3" ry="3"  width="0" height="0" transform="matrix(1,0,0,1,0,0)" display="none"></rect><text joint-selector="text" id="v-16264" fill="#000000" font-size="14" text-anchor="middle" pointer-events="none"></text></g></g><g  display="none" style="display: none;"><g  transform="translate(4786, 1979)" id="v-16257"><circle  idx="0" r="10"></circle><path  idx="0" d="M16,5.333c-7.732,0-14,4.701-14,10.5c0,1.982,0.741,3.833,2.016,5.414L2,25.667l5.613-1.441c2.339,1.317,5.237,2.107,8.387,2.107c7.732,0,14-4.701,14-10.5C30,10.034,23.732,5.333,16,5.333z" transform="translate(5, -33)"></path><path  idx="0" transform="scale(.8) translate(9.5, -37)" d="M24.778,21.419 19.276,15.917 24.777,10.415 21.949,7.585 16.447,13.087 10.945,7.585 8.117,10.415 13.618,15.917 8.116,21.419 10.946,24.248 16.447,18.746 21.948,24.248z"><title>Remove vertex.</title></path></g></g><g  id="v-16270" display="none"><g  id="v-16258"><path  end="source" d="M 26 0 L 0 13 L 26 26 z"></path></g><g  id="v-16259"><path  end="target" d="M 26 0 L 0 13 L 26 26 z"></path></g></g><g  id="v-16269" display="none"><g  id="v-16256" transform="translate(3174.893338356636, 1592.3438873856796) "><g  event="remove"><circle r="11"></circle><path transform="scale(.8) translate(-16, -16)" d="M24.778,21.419 19.276,15.917 24.777,10.415 21.949,7.585 16.447,13.087 10.945,7.585 8.117,10.415 13.618,15.917 8.116,21.419 10.946,24.248 16.447,18.746 21.948,24.248z"></path><title>Remove link.</title></g><g  event="link:options"><circle r="11" transform="translate(25)"></circle><path fill="white" transform="scale(.55) translate(29, -16)" d="M31.229,17.736c0.064-0.571,0.104-1.148,0.104-1.736s-0.04-1.166-0.104-1.737l-4.377-1.557c-0.218-0.716-0.504-1.401-0.851-2.05l1.993-4.192c-0.725-0.91-1.549-1.734-2.458-2.459l-4.193,1.994c-0.647-0.347-1.334-0.632-2.049-0.849l-1.558-4.378C17.165,0.708,16.588,0.667,16,0.667s-1.166,0.041-1.737,0.105L12.707,5.15c-0.716,0.217-1.401,0.502-2.05,0.849L6.464,4.005C5.554,4.73,4.73,5.554,4.005,6.464l1.994,4.192c-0.347,0.648-0.632,1.334-0.849,2.05l-4.378,1.557C0.708,14.834,0.667,15.412,0.667,16s0.041,1.165,0.105,1.736l4.378,1.558c0.217,0.715,0.502,1.401,0.849,2.049l-1.994,4.193c0.725,0.909,1.549,1.733,2.459,2.458l4.192-1.993c0.648,0.347,1.334,0.633,2.05,0.851l1.557,4.377c0.571,0.064,1.148,0.104,1.737,0.104c0.588,0,1.165-0.04,1.736-0.104l1.558-4.377c0.715-0.218,1.399-0.504,2.049-0.851l4.193,1.993c0.909-0.725,1.733-1.549,2.458-2.458l-1.993-4.193c0.347-0.647,0.633-1.334,0.851-2.049L31.229,17.736zM16,20.871c-2.69,0-4.872-2.182-4.872-4.871c0-2.69,2.182-4.872,4.872-4.872c2.689,0,4.871,2.182,4.871,4.872C20.871,18.689,18.689,20.871,16,20.871z"></path><title>Link options.</title></g></g></g></g><!--z-index:131--><g   id="j_1219" ><path  stroke="#cccccc" d="M 2686 1669 L 2678 1674 C 2672.6666666666665 1677.3333333333333 2667 1680 2661 1682 L 1795 1976 C 1788.9999999999998 1978 1782.9999999999998 1980.3333333333333 1777 1983 L 1636 2039" id="v-16285" stroke-width="2" stroke-dasharray="8 8" fill="none" style="opacity: 1;"></path><path  fill="black" stroke="black" d="M 0 0 0 0" transform="matrix(-0.8489507742424643,0.5284719320012373,-0.5284719320012373,-0.8489507742424643,2686,1669.0400390625)"></path><path  fill="#cccccc" stroke="#cccccc" d="M 20 0 L 0 10 L 20 20 z" id="v-16287" transform="matrix(0.9284766089996245,-0.3713908810681253,0.3713908810681253,0.9284766089996245,1632.286115138385,2029.715275533185)" style="opacity: 1;"></path><path  d="M 2686 1669 L 2678 1674 C 2672.6666666666665 1677.3333333333333 2667 1680 2661 1682 L 1795 1976 C 1788.9999999999998 1978 1782.9999999999998 1980.3333333333333 1777 1983 L 1636 2039" id="v-16286" fill="none" style="cursor: auto; pointer-events: visiblepainted;"></path><g ><g id="v-16279"  label-idx="0" cursor="move" transform="matrix(1,0,0,1,2160.404052734375,1851.9482421875)" style="cursor: default; opacity: 1;"><rect joint-selector="rect" id="v-16282" fill="#111111" rx="3" ry="3" pointer-events="none" width="199.7294921875" height="64.0017032623291" transform="matrix(1,0,0,1,-101.1,-32)"></rect><text joint-selector="text" id="v-16281" font-size="24px" xml:space="preserve" y="0.8em" fill="#cccccc" text-anchor="middle" pointer-events="none" font-family="Open Sans, Tahoma, Arial" font-weight="normal" transform="matrix(1,0,0,1,0,-23.8)"><tspan dy="0" >4. Опубликовать</tspan><tspan dy="1.2em" x="0" >событие</tspan></text></g><g id="v-16280"  label-idx="1" cursor="move" transform="matrix(1,0,0,1,2150.404052734375,1878.3482666015625)" style="cursor: default; opacity: 1;"><rect joint-selector="rect" id="v-16284" fill="#ffffff" rx="3" ry="3"  width="0" height="0" transform="matrix(1,0,0,1,0,0)" display="none"></rect><text joint-selector="text" id="v-16283" fill="#000000" font-size="14" text-anchor="middle" pointer-events="none"></text></g></g><g  display="none" style="display: none;"><g  transform="translate(2670, 1679)" id="v-16275"><circle  idx="0" r="10"></circle><path  idx="0" d="M16,5.333c-7.732,0-14,4.701-14,10.5c0,1.982,0.741,3.833,2.016,5.414L2,25.667l5.613-1.441c2.339,1.317,5.237,2.107,8.387,2.107c7.732,0,14-4.701,14-10.5C30,10.034,23.732,5.333,16,5.333z" transform="translate(5, -33)"></path><path  idx="0" transform="scale(.8) translate(9.5, -37)" d="M24.778,21.419 19.276,15.917 24.777,10.415 21.949,7.585 16.447,13.087 10.945,7.585 8.117,10.415 13.618,15.917 8.116,21.419 10.946,24.248 16.447,18.746 21.948,24.248z"><title>Remove vertex.</title></path></g><g  transform="translate(1786, 1979)" id="v-16276"><circle  idx="1" r="10"></circle><path  idx="1" d="M16,5.333c-7.732,0-14,4.701-14,10.5c0,1.982,0.741,3.833,2.016,5.414L2,25.667l5.613-1.441c2.339,1.317,5.237,2.107,8.387,2.107c7.732,0,14-4.701,14-10.5C30,10.034,23.732,5.333,16,5.333z" transform="translate(5, -33)"></path><path  idx="1" transform="scale(.8) translate(9.5, -37)" d="M24.778,21.419 19.276,15.917 24.777,10.415 21.949,7.585 16.447,13.087 10.945,7.585 8.117,10.415 13.618,15.917 8.116,21.419 10.946,24.248 16.447,18.746 21.948,24.248z"><title>Remove vertex.</title></path></g></g><g  id="v-16289" display="none"><g  id="v-16277"><path  end="source" d="M 26 0 L 0 13 L 26 26 z"></path></g><g  id="v-16278"><path  end="target" d="M 26 0 L 0 13 L 26 26 z"></path></g></g><g  id="v-16288" display="none"><g  id="v-16274" transform="translate(2649.8867268305407, 1685.7728664108788) "><g  event="remove"><circle r="11"></circle><path transform="scale(.8) translate(-16, -16)" d="M24.778,21.419 19.276,15.917 24.777,10.415 21.949,7.585 16.447,13.087 10.945,7.585 8.117,10.415 13.618,15.917 8.116,21.419 10.946,24.248 16.447,18.746 21.948,24.248z"></path><title>Remove link.</title></g><g  event="link:options"><circle r="11" transform="translate(25)"></circle><path fill="white" transform="scale(.55) translate(29, -16)" d="M31.229,17.736c0.064-0.571,0.104-1.148,0.104-1.736s-0.04-1.166-0.104-1.737l-4.377-1.557c-0.218-0.716-0.504-1.401-0.851-2.05l1.993-4.192c-0.725-0.91-1.549-1.734-2.458-2.459l-4.193,1.994c-0.647-0.347-1.334-0.632-2.049-0.849l-1.558-4.378C17.165,0.708,16.588,0.667,16,0.667s-1.166,0.041-1.737,0.105L12.707,5.15c-0.716,0.217-1.401,0.502-2.05,0.849L6.464,4.005C5.554,4.73,4.73,5.554,4.005,6.464l1.994,4.192c-0.347,0.648-0.632,1.334-0.849,2.05l-4.378,1.557C0.708,14.834,0.667,15.412,0.667,16s0.041,1.165,0.105,1.736l4.378,1.558c0.217,0.715,0.502,1.401,0.849,2.049l-1.994,4.193c0.725,0.909,1.549,1.733,2.459,2.458l4.192-1.993c0.648,0.347,1.334,0.633,2.05,0.851l1.557,4.377c0.571,0.064,1.148,0.104,1.737,0.104c0.588,0,1.165-0.04,1.736-0.104l1.558-4.377c0.715-0.218,1.399-0.504,2.049-0.851l4.193,1.993c0.909-0.725,1.733-1.549,2.458-2.458l-1.993-4.193c0.347-0.647,0.633-1.334,0.851-2.049L31.229,17.736zM16,20.871c-2.69,0-4.872-2.182-4.872-4.871c0-2.69,2.182-4.872,4.872-4.872c2.689,0,4.871,2.182,4.871,4.872C20.871,18.689,18.689,20.871,16,20.871z"></path><title>Link options.</title></g></g></g></g><!--z-index:132--><g   id="j_1220" ><path  stroke="#cccccc" d="M 1366 462 L 1016 670 C 1009.9999999999999 673.3333333333333 1005.9999999999999 678.3333333333333 1004 685 L 798 1379" id="v-16303" stroke-width="2" stroke-dasharray="8 8" fill="none" style="opacity: 1;"></path><path  fill="black" stroke="black" d="M 0 0 0 0" transform="matrix(-0.8603343215003335,0.5097301788677621,-0.5097301788677621,-0.8603343215003335,1366,462.29998779296875)"></path><path  fill="#cccccc" stroke="#cccccc" d="M 20 0 L 0 10 L 20 20 z" id="v-16305" transform="matrix(0.28508610161962217,-0.9585019116638873,0.9585019116638873,0.28508610161962217,788.0249963320086,1376.1491971629428)" style="opacity: 1;"></path><path  d="M 1366 462 L 1016 670 C 1009.9999999999999 673.3333333333333 1005.9999999999999 678.3333333333333 1004 685 L 798 1379" id="v-16304" fill="none" style="cursor: auto; pointer-events: visiblepainted;"></path><g ><g id="v-16297"  label-idx="0" cursor="move" transform="matrix(1,0,0,1,961.734130859375,827.3909301757812)" style="cursor: default; opacity: 1;"><rect joint-selector="rect" id="v-16300" fill="#111111" rx="3" ry="3" pointer-events="none" width="156.34059143066406" height="121.6017074584961" transform="matrix(1,0,0,1,-76.7,-60.8)"></rect><text joint-selector="text" id="v-16299" font-size="24px" xml:space="preserve" y="0.8em" fill="#cccccc" text-anchor="middle" pointer-events="none" font-family="Open Sans, Tahoma, Arial" font-weight="normal" transform="matrix(1,0,0,1,0,-52.6)"><tspan dy="0" >Управление</tspan><tspan dy="1.2em" x="0" >шаблонами /</tspan><tspan dy="1.2em" x="0" >Прямая</tspan><tspan dy="1.2em" x="0" >отправка</tspan></text></g><g id="v-16298"  label-idx="1" cursor="move" transform="matrix(1,0,0,1,951.734130859375,882.5908813476562)" style="cursor: default; opacity: 1;"><rect joint-selector="rect" id="v-16302" fill="#ffffff" rx="3" ry="3"  width="0" height="0" transform="matrix(1,0,0,1,0,0)" display="none"></rect><text joint-selector="text" id="v-16301" fill="#000000" font-size="14" text-anchor="middle" pointer-events="none"></text></g></g><g  display="none" style="display: none;"><g  transform="translate(1007, 675)" id="v-16294"><circle  idx="0" r="10"></circle><path  idx="0" d="M16,5.333c-7.732,0-14,4.701-14,10.5c0,1.982,0.741,3.833,2.016,5.414L2,25.667l5.613-1.441c2.339,1.317,5.237,2.107,8.387,2.107c7.732,0,14-4.701,14-10.5C30,10.034,23.732,5.333,16,5.333z" transform="translate(5, -33)"></path><path  idx="0" transform="scale(.8) translate(9.5, -37)" d="M24.778,21.419 19.276,15.917 24.777,10.415 21.949,7.585 16.447,13.087 10.945,7.585 8.117,10.415 13.618,15.917 8.116,21.419 10.946,24.248 16.447,18.746 21.948,24.248z"><title>Remove vertex.</title></path></g></g><g  id="v-16307" display="none"><g  id="v-16295"><path  end="source" d="M 26 0 L 0 13 L 26 26 z"></path></g><g  id="v-16296"><path  end="target" d="M 26 0 L 0 13 L 26 26 z"></path></g></g><g  id="v-16306" display="none"><g  id="v-16293" transform="translate(1331.6138996174357, 482.4351682273526) "><g  event="remove"><circle r="11"></circle><path transform="scale(.8) translate(-16, -16)" d="M24.778,21.419 19.276,15.917 24.777,10.415 21.949,7.585 16.447,13.087 10.945,7.585 8.117,10.415 13.618,15.917 8.116,21.419 10.946,24.248 16.447,18.746 21.948,24.248z"></path><title>Remove link.</title></g><g  event="link:options"><circle r="11" transform="translate(25)"></circle><path fill="white" transform="scale(.55) translate(29, -16)" d="M31.229,17.736c0.064-0.571,0.104-1.148,0.104-1.736s-0.04-1.166-0.104-1.737l-4.377-1.557c-0.218-0.716-0.504-1.401-0.851-2.05l1.993-4.192c-0.725-0.91-1.549-1.734-2.458-2.459l-4.193,1.994c-0.647-0.347-1.334-0.632-2.049-0.849l-1.558-4.378C17.165,0.708,16.588,0.667,16,0.667s-1.166,0.041-1.737,0.105L12.707,5.15c-0.716,0.217-1.401,0.502-2.05,0.849L6.464,4.005C5.554,4.73,4.73,5.554,4.005,6.464l1.994,4.192c-0.347,0.648-0.632,1.334-0.849,2.05l-4.378,1.557C0.708,14.834,0.667,15.412,0.667,16s0.041,1.165,0.105,1.736l4.378,1.558c0.217,0.715,0.502,1.401,0.849,2.049l-1.994,4.193c0.725,0.909,1.549,1.733,2.459,2.458l4.192-1.993c0.648,0.347,1.334,0.633,2.05,0.851l1.557,4.377c0.571,0.064,1.148,0.104,1.737,0.104c0.588,0,1.165-0.04,1.736-0.104l1.558-4.377c0.715-0.218,1.399-0.504,2.049-0.851l4.193,1.993c0.909-0.725,1.733-1.549,2.458-2.458l-1.993-4.193c0.347-0.647,0.633-1.334,0.851-2.049L31.229,17.736zM16,20.871c-2.69,0-4.872-2.182-4.872-4.871c0-2.69,2.182-4.872,4.872-4.872c2.689,0,4.871,2.182,4.871,4.872C20.871,18.689,18.689,20.871,16,20.871z"></path><title>Link options.</title></g></g></g></g><!--z-index:133--><g   id="j_1221" ><path  stroke="#cccccc" d="M 978 1662 L 998 1674 C 1003.9999999999999 1677.3333333333333 1009.9999999999999 1680.3333333333333 1016 1683 L 1777 1975 C 1782.9999999999998 1977.6666666666665 1788.9999999999998 1980.3333333333333 1795 1983 L 1936 2039" id="v-16322" stroke-width="2" stroke-dasharray="8 8" fill="none" style="opacity: 1;"></path><path  fill="black" stroke="black" d="M 0 0 0 0" transform="matrix(0.861009274778945,0.5085892534694724,-0.5085892534694724,0.861009274778945,978,1661.8699951171875)"></path><path  fill="#cccccc" stroke="#cccccc" d="M 20 0 L 0 10 L 20 20 z" id="v-16324" transform="matrix(-0.928476707906966,-0.3713906337998342,0.3713906337998342,-0.928476707906966,1932.2860707020088,2048.284806229568)" style="opacity: 1;"></path><path  d="M 978 1662 L 998 1674 C 1003.9999999999999 1677.3333333333333 1009.9999999999999 1680.3333333333333 1016 1683 L 1777 1975 C 1782.9999999999998 1977.6666666666665 1788.9999999999998 1980.3333333333333 1795 1983 L 1936 2039" id="v-16323" fill="none" style="cursor: auto; pointer-events: visiblepainted;"></path><g ><g id="v-16316"  label-idx="0" cursor="move" transform="matrix(1,0,0,1,1456.2320556640625,1851.9195556640625)" style="cursor: default; opacity: 1;"><rect joint-selector="rect" id="v-16319" fill="#111111" rx="3" ry="3" pointer-events="none" width="199.63363647460938" height="92.80170822143555" transform="matrix(1,0,0,1,-99.8,-46.4)"></rect><text joint-selector="text" id="v-16318" font-size="24px" xml:space="preserve" y="0.8em" fill="#cccccc" text-anchor="middle" pointer-events="none" font-family="Open Sans, Tahoma, Arial" font-weight="normal" transform="matrix(1,0,0,1,0,-38.2)"><tspan dy="0" >Запрос</tspan><tspan dy="1.2em" x="0" >контактов (через</tspan><tspan dy="1.2em" x="0" >API CRM)</tspan></text></g><g id="v-16317"  label-idx="1" cursor="move" transform="matrix(1,0,0,1,1446.2320556640625,1892.719482421875)" style="cursor: default; opacity: 1;"><rect joint-selector="rect" id="v-16321" fill="#ffffff" rx="3" ry="3"  width="0" height="0" transform="matrix(1,0,0,1,0,0)" display="none"></rect><text joint-selector="text" id="v-16320" fill="#000000" font-size="14" text-anchor="middle" pointer-events="none"></text></g></g><g  display="none" style="display: none;"><g  transform="translate(1007, 1679)" id="v-16312"><circle  idx="0" r="10"></circle><path  idx="0" d="M16,5.333c-7.732,0-14,4.701-14,10.5c0,1.982,0.741,3.833,2.016,5.414L2,25.667l5.613-1.441c2.339,1.317,5.237,2.107,8.387,2.107c7.732,0,14-4.701,14-10.5C30,10.034,23.732,5.333,16,5.333z" transform="translate(5, -33)"></path><path  idx="0" transform="scale(.8) translate(9.5, -37)" d="M24.778,21.419 19.276,15.917 24.777,10.415 21.949,7.585 16.447,13.087 10.945,7.585 8.117,10.415 13.618,15.917 8.116,21.419 10.946,24.248 16.447,18.746 21.948,24.248z"><title>Remove vertex.</title></path></g><g  transform="translate(1786, 1979)" id="v-16313"><circle  idx="1" r="10"></circle><path  idx="1" d="M16,5.333c-7.732,0-14,4.701-14,10.5c0,1.982,0.741,3.833,2.016,5.414L2,25.667l5.613-1.441c2.339,1.317,5.237,2.107,8.387,2.107c7.732,0,14-4.701,14-10.5C30,10.034,23.732,5.333,16,5.333z" transform="translate(5, -33)"></path><path  idx="1" transform="scale(.8) translate(9.5, -37)" d="M24.778,21.419 19.276,15.917 24.777,10.415 21.949,7.585 16.447,13.087 10.945,7.585 8.117,10.415 13.618,15.917 8.116,21.419 10.946,24.248 16.447,18.746 21.948,24.248z"><title>Remove vertex.</title></path></g></g><g  id="v-16326" display="none"><g  id="v-16314"><path  end="source" d="M 26 0 L 0 13 L 26 26 z"></path></g><g  id="v-16315"><path  end="target" d="M 26 0 L 0 13 L 26 26 z"></path></g></g><g  id="v-16325" display="none"><g  id="v-16311" transform="translate(1012.87109375, 1681.579158782959) "><g  event="remove"><circle r="11"></circle><path transform="scale(.8) translate(-16, -16)" d="M24.778,21.419 19.276,15.917 24.777,10.415 21.949,7.585 16.447,13.087 10.945,7.585 8.117,10.415 13.618,15.917 8.116,21.419 10.946,24.248 16.447,18.746 21.948,24.248z"></path><title>Remove link.</title></g><g  event="link:options"><circle r="11" transform="translate(25)"></circle><path fill="white" transform="scale(.55) translate(29, -16)" d="M31.229,17.736c0.064-0.571,0.104-1.148,0.104-1.736s-0.04-1.166-0.104-1.737l-4.377-1.557c-0.218-0.716-0.504-1.401-0.851-2.05l1.993-4.192c-0.725-0.91-1.549-1.734-2.458-2.459l-4.193,1.994c-0.647-0.347-1.334-0.632-2.049-0.849l-1.558-4.378C17.165,0.708,16.588,0.667,16,0.667s-1.166,0.041-1.737,0.105L12.707,5.15c-0.716,0.217-1.401,0.502-2.05,0.849L6.464,4.005C5.554,4.73,4.73,5.554,4.005,6.464l1.994,4.192c-0.347,0.648-0.632,1.334-0.849,2.05l-4.378,1.557C0.708,14.834,0.667,15.412,0.667,16s0.041,1.165,0.105,1.736l4.378,1.558c0.217,0.715,0.502,1.401,0.849,2.049l-1.994,4.193c0.725,0.909,1.549,1.733,2.459,2.458l4.192-1.993c0.648,0.347,1.334,0.633,2.05,0.851l1.557,4.377c0.571,0.064,1.148,0.104,1.737,0.104c0.588,0,1.165-0.04,1.736-0.104l1.558-4.377c0.715-0.218,1.399-0.504,2.049-0.851l4.193,1.993c0.909-0.725,1.733-1.549,2.458-2.458l-1.993-4.193c0.347-0.647,0.633-1.334,0.851-2.049L31.229,17.736zM16,20.871c-2.69,0-4.872-2.182-4.872-4.871c0-2.69,2.182-4.872,4.872-4.872c2.689,0,4.871,2.182,4.871,4.872C20.871,18.689,18.689,20.871,16,20.871z"></path><title>Link options.</title></g></g></g></g><!--z-index:134--><g   id="j_1222" ><path  stroke="#cccccc" d="M 2161 2279 L 2161 2579" id="v-16336" stroke-width="2" stroke-dasharray="8 8" fill="none" style="opacity: 1;"></path><path  fill="black" stroke="black" d="M 0 0 0 0" transform="matrix(6.123233995736766e-17,1,-1,6.123233995736766e-17,2161,2279)"></path><path  fill="#cccccc" stroke="#cccccc" d="M 20 0 L 0 10 L 20 20 z" id="v-16338" transform="matrix(-1.8369701987210297e-16,-1,1,-1.8369701987210297e-16,2151,2579)" style="opacity: 1;"></path><path  d="M 2161 2279 L 2161 2579" id="v-16337" fill="none" style="cursor: auto; pointer-events: visiblepainted;"></path><g ><g id="v-16330"  label-idx="0" cursor="move" transform="matrix(1,0,0,1,2161,2429)" style="cursor: default; opacity: 1;"><rect joint-selector="rect" id="v-16333" fill="#111111" rx="3" ry="3" pointer-events="none" width="56.91289520263672" height="35.20170211791992" transform="matrix(1,0,0,1,-27.3,-17.6)"></rect><text joint-selector="text" id="v-16332" font-size="24px" xml:space="preserve" y="0.8em" fill="#cccccc" text-anchor="middle" pointer-events="none" font-family="Open Sans, Tahoma, Arial" font-weight="normal" transform="matrix(1,0,0,1,0,-9.4)"><tspan dy="0" >REST</tspan></text></g><g id="v-16331"  label-idx="1" cursor="move" transform="matrix(1,0,0,1,2151,2441)" style="cursor: default; opacity: 1;"><rect joint-selector="rect" id="v-16335" fill="#ffffff" rx="3" ry="3"  width="0" height="0" transform="matrix(1,0,0,1,0,0)" display="none"></rect><text joint-selector="text" id="v-16334" fill="#000000" font-size="14" text-anchor="middle" pointer-events="none"></text></g></g><g  display="none" style="display: none;"></g><g  id="v-16340" display="none"><g  id="v-16328"><path  end="source" d="M 26 0 L 0 13 L 26 26 z"></path></g><g  id="v-16329"><path  end="target" d="M 26 0 L 0 13 L 26 26 z"></path></g></g><g  id="v-16339" display="none"><g  id="v-16327" transform="translate(2161, 2319) "><g  event="remove"><circle r="11"></circle><path transform="scale(.8) translate(-16, -16)" d="M24.778,21.419 19.276,15.917 24.777,10.415 21.949,7.585 16.447,13.087 10.945,7.585 8.117,10.415 13.618,15.917 8.116,21.419 10.946,24.248 16.447,18.746 21.948,24.248z"></path><title>Remove link.</title></g><g  event="link:options"><circle r="11" transform="translate(25)"></circle><path fill="white" transform="scale(.55) translate(29, -16)" d="M31.229,17.736c0.064-0.571,0.104-1.148,0.104-1.736s-0.04-1.166-0.104-1.737l-4.377-1.557c-0.218-0.716-0.504-1.401-0.851-2.05l1.993-4.192c-0.725-0.91-1.549-1.734-2.458-2.459l-4.193,1.994c-0.647-0.347-1.334-0.632-2.049-0.849l-1.558-4.378C17.165,0.708,16.588,0.667,16,0.667s-1.166,0.041-1.737,0.105L12.707,5.15c-0.716,0.217-1.401,0.502-2.05,0.849L6.464,4.005C5.554,4.73,4.73,5.554,4.005,6.464l1.994,4.192c-0.347,0.648-0.632,1.334-0.849,2.05l-4.378,1.557C0.708,14.834,0.667,15.412,0.667,16s0.041,1.165,0.105,1.736l4.378,1.558c0.217,0.715,0.502,1.401,0.849,2.049l-1.994,4.193c0.725,0.909,1.549,1.733,2.459,2.458l4.192-1.993c0.648,0.347,1.334,0.633,2.05,0.851l1.557,4.377c0.571,0.064,1.148,0.104,1.737,0.104c0.588,0,1.165-0.04,1.736-0.104l1.558-4.377c0.715-0.218,1.399-0.504,2.049-0.851l4.193,1.993c0.909-0.725,1.733-1.549,2.458-2.458l-1.993-4.193c0.347-0.647,0.633-1.334,0.851-2.049L31.229,17.736zM16,20.871c-2.69,0-4.872-2.182-4.872-4.871c0-2.69,2.182-4.872,4.872-4.872c2.689,0,4.871,2.182,4.871,4.872C20.871,18.689,18.689,20.871,16,20.871z"></path><title>Link options.</title></g></g></g></g><!--z-index:135--><g   id="j_1223" ><path  stroke="#cccccc" d="M 2911 2279 L 2911 2579" id="v-16350" stroke-width="2" stroke-dasharray="8 8" fill="none" style="opacity: 1;"></path><path  fill="black" stroke="black" d="M 0 0 0 0" transform="matrix(6.123233995736766e-17,1,-1,6.123233995736766e-17,2911,2279)"></path><path  fill="#cccccc" stroke="#cccccc" d="M 20 0 L 0 10 L 20 20 z" id="v-16352" transform="matrix(-1.8369701987210297e-16,-1,1,-1.8369701987210297e-16,2901,2579)" style="opacity: 1;"></path><path  d="M 2911 2279 L 2911 2579" id="v-16351" fill="none" style="cursor: auto; pointer-events: visiblepainted;"></path><g ><g id="v-16344"  label-idx="0" cursor="move" transform="matrix(1,0,0,1,2911,2429)" style="cursor: default; opacity: 1;"><rect joint-selector="rect" id="v-16347" fill="#111111" rx="3" ry="3" pointer-events="none" width="56.91289520263672" height="35.20170211791992" transform="matrix(1,0,0,1,-27.3,-17.6)"></rect><text joint-selector="text" id="v-16346" font-size="24px" xml:space="preserve" y="0.8em" fill="#cccccc" text-anchor="middle" pointer-events="none" font-family="Open Sans, Tahoma, Arial" font-weight="normal" transform="matrix(1,0,0,1,0,-9.4)"><tspan dy="0" >REST</tspan></text></g><g id="v-16345"  label-idx="1" cursor="move" transform="matrix(1,0,0,1,2901,2441)" style="cursor: default; opacity: 1;"><rect joint-selector="rect" id="v-16349" fill="#ffffff" rx="3" ry="3"  width="0" height="0" transform="matrix(1,0,0,1,0,0)" display="none"></rect><text joint-selector="text" id="v-16348" fill="#000000" font-size="14" text-anchor="middle" pointer-events="none"></text></g></g><g  display="none" style="display: none;"></g><g  id="v-16354" display="none"><g  id="v-16342"><path  end="source" d="M 26 0 L 0 13 L 26 26 z"></path></g><g  id="v-16343"><path  end="target" d="M 26 0 L 0 13 L 26 26 z"></path></g></g><g  id="v-16353" display="none"><g  id="v-16341" transform="translate(2911, 2319) "><g  event="remove"><circle r="11"></circle><path transform="scale(.8) translate(-16, -16)" d="M24.778,21.419 19.276,15.917 24.777,10.415 21.949,7.585 16.447,13.087 10.945,7.585 8.117,10.415 13.618,15.917 8.116,21.419 10.946,24.248 16.447,18.746 21.948,24.248z"></path><title>Remove link.</title></g><g  event="link:options"><circle r="11" transform="translate(25)"></circle><path fill="white" transform="scale(.55) translate(29, -16)" d="M31.229,17.736c0.064-0.571,0.104-1.148,0.104-1.736s-0.04-1.166-0.104-1.737l-4.377-1.557c-0.218-0.716-0.504-1.401-0.851-2.05l1.993-4.192c-0.725-0.91-1.549-1.734-2.458-2.459l-4.193,1.994c-0.647-0.347-1.334-0.632-2.049-0.849l-1.558-4.378C17.165,0.708,16.588,0.667,16,0.667s-1.166,0.041-1.737,0.105L12.707,5.15c-0.716,0.217-1.401,0.502-2.05,0.849L6.464,4.005C5.554,4.73,4.73,5.554,4.005,6.464l1.994,4.192c-0.347,0.648-0.632,1.334-0.849,2.05l-4.378,1.557C0.708,14.834,0.667,15.412,0.667,16s0.041,1.165,0.105,1.736l4.378,1.558c0.217,0.715,0.502,1.401,0.849,2.049l-1.994,4.193c0.725,0.909,1.549,1.733,2.459,2.458l4.192-1.993c0.648,0.347,1.334,0.633,2.05,0.851l1.557,4.377c0.571,0.064,1.148,0.104,1.737,0.104c0.588,0,1.165-0.04,1.736-0.104l1.558-4.377c0.715-0.218,1.399-0.504,2.049-0.851l4.193,1.993c0.909-0.725,1.733-1.549,2.458-2.458l-1.993-4.193c0.347-0.647,0.633-1.334,0.851-2.049L31.229,17.736zM16,20.871c-2.69,0-4.872-2.182-4.872-4.871c0-2.69,2.182-4.872,4.872-4.872c2.689,0,4.871,2.182,4.871,4.872C20.871,18.689,18.689,20.871,16,20.871z"></path><title>Link options.</title></g></g></g></g><!--z-index:136--><!--z-index:137--><!--z-index:138--><!--z-index:139--><!--z-index:140--><!--z-index:141--><!--z-index:142--></g><g ></g><g ></g><g ></g></g></svg>