<svg xmlns="http://www.w3.org/2000/svg" xmlns:xlink="http://www.w3.org/1999/xlink" version="1.1" viewBox="0 0 5626 3219" style="background: #ffffff"><defs joint-selector="defs"></defs><g joint-selector="layers"  transform="matrix(1,0,0,1,0,0)"><g ></g><g ><!--z-index:-1--><!--z-index:0--><!--z-index:1--><!--z-index:2--><!--z-index:3--><!--z-index:4--><!--z-index:5--><!--z-index:6--><!--z-index:7--><!--z-index:8--><!--z-index:9--><!--z-index:10--><!--z-index:11--><!--z-index:12--><!--z-index:13--><!--z-index:14--><!--z-index:15--><!--z-index:16--><!--z-index:17--><!--z-index:18--><!--z-index:19--><!--z-index:20--><!--z-index:21--><!--z-index:22--><!--z-index:23--><!--z-index:24--><!--z-index:25--><!--z-index:26--><!--z-index:27--><!--z-index:28--><!--z-index:29--><!--z-index:30--><!--z-index:31--><!--z-index:32--><!--z-index:33--><!--z-index:34--><!--z-index:35--><!--z-index:36--><!--z-index:37--><!--z-index:38--><!--z-index:39--><!--z-index:40--><!--z-index:41--><!--z-index:42--><!--z-index:43--><!--z-index:44--><!--z-index:45--><!--z-index:46--><!--z-index:47--><!--z-index:48--><!--z-index:49--><!--z-index:50--><!--z-index:51--><!--z-index:52--><!--z-index:53--><!--z-index:54--><!--z-index:55--><!--z-index:56--><!--z-index:57--><!--z-index:58--><!--z-index:59--><!--z-index:60--><!--z-index:61--><!--z-index:62--><!--z-index:63--><!--z-index:64--><!--z-index:65--><!--z-index:66--><!--z-index:67--><!--z-index:68--><!--z-index:69--><!--z-index:70--><!--z-index:71--><!--z-index:72--><!--z-index:73--><!--z-index:74--><!--z-index:75--><!--z-index:76--><!--z-index:77--><!--z-index:78--><!--z-index:79--><!--z-index:80--><!--z-index:81--><!--z-index:82--><!--z-index:83--><!--z-index:84--><!--z-index:85--><!--z-index:86--><!--z-index:87--><!--z-index:88--><!--z-index:89--><!--z-index:90--><!--z-index:91--><!--z-index:92--><!--z-index:93--><!--z-index:94--><!--z-index:95--><!--z-index:96--><!--z-index:97--><!--z-index:98--><!--z-index:99--><!--z-index:100--><!--z-index:101--><g   id="j_329"  transform="translate(20,3175)"><g id="v-4345"><text  id="v-4346" font-size="24px" xml:space="preserve" y="0.8em" font-weight="normal" text-anchor="start" fill="#444444" pointer-events="none" display="block" font-family="Open Sans, Tahoma, Arial"><tspan dy="0" >понедельник, 1 декабря 2025 г. в 02:13 Москва, стандартное время</tspan></text></g></g><!--z-index:102--><g   id="j_328"  transform="translate(20,3129)"><g id="v-4343"><text  id="v-4344" font-size="36px" xml:space="preserve" y="0.8em" font-weight="normal" text-anchor="start" fill="#444444" pointer-events="none" display="block" font-family="Open Sans, Tahoma, Arial"><tspan dy="0" >Component View: Система Расчета Премий (SuperSurance) - Proposals Service</tspan></text></g></g><!--z-index:103--><g   id="j_331"  transform="translate(199,159)" style=""><g id="v-4360"><rect  id="v-4361" width="5226" height="2819" rx="0" ry="0" stroke-width="2" pointer-events="none" stroke="#444444" fill="#ffffff" stroke-dasharray=""></rect><text  id="v-4362" font-size="33.599999999999994px" xml:space="preserve" y="2780" font-weight="bold" text-anchor="start" pointer-events="visible" font-family="Open Sans, Tahoma, Arial" fill="#444444" transform="matrix(1,0,0,1,15,0)"><tspan dy="0" >Система Расчета Премий (SuperSurance)</tspan></text><text  id="v-4363" font-size="16.799999999999997px" xml:space="preserve" y="2804" font-weight="normal" text-anchor="start" pointer-events="visible" font-family="Open Sans, Tahoma, Arial" fill="#444444" transform="matrix(1,0,0,1,15,0)"><tspan dy="0" >[Software System]</tspan></text><image  id="v-4364" pointer-events="visible"></image></g></g><!--z-index:104--><g   id="j_330"  transform="translate(1365,179)" style=""><g  id="v-4353" style="opacity: 1;"><rect  id="v-4354" rx="20" ry="20" stroke-width="2" pointer-events="visiblePainted" fill="#555555" stroke="#4d4d4d" stroke-dasharray="" width="450" height="300"></rect><text  id="v-4355" font-size="33.599999999999994px" xml:space="preserve" y="86.9" font-weight="bold" text-anchor="middle" pointer-events="visible" font-family="Open Sans, Tahoma, Arial" fill="#ffffff" dominant-baseline="hanging" transform="matrix(1,0,0,1,225,0)"><tspan dy="0" >API Gateway</tspan></text><text  id="v-4356" font-size="16.799999999999997px" xml:space="preserve" y="128.5" text-anchor="middle" font-family="Open Sans, Tahoma, Arial" fill="#ffffff" dominant-baseline="hanging" transform="matrix(1,0,0,1,225,0)" style="display: block;"><tspan dy="0" >[Container: Nginx / Spring Cloud Gateway]</tspan></text><text  id="v-4357" font-size="24px" xml:space="preserve" y="160.3" text-anchor="middle" font-family="Open Sans, Tahoma, Arial" fill="#ffffff" dominant-baseline="hanging" transform="matrix(1,0,0,1,225,0)" style="display: block;"><tspan dy="0" >Единая точка входа,</tspan><tspan dy="1.2em" x="0" >маршрутизация, rate limiting.</tspan></text><g  id="v-4358" color="#ffffff" transform="matrix(1,0,0,1,222.5,268)" display="none"><g ></g><g ></g><g ></g><g ></g></g><image  id="v-4359"></image></g></g><!--z-index:105--><g   id="j_332"  transform="translate(4935,2579)" style=""><g  id="v-4374" style="opacity: 1;"><rect  id="v-4375" rx="1" ry="1" stroke-width="2" pointer-events="visiblePainted" fill="#1168bd" stroke="#0f5eaa" stroke-dasharray="" width="450" height="300"></rect><text  id="v-4376" font-size="33.599999999999994px" xml:space="preserve" y="72.5" font-weight="bold" text-anchor="middle" pointer-events="visible" font-family="Open Sans, Tahoma, Arial" fill="#ffffff" dominant-baseline="hanging" transform="matrix(1,0,0,1,225,0)"><tspan dy="0" >Calculation Engine</tspan></text><text  id="v-4377" font-size="16.799999999999997px" xml:space="preserve" y="114.1" text-anchor="middle" font-family="Open Sans, Tahoma, Arial" fill="#ffffff" dominant-baseline="hanging" transform="matrix(1,0,0,1,225,0)" style="display: block;"><tspan dy="0" >[Container: Java / Spring Boot / Drools]</tspan></text><text  id="v-4378" font-size="24px" xml:space="preserve" y="145.89999999999998" text-anchor="middle" font-family="Open Sans, Tahoma, Arial" fill="#ffffff" dominant-baseline="hanging" transform="matrix(1,0,0,1,225,0)" style="display: block;"><tspan dy="0" >Stateless сервис. Применяет</tspan><tspan dy="1.2em" x="0" >тарифные правила к контексту</tspan><tspan dy="1.2em" x="0" >клиента.</tspan></text><g  id="v-4379" color="#ffffff" transform="matrix(1,0,0,1,222.5,268)" display="none"><g ></g><g ></g><g ></g><g ></g></g><image  id="v-4380"></image></g></g><!--z-index:106--><g   id="j_333"  transform="translate(1935,2579)" style=""><g  id="v-4387" style="opacity: 1;"><rect  id="v-4388" rx="1" ry="1" stroke-width="2" pointer-events="visiblePainted" fill="#1168bd" stroke="#0f5eaa" stroke-dasharray="" width="450" height="300"></rect><text  id="v-4389" font-size="33.599999999999994px" xml:space="preserve" y="101.30000000000001" font-weight="bold" text-anchor="middle" pointer-events="visible" font-family="Open Sans, Tahoma, Arial" fill="#ffffff" dominant-baseline="hanging" transform="matrix(1,0,0,1,225,0)"><tspan dy="0" >CRM Service</tspan></text><text  id="v-4390" font-size="16.799999999999997px" xml:space="preserve" y="142.9" text-anchor="middle" font-family="Open Sans, Tahoma, Arial" fill="#ffffff" dominant-baseline="hanging" transform="matrix(1,0,0,1,225,0)" style="display: block;"><tspan dy="0" >[Container: Java / Spring Boot]</tspan></text><text  id="v-4391" font-size="24px" xml:space="preserve" y="174.7" text-anchor="middle" font-family="Open Sans, Tahoma, Arial" fill="#ffffff" dominant-baseline="hanging" transform="matrix(1,0,0,1,225,0)" style="display: block;"><tspan dy="0" >Управление данными клиентов.</tspan></text><g  id="v-4392" color="#ffffff" transform="matrix(1,0,0,1,222.5,268)" display="none"><g ></g><g ></g><g ></g><g ></g></g><image  id="v-4393"></image></g></g><!--z-index:107--><g   id="j_335"  transform="translate(1165,759)" style=""><g id="v-4407"><rect  id="v-4408" width="4240" height="1619" rx="0" ry="0" stroke-width="2" pointer-events="none" stroke="#0f5eaa" fill="#ffffff" stroke-dasharray=""></rect><text  id="v-4409" font-size="33.599999999999994px" xml:space="preserve" y="1580" font-weight="bold" text-anchor="start" pointer-events="visible" font-family="Open Sans, Tahoma, Arial" fill="#0f5eaa" transform="matrix(1,0,0,1,15,0)"><tspan dy="0" >Proposals Service</tspan></text><text  id="v-4410" font-size="16.799999999999997px" xml:space="preserve" y="1604" font-weight="normal" text-anchor="start" pointer-events="visible" font-family="Open Sans, Tahoma, Arial" fill="#0f5eaa" transform="matrix(1,0,0,1,15,0)"><tspan dy="0" >[Container]</tspan></text><image  id="v-4411" pointer-events="visible"></image></g></g><!--z-index:108--><g   id="j_343"  transform="translate(527,1379)" style=""><g  id="v-4494" style="opacity: 1;"><rect  id="v-4495" rx="1" ry="1" stroke-width="2" pointer-events="visiblePainted" fill="#1168bd" stroke="#0f5eaa" stroke-dasharray="" width="450" height="300"></rect><text  id="v-4496" font-size="33.599999999999994px" xml:space="preserve" y="58.10000000000001" font-weight="bold" text-anchor="middle" pointer-events="visible" font-family="Open Sans, Tahoma, Arial" fill="#ffffff" dominant-baseline="hanging" transform="matrix(1,0,0,1,225,0)"><tspan dy="0" >Notification Service</tspan></text><text  id="v-4497" font-size="16.799999999999997px" xml:space="preserve" y="99.7" text-anchor="middle" font-family="Open Sans, Tahoma, Arial" fill="#ffffff" dominant-baseline="hanging" transform="matrix(1,0,0,1,225,0)" style="display: block;"><tspan dy="0" >[Container: Java / Spring Boot]</tspan></text><text  id="v-4498" font-size="24px" xml:space="preserve" y="131.5" text-anchor="middle" font-family="Open Sans, Tahoma, Arial" fill="#ffffff" dominant-baseline="hanging" transform="matrix(1,0,0,1,225,0)" style="display: block;"><tspan dy="0" >Единая точка входа для</tspan><tspan dy="1.2em" x="0" >отправки уведомлений.</tspan><tspan dy="1.2em" x="0" >Поддерживает шаблонизацию и</tspan><tspan dy="1.2em" x="0" >многоканальность.</tspan></text><g  id="v-4499" color="#ffffff" transform="matrix(1,0,0,1,210,268)" display="none"><g  transform="translate(5 0)"><svg xmlns="http://www.w3.org/2000/svg" width="20" height="20" fill="currentColor" viewBox="0 0 16 16"><path fill-rule="evenodd" d="M6.5 12a5.5 5.5 0 1 0 0-11 5.5 5.5 0 0 0 0 11zM13 6.5a6.5 6.5 0 1 1-13 0 6.5 6.5 0 0 1 13 0z"></path><path d="M10.344 11.742c.03.04.062.078.098.115l3.85 3.85a1 1 0 0 0 1.415-1.414l-3.85-3.85a1.007 1.007 0 0 0-.115-.1 6.538 6.538 0 0 1-1.398 1.4z"></path><path fill-rule="evenodd" d="M6.5 3a.5.5 0 0 1 .5.5V6h2.5a.5.5 0 0 1 0 1H7v2.5a.5.5 0 0 1-1 0V7H3.5a.5.5 0 0 1 0-1H6V3.5a.5.5 0 0 1 .5-.5z"></path></svg></g><g ></g><g ></g><g ></g></g><image  id="v-4500"></image></g></g><!--z-index:109--><g   id="j_344"  transform="translate(2685,2579)" style=""><g  id="v-4510" style="opacity: 1;"><rect  id="v-4511" rx="1" ry="1" stroke-width="2" pointer-events="visiblePainted" fill="#1168bd" stroke="#0f5eaa" stroke-dasharray="" width="450" height="300"></rect><text  id="v-4512" font-size="33.599999999999994px" xml:space="preserve" y="66.74000000000001" font-weight="bold" text-anchor="middle" pointer-events="visible" font-family="Open Sans, Tahoma, Arial" fill="#ffffff" dominant-baseline="hanging" transform="matrix(1,0,0,1,225,0)"><tspan dy="0" >Anti-Corruption Layer</tspan><tspan dy="1.2em" x="0" >(ACL)</tspan></text><text  id="v-4513" font-size="16.799999999999997px" xml:space="preserve" y="148.66" text-anchor="middle" font-family="Open Sans, Tahoma, Arial" fill="#ffffff" dominant-baseline="hanging" transform="matrix(1,0,0,1,225,0)" style="display: block;"><tspan dy="0" >[Container: Java / Spring Boot]</tspan></text><text  id="v-4514" font-size="24px" xml:space="preserve" y="180.45999999999998" text-anchor="middle" font-family="Open Sans, Tahoma, Arial" fill="#ffffff" dominant-baseline="hanging" transform="matrix(1,0,0,1,225,0)" style="display: block;"><tspan dy="0" >Адаптер к внешним сервисам</tspan><tspan dy="1.2em" x="0" >данных.</tspan></text><g  id="v-4515" color="#ffffff" transform="matrix(1,0,0,1,222.5,268)" display="none"><g ></g><g ></g><g ></g><g ></g></g><image  id="v-4516"></image></g></g><!--z-index:110--><g   id="j_345"  transform="translate(4185,2579)" style=""><g  id="v-4517" style="opacity: 1;"><path  d="M 0,30 a 225,30 0,0,0 450 0 a 225,30 0,0,0 -450 0 l 0,240 a 225,30 0,0,0 450 0 l 0,-240" id="v-4518" stroke-width="2" pointer-events="visiblePainted" fill="#ffffff" stroke="#444444" stroke-dasharray=""></path><rect  id="v-4519" stroke-width="0" pointer-events="visiblePainted" fill="none" stroke="none" width="450" height="270" x="0" y="30"></rect><text  id="v-4520" font-size="33.599999999999994px" xml:space="preserve" y="116.30000000000001" font-weight="bold" text-anchor="middle" pointer-events="visible" font-family="Open Sans, Tahoma, Arial" fill="#444444" dominant-baseline="hanging" transform="matrix(1,0,0,1,225,0)"><tspan dy="0" >Proposals DB</tspan></text><text  id="v-4521" font-size="16.799999999999997px" xml:space="preserve" y="157.9" text-anchor="middle" font-family="Open Sans, Tahoma, Arial" fill="#444444" dominant-baseline="hanging" transform="matrix(1,0,0,1,225,0)" style="display: block;"><tspan dy="0" >[Container: PostgreSQL]</tspan></text><text  id="v-4522" font-size="24px" xml:space="preserve" y="189.7" text-anchor="middle" font-family="Open Sans, Tahoma, Arial" fill="#444444" dominant-baseline="hanging" transform="matrix(1,0,0,1,225,0)" style="display: block;"><tspan dy="0" >Заявки.</tspan></text><g  id="v-4523" font-weight="normal" text-anchor="middle" color="#444444" transform="matrix(1,0,0,1,222.5,268)" display="none"><g ></g><g ></g><g ></g><g ></g></g><image  id="v-4524"></image></g></g><!--z-index:111--><g   id="j_346"  transform="translate(219,779)" style=""><g  id="v-4528" style="opacity: 1;"><path  d="M 30,0 a 30,150 0,0,1 0 300 a 30,150 0,0,1 0 -300 l 390,0 a 30,150 0,0,1 0 300 l -390,0" id="v-4529" stroke-width="2" pointer-events="visiblePainted" fill="#ffffff" stroke="#444444" stroke-dasharray=""></path><rect  id="v-4530" stroke-width="0" pointer-events="visiblePainted" fill="none" stroke="none" width="420" height="300" x="30" y="0"></rect><text  id="v-4531" font-size="33.599999999999994px" xml:space="preserve" y="101.30000000000001" font-weight="bold" text-anchor="middle" pointer-events="visible" font-family="Open Sans, Tahoma, Arial" fill="#444444" dominant-baseline="hanging" transform="matrix(1,0,0,1,240,0)"><tspan dy="0" >Message Broker</tspan></text><text  id="v-4532" font-size="16.799999999999997px" xml:space="preserve" y="142.9" text-anchor="middle" font-family="Open Sans, Tahoma, Arial" fill="#444444" dominant-baseline="hanging" transform="matrix(1,0,0,1,240,0)" style="display: block;"><tspan dy="0" >[Container: Kafka]</tspan></text><text  id="v-4533" font-size="24px" xml:space="preserve" y="174.7" text-anchor="middle" font-family="Open Sans, Tahoma, Arial" fill="#444444" dominant-baseline="hanging" transform="matrix(1,0,0,1,240,0)" style="display: block;"><tspan dy="0" >Kafka</tspan></text><g  id="v-4534" font-weight="normal" text-anchor="middle" color="#444444" transform="matrix(1,0,0,1,237.5,268)" display="none"><g ></g><g ></g><g ></g><g ></g></g><image  id="v-4535"></image></g></g><!--z-index:112--><g   id="j_334"  transform="translate(1981,779)" style=""><g  id="v-4400" style="opacity: 1;"><rect  id="v-4401" rx="1" ry="1" stroke-width="2" pointer-events="visiblePainted" fill="#ffffff" stroke="#444444" stroke-dasharray="" width="450" height="300"></rect><text  id="v-4402" font-size="33.599999999999994px" xml:space="preserve" y="86.9" font-weight="bold" text-anchor="middle" pointer-events="visible" font-family="Open Sans, Tahoma, Arial" fill="#444444" dominant-baseline="hanging" transform="matrix(1,0,0,1,225,0)"><tspan dy="0" >Proposal Controller</tspan></text><text  id="v-4403" font-size="16.799999999999997px" xml:space="preserve" y="128.5" text-anchor="middle" font-family="Open Sans, Tahoma, Arial" fill="#444444" dominant-baseline="hanging" transform="matrix(1,0,0,1,225,0)" style="display: block;"><tspan dy="0" >[Component: Spring MVC]</tspan></text><text  id="v-4404" font-size="24px" xml:space="preserve" y="160.3" text-anchor="middle" font-family="Open Sans, Tahoma, Arial" fill="#444444" dominant-baseline="hanging" transform="matrix(1,0,0,1,225,0)" style="display: block;"><tspan dy="0" >Обрабатывает входящие HTTP</tspan><tspan dy="1.2em" x="0" >запросы.</tspan></text><g  id="v-4405" color="#444444" transform="matrix(1,0,0,1,222.5,268)" display="none"><g ></g><g ></g><g ></g><g ></g></g><image  id="v-4406"></image></g></g><!--z-index:113--><g   id="j_336"  transform="translate(2685,1379)" style=""><g  id="v-4418" style="opacity: 1;"><rect  id="v-4419" rx="1" ry="1" stroke-width="2" pointer-events="visiblePainted" fill="#ffffff" stroke="#444444" stroke-dasharray="" width="450" height="300"></rect><text  id="v-4420" font-size="33.599999999999994px" xml:space="preserve" y="86.9" font-weight="bold" text-anchor="middle" pointer-events="visible" font-family="Open Sans, Tahoma, Arial" fill="#444444" dominant-baseline="hanging" transform="matrix(1,0,0,1,225,0)"><tspan dy="0" >Proposal Orchestrator</tspan></text><text  id="v-4421" font-size="16.799999999999997px" xml:space="preserve" y="128.5" text-anchor="middle" font-family="Open Sans, Tahoma, Arial" fill="#444444" dominant-baseline="hanging" transform="matrix(1,0,0,1,225,0)" style="display: block;"><tspan dy="0" >[Component: Spring Service]</tspan></text><text  id="v-4422" font-size="24px" xml:space="preserve" y="160.3" text-anchor="middle" font-family="Open Sans, Tahoma, Arial" fill="#444444" dominant-baseline="hanging" transform="matrix(1,0,0,1,225,0)" style="display: block;"><tspan dy="0" >Координирует процесс</tspan><tspan dy="1.2em" x="0" >обогащения и расчета.</tspan></text><g  id="v-4423" color="#444444" transform="matrix(1,0,0,1,222.5,268)" display="none"><g ></g><g ></g><g ></g><g ></g></g><image  id="v-4424"></image></g></g><!--z-index:114--><g   id="j_337"  transform="translate(3435,1979)" style=""><g  id="v-4428" style="opacity: 1;"><rect  id="v-4429" rx="1" ry="1" stroke-width="2" pointer-events="visiblePainted" fill="#ffffff" stroke="#444444" stroke-dasharray="" width="450" height="300"></rect><text  id="v-4430" font-size="33.599999999999994px" xml:space="preserve" y="86.9" font-weight="bold" text-anchor="middle" pointer-events="visible" font-family="Open Sans, Tahoma, Arial" fill="#444444" dominant-baseline="hanging" transform="matrix(1,0,0,1,225,0)"><tspan dy="0" >Workflow Engine</tspan></text><text  id="v-4431" font-size="16.799999999999997px" xml:space="preserve" y="128.5" text-anchor="middle" font-family="Open Sans, Tahoma, Arial" fill="#444444" dominant-baseline="hanging" transform="matrix(1,0,0,1,225,0)" style="display: block;"><tspan dy="0" >[Component: State Machine]</tspan></text><text  id="v-4432" font-size="24px" xml:space="preserve" y="160.3" text-anchor="middle" font-family="Open Sans, Tahoma, Arial" fill="#444444" dominant-baseline="hanging" transform="matrix(1,0,0,1,225,0)" style="display: block;"><tspan dy="0" >Управляет статусами (Draft -&gt;</tspan><tspan dy="1.2em" x="0" >Calculated -&gt; Issued).</tspan></text><g  id="v-4433" color="#444444" transform="matrix(1,0,0,1,222.5,268)" display="none"><g ></g><g ></g><g ></g><g ></g></g><image  id="v-4434"></image></g></g><!--z-index:115--><g   id="j_338"  transform="translate(4185,1979)" style=""><g  id="v-4438" style="opacity: 1;"><rect  id="v-4439" rx="1" ry="1" stroke-width="2" pointer-events="visiblePainted" fill="#ffffff" stroke="#444444" stroke-dasharray="" width="450" height="300"></rect><text  id="v-4440" font-size="33.599999999999994px" xml:space="preserve" y="101.30000000000001" font-weight="bold" text-anchor="middle" pointer-events="visible" font-family="Open Sans, Tahoma, Arial" fill="#444444" dominant-baseline="hanging" transform="matrix(1,0,0,1,225,0)"><tspan dy="0" >Proposal Repository</tspan></text><text  id="v-4441" font-size="16.799999999999997px" xml:space="preserve" y="142.9" text-anchor="middle" font-family="Open Sans, Tahoma, Arial" fill="#444444" dominant-baseline="hanging" transform="matrix(1,0,0,1,225,0)" style="display: block;"><tspan dy="0" >[Component: JPA Repository]</tspan></text><text  id="v-4442" font-size="24px" xml:space="preserve" y="174.7" text-anchor="middle" font-family="Open Sans, Tahoma, Arial" fill="#444444" dominant-baseline="hanging" transform="matrix(1,0,0,1,225,0)" style="display: block;"><tspan dy="0" >Сохраняет заявки.</tspan></text><g  id="v-4443" color="#444444" transform="matrix(1,0,0,1,222.5,268)" display="none"><g ></g><g ></g><g ></g><g ></g></g><image  id="v-4444"></image></g></g><!--z-index:116--><g   id="j_339"  transform="translate(1935,1979)" style=""><g  id="v-4445" style="opacity: 1;"><rect  id="v-4446" rx="1" ry="1" stroke-width="2" pointer-events="visiblePainted" fill="#ffffff" stroke="#444444" stroke-dasharray="" width="450" height="300"></rect><text  id="v-4447" font-size="33.599999999999994px" xml:space="preserve" y="101.30000000000001" font-weight="bold" text-anchor="middle" pointer-events="visible" font-family="Open Sans, Tahoma, Arial" fill="#444444" dominant-baseline="hanging" transform="matrix(1,0,0,1,225,0)"><tspan dy="0" >CRM Client</tspan></text><text  id="v-4448" font-size="16.799999999999997px" xml:space="preserve" y="142.9" text-anchor="middle" font-family="Open Sans, Tahoma, Arial" fill="#444444" dominant-baseline="hanging" transform="matrix(1,0,0,1,225,0)" style="display: block;"><tspan dy="0" >[Component: Feign Client]</tspan></text><text  id="v-4449" font-size="24px" xml:space="preserve" y="174.7" text-anchor="middle" font-family="Open Sans, Tahoma, Arial" fill="#444444" dominant-baseline="hanging" transform="matrix(1,0,0,1,225,0)" style="display: block;"><tspan dy="0" >Фасад для вызова CRM.</tspan></text><g  id="v-4450" color="#444444" transform="matrix(1,0,0,1,222.5,268)" display="none"><g ></g><g ></g><g ></g><g ></g></g><image  id="v-4451"></image></g></g><!--z-index:117--><g   id="j_340"  transform="translate(4935,1979)" style=""><g  id="v-4458" style="opacity: 1;"><rect  id="v-4459" rx="1" ry="1" stroke-width="2" pointer-events="visiblePainted" fill="#ffffff" stroke="#444444" stroke-dasharray="" width="450" height="300"></rect><text  id="v-4460" font-size="33.599999999999994px" xml:space="preserve" y="86.9" font-weight="bold" text-anchor="middle" pointer-events="visible" font-family="Open Sans, Tahoma, Arial" fill="#444444" dominant-baseline="hanging" transform="matrix(1,0,0,1,225,0)"><tspan dy="0" >Calculation Client</tspan></text><text  id="v-4461" font-size="16.799999999999997px" xml:space="preserve" y="128.5" text-anchor="middle" font-family="Open Sans, Tahoma, Arial" fill="#444444" dominant-baseline="hanging" transform="matrix(1,0,0,1,225,0)" style="display: block;"><tspan dy="0" >[Component: gRPC Client]</tspan></text><text  id="v-4462" font-size="24px" xml:space="preserve" y="160.3" text-anchor="middle" font-family="Open Sans, Tahoma, Arial" fill="#444444" dominant-baseline="hanging" transform="matrix(1,0,0,1,225,0)" style="display: block;"><tspan dy="0" >Фасад для вызова Calculation</tspan><tspan dy="1.2em" x="0" >Engine.</tspan></text><g  id="v-4463" color="#444444" transform="matrix(1,0,0,1,222.5,268)" display="none"><g ></g><g ></g><g ></g><g ></g></g><image  id="v-4464"></image></g></g><!--z-index:118--><g   id="j_341"  transform="translate(2685,1979)" style=""><g  id="v-4468" style="opacity: 1;"><rect  id="v-4469" rx="1" ry="1" stroke-width="2" pointer-events="visiblePainted" fill="#ffffff" stroke="#444444" stroke-dasharray="" width="450" height="300"></rect><text  id="v-4470" font-size="33.599999999999994px" xml:space="preserve" y="86.9" font-weight="bold" text-anchor="middle" pointer-events="visible" font-family="Open Sans, Tahoma, Arial" fill="#444444" dominant-baseline="hanging" transform="matrix(1,0,0,1,225,0)"><tspan dy="0" >ACL Client</tspan></text><text  id="v-4471" font-size="16.799999999999997px" xml:space="preserve" y="128.5" text-anchor="middle" font-family="Open Sans, Tahoma, Arial" fill="#444444" dominant-baseline="hanging" transform="matrix(1,0,0,1,225,0)" style="display: block;"><tspan dy="0" >[Component: Feign Client]</tspan></text><text  id="v-4472" font-size="24px" xml:space="preserve" y="160.3" text-anchor="middle" font-family="Open Sans, Tahoma, Arial" fill="#444444" dominant-baseline="hanging" transform="matrix(1,0,0,1,225,0)" style="display: block;"><tspan dy="0" >Фасад для вызова внешних</tspan><tspan dy="1.2em" x="0" >данных.</tspan></text><g  id="v-4473" color="#444444" transform="matrix(1,0,0,1,222.5,268)" display="none"><g ></g><g ></g><g ></g><g ></g></g><image  id="v-4474"></image></g></g><!--z-index:119--><g   id="j_342"  transform="translate(1185,1979)" style=""><g  id="v-4478" style="opacity: 1;"><rect  id="v-4479" rx="1" ry="1" stroke-width="2" pointer-events="visiblePainted" fill="#ffffff" stroke="#444444" stroke-dasharray="" width="450" height="300"></rect><text  id="v-4480" font-size="33.599999999999994px" xml:space="preserve" y="101.30000000000001" font-weight="bold" text-anchor="middle" pointer-events="visible" font-family="Open Sans, Tahoma, Arial" fill="#444444" dominant-baseline="hanging" transform="matrix(1,0,0,1,225,0)"><tspan dy="0" >Event Publisher</tspan></text><text  id="v-4481" font-size="16.799999999999997px" xml:space="preserve" y="142.9" text-anchor="middle" font-family="Open Sans, Tahoma, Arial" fill="#444444" dominant-baseline="hanging" transform="matrix(1,0,0,1,225,0)" style="display: block;"><tspan dy="0" >[Component: Kafka Producer]</tspan></text><text  id="v-4482" font-size="24px" xml:space="preserve" y="174.7" text-anchor="middle" font-family="Open Sans, Tahoma, Arial" fill="#444444" dominant-baseline="hanging" transform="matrix(1,0,0,1,225,0)" style="display: block;"><tspan dy="0" >Публикует события в брокер.</tspan></text><g  id="v-4483" color="#444444" transform="matrix(1,0,0,1,222.5,268)" display="none"><g ></g><g ></g><g ></g><g ></g></g><image  id="v-4484"></image></g></g><!--z-index:120--><g   id="j_347" ><path  stroke="#444444" d="M 5160 2279 L 5160 2579" id="v-4548" stroke-width="2" stroke-dasharray="8 8" fill="none" style="opacity: 1;"></path><path  fill="black" stroke="black" d="M 0 0 0 0" transform="matrix(6.123233995736766e-17,1,-1,6.123233995736766e-17,5160,2279)"></path><path  fill="#444444" stroke="#444444" d="M 20 0 L 0 10 L 20 20 z" id="v-4550" transform="matrix(-1.8369701987210297e-16,-1,1,-1.8369701987210297e-16,5150,2579)" style="opacity: 1;"></path><path  d="M 5160 2279 L 5160 2579" id="v-4549" fill="none" style="cursor: auto; pointer-events: visiblepainted;"></path><g ><g id="v-4542"  label-idx="0" cursor="move" transform="matrix(1,0,0,1,5160,2429)" style="cursor: default; opacity: 1;"><rect joint-selector="rect" id="v-4545" fill="#ffffff" rx="3" ry="3" pointer-events="none" width="187.3081817626953" height="64.0017032623291" transform="matrix(1,0,0,1,-94.5,-32)"></rect><text joint-selector="text" id="v-4544" font-size="24px" xml:space="preserve" y="0.8em" fill="#444444" text-anchor="middle" pointer-events="none" font-family="Open Sans, Tahoma, Arial" font-weight="normal" transform="matrix(1,0,0,1,0,-23.8)"><tspan dy="0" >Запрос расчета</tspan><tspan dy="1.2em" x="0" >(gRPC)</tspan></text></g><g id="v-4543"  label-idx="1" cursor="move" transform="matrix(1,0,0,1,5150,2455.39990234375)" style="cursor: default; opacity: 1;"><rect joint-selector="rect" id="v-4547" fill="#ffffff" rx="3" ry="3"  width="0" height="0" transform="matrix(1,0,0,1,0,0)" display="none"></rect><text joint-selector="text" id="v-4546" fill="#000000" font-size="14" text-anchor="middle" pointer-events="none"></text></g></g><g  display="none" style="display: none;"></g><g  id="v-4552" display="none"><g  id="v-4540"><path  end="source" d="M 26 0 L 0 13 L 26 26 z"></path></g><g  id="v-4541"><path  end="target" d="M 26 0 L 0 13 L 26 26 z"></path></g></g><g  id="v-4551" display="none"><g  id="v-4539" transform="translate(5160, 2319) "><g  event="remove"><circle r="11"></circle><path transform="scale(.8) translate(-16, -16)" d="M24.778,21.419 19.276,15.917 24.777,10.415 21.949,7.585 16.447,13.087 10.945,7.585 8.117,10.415 13.618,15.917 8.116,21.419 10.946,24.248 16.447,18.746 21.948,24.248z"></path><title>Remove link.</title></g><g  event="link:options"><circle r="11" transform="translate(25)"></circle><path fill="white" transform="scale(.55) translate(29, -16)" d="M31.229,17.736c0.064-0.571,0.104-1.148,0.104-1.736s-0.04-1.166-0.104-1.737l-4.377-1.557c-0.218-0.716-0.504-1.401-0.851-2.05l1.993-4.192c-0.725-0.91-1.549-1.734-2.458-2.459l-4.193,1.994c-0.647-0.347-1.334-0.632-2.049-0.849l-1.558-4.378C17.165,0.708,16.588,0.667,16,0.667s-1.166,0.041-1.737,0.105L12.707,5.15c-0.716,0.217-1.401,0.502-2.05,0.849L6.464,4.005C5.554,4.73,4.73,5.554,4.005,6.464l1.994,4.192c-0.347,0.648-0.632,1.334-0.849,2.05l-4.378,1.557C0.708,14.834,0.667,15.412,0.667,16s0.041,1.165,0.105,1.736l4.378,1.558c0.217,0.715,0.502,1.401,0.849,2.049l-1.994,4.193c0.725,0.909,1.549,1.733,2.459,2.458l4.192-1.993c0.648,0.347,1.334,0.633,2.05,0.851l1.557,4.377c0.571,0.064,1.148,0.104,1.737,0.104c0.588,0,1.165-0.04,1.736-0.104l1.558-4.377c0.715-0.218,1.399-0.504,2.049-0.851l4.193,1.993c0.909-0.725,1.733-1.549,2.458-2.458l-1.993-4.193c0.347-0.647,0.633-1.334,0.851-2.049L31.229,17.736zM16,20.871c-2.69,0-4.872-2.182-4.872-4.871c0-2.69,2.182-4.872,4.872-4.872c2.689,0,4.871,2.182,4.871,4.872C20.871,18.689,18.689,20.871,16,20.871z"></path><title>Link options.</title></g></g></g></g><!--z-index:121--><g   id="j_348" ><path  stroke="#444444" d="M 4410 2279 L 4410 2579" id="v-4562" stroke-width="2" stroke-dasharray="8 8" fill="none" style="opacity: 1;"></path><path  fill="black" stroke="black" d="M 0 0 0 0" transform="matrix(6.123233995736766e-17,1,-1,6.123233995736766e-17,4410,2279)"></path><path  fill="#444444" stroke="#444444" d="M 20 0 L 0 10 L 20 20 z" id="v-4564" transform="matrix(-1.8369701987210297e-16,-1,1,-1.8369701987210297e-16,4400,2579)" style="opacity: 1;"></path><path  d="M 4410 2279 L 4410 2579" id="v-4563" fill="none" style="cursor: auto; pointer-events: visiblepainted;"></path><g ><g id="v-4556"  label-idx="0" cursor="move" transform="matrix(1,0,0,1,4410,2429)" style="cursor: default; opacity: 1;"><rect joint-selector="rect" id="v-4559" fill="#ffffff" rx="3" ry="3" pointer-events="none" width="47.44176483154297" height="35.20170211791992" transform="matrix(1,0,0,1,-22.2,-17.6)"></rect><text joint-selector="text" id="v-4558" font-size="24px" xml:space="preserve" y="0.8em" fill="#444444" text-anchor="middle" pointer-events="none" font-family="Open Sans, Tahoma, Arial" font-weight="normal" transform="matrix(1,0,0,1,0,-9.4)"><tspan dy="0" >SQL</tspan></text></g><g id="v-4557"  label-idx="1" cursor="move" transform="matrix(1,0,0,1,4400,2441)" style="cursor: default; opacity: 1;"><rect joint-selector="rect" id="v-4561" fill="#ffffff" rx="3" ry="3"  width="0" height="0" transform="matrix(1,0,0,1,0,0)" display="none"></rect><text joint-selector="text" id="v-4560" fill="#000000" font-size="14" text-anchor="middle" pointer-events="none"></text></g></g><g  display="none" style="display: none;"></g><g  id="v-4566" display="none"><g  id="v-4554"><path  end="source" d="M 26 0 L 0 13 L 26 26 z"></path></g><g  id="v-4555"><path  end="target" d="M 26 0 L 0 13 L 26 26 z"></path></g></g><g  id="v-4565" display="none"><g  id="v-4553" transform="translate(4410, 2319) "><g  event="remove"><circle r="11"></circle><path transform="scale(.8) translate(-16, -16)" d="M24.778,21.419 19.276,15.917 24.777,10.415 21.949,7.585 16.447,13.087 10.945,7.585 8.117,10.415 13.618,15.917 8.116,21.419 10.946,24.248 16.447,18.746 21.948,24.248z"></path><title>Remove link.</title></g><g  event="link:options"><circle r="11" transform="translate(25)"></circle><path fill="white" transform="scale(.55) translate(29, -16)" d="M31.229,17.736c0.064-0.571,0.104-1.148,0.104-1.736s-0.04-1.166-0.104-1.737l-4.377-1.557c-0.218-0.716-0.504-1.401-0.851-2.05l1.993-4.192c-0.725-0.91-1.549-1.734-2.458-2.459l-4.193,1.994c-0.647-0.347-1.334-0.632-2.049-0.849l-1.558-4.378C17.165,0.708,16.588,0.667,16,0.667s-1.166,0.041-1.737,0.105L12.707,5.15c-0.716,0.217-1.401,0.502-2.05,0.849L6.464,4.005C5.554,4.73,4.73,5.554,4.005,6.464l1.994,4.192c-0.347,0.648-0.632,1.334-0.849,2.05l-4.378,1.557C0.708,14.834,0.667,15.412,0.667,16s0.041,1.165,0.105,1.736l4.378,1.558c0.217,0.715,0.502,1.401,0.849,2.049l-1.994,4.193c0.725,0.909,1.549,1.733,2.459,2.458l4.192-1.993c0.648,0.347,1.334,0.633,2.05,0.851l1.557,4.377c0.571,0.064,1.148,0.104,1.737,0.104c0.588,0,1.165-0.04,1.736-0.104l1.558-4.377c0.715-0.218,1.399-0.504,2.049-0.851l4.193,1.993c0.909-0.725,1.733-1.549,2.458-2.458l-1.993-4.193c0.347-0.647,0.633-1.334,0.851-2.049L31.229,17.736zM16,20.871c-2.69,0-4.872-2.182-4.872-4.871c0-2.69,2.182-4.872,4.872-4.872c2.689,0,4.871,2.182,4.871,4.872C20.871,18.689,18.689,20.871,16,20.871z"></path><title>Link options.</title></g></g></g></g><!--z-index:122--><g   id="j_349" ><path  stroke="#444444" d="M 1185 2031 L 386 1683 C 380 1680.3333333333333 377 1675.6666666666665 377 1669 L 377 1389 C 377 1382.3333333333333 377.3333333333333 1375.6666666666665 378 1369 L 422 1079" id="v-4581" stroke-width="2" stroke-dasharray="8 8" fill="none" style="opacity: 1;"></path><path  fill="black" stroke="black" d="M 0 0 0 0" transform="matrix(-0.9167894954584597,-0.39937078137618304,0.39937078137618304,-0.9167894954584597,1185,2030.97998046875)"></path><path  fill="#444444" stroke="#444444" d="M 20 0 L 0 10 L 20 20 z" id="v-4583" transform="matrix(-0.14727628658915004,0.9890953924715808,-0.9890953924715808,-0.14727628658915004,431.5609518980292,1080.4728001521132)" style="opacity: 1;"></path><path  d="M 1185 2031 L 386 1683 C 380 1680.3333333333333 377 1675.6666666666665 377 1669 L 377 1389 C 377 1382.3333333333333 377.3333333333333 1375.6666666666665 378 1369 L 422 1079" id="v-4582" fill="none" style="cursor: auto; pointer-events: visiblepainted;"></path><g ><g id="v-4575"  label-idx="0" cursor="move" transform="matrix(1,0,0,1,505.368408203125,1734.990234375)" style="cursor: default; opacity: 1;"><rect joint-selector="rect" id="v-4578" fill="#ffffff" rx="3" ry="3" pointer-events="none" width="187.88070678710938" height="64.0017032623291" transform="matrix(1,0,0,1,-93.5,-32)"></rect><text joint-selector="text" id="v-4577" font-size="24px" xml:space="preserve" y="0.8em" fill="#444444" text-anchor="middle" pointer-events="none" font-family="Open Sans, Tahoma, Arial" font-weight="normal" transform="matrix(1,0,0,1,0,-23.8)"><tspan dy="0" >Publishes:</tspan><tspan dy="1.2em" x="0" >ProposalCreated</tspan></text></g><g id="v-4576"  label-idx="1" cursor="move" transform="matrix(1,0,0,1,495.368408203125,1761.3902587890625)" style="cursor: default; opacity: 1;"><rect joint-selector="rect" id="v-4580" fill="#ffffff" rx="3" ry="3"  width="0" height="0" transform="matrix(1,0,0,1,0,0)" display="none"></rect><text joint-selector="text" id="v-4579" fill="#000000" font-size="14" text-anchor="middle" pointer-events="none"></text></g></g><g  display="none" style="display: none;"><g  transform="translate(377, 1679)" id="v-4808"><circle  idx="0" r="10"></circle><path  idx="0" d="M16,5.333c-7.732,0-14,4.701-14,10.5c0,1.982,0.741,3.833,2.016,5.414L2,25.667l5.613-1.441c2.339,1.317,5.237,2.107,8.387,2.107c7.732,0,14-4.701,14-10.5C30,10.034,23.732,5.333,16,5.333z" transform="translate(5, -33)"></path><path  idx="0" transform="scale(.8) translate(9.5, -37)" d="M24.778,21.419 19.276,15.917 24.777,10.415 21.949,7.585 16.447,13.087 10.945,7.585 8.117,10.415 13.618,15.917 8.116,21.419 10.946,24.248 16.447,18.746 21.948,24.248z"><title>Remove vertex.</title></path></g><g  transform="translate(377, 1379)" id="v-4809"><circle  idx="1" r="10"></circle><path  idx="1" d="M16,5.333c-7.732,0-14,4.701-14,10.5c0,1.982,0.741,3.833,2.016,5.414L2,25.667l5.613-1.441c2.339,1.317,5.237,2.107,8.387,2.107c7.732,0,14-4.701,14-10.5C30,10.034,23.732,5.333,16,5.333z" transform="translate(5, -33)"></path><path  idx="1" transform="scale(.8) translate(9.5, -37)" d="M24.778,21.419 19.276,15.917 24.777,10.415 21.949,7.585 16.447,13.087 10.945,7.585 8.117,10.415 13.618,15.917 8.116,21.419 10.946,24.248 16.447,18.746 21.948,24.248z"><title>Remove vertex.</title></path></g></g><g  id="v-4585" display="none"><g  id="v-4573"><path  end="source" d="M 26 0 L 0 13 L 26 26 z"></path></g><g  id="v-4574"><path  end="target" d="M 26 0 L 0 13 L 26 26 z"></path></g></g><g  id="v-4584" display="none"><g  id="v-4570" transform="translate(1148.3274210673812, 2015.0274624924264) "><g  event="remove"><circle r="11"></circle><path transform="scale(.8) translate(-16, -16)" d="M24.778,21.419 19.276,15.917 24.777,10.415 21.949,7.585 16.447,13.087 10.945,7.585 8.117,10.415 13.618,15.917 8.116,21.419 10.946,24.248 16.447,18.746 21.948,24.248z"></path><title>Remove link.</title></g><g  event="link:options"><circle r="11" transform="translate(25)"></circle><path fill="white" transform="scale(.55) translate(29, -16)" d="M31.229,17.736c0.064-0.571,0.104-1.148,0.104-1.736s-0.04-1.166-0.104-1.737l-4.377-1.557c-0.218-0.716-0.504-1.401-0.851-2.05l1.993-4.192c-0.725-0.91-1.549-1.734-2.458-2.459l-4.193,1.994c-0.647-0.347-1.334-0.632-2.049-0.849l-1.558-4.378C17.165,0.708,16.588,0.667,16,0.667s-1.166,0.041-1.737,0.105L12.707,5.15c-0.716,0.217-1.401,0.502-2.05,0.849L6.464,4.005C5.554,4.73,4.73,5.554,4.005,6.464l1.994,4.192c-0.347,0.648-0.632,1.334-0.849,2.05l-4.378,1.557C0.708,14.834,0.667,15.412,0.667,16s0.041,1.165,0.105,1.736l4.378,1.558c0.217,0.715,0.502,1.401,0.849,2.049l-1.994,4.193c0.725,0.909,1.549,1.733,2.459,2.458l4.192-1.993c0.648,0.347,1.334,0.633,2.05,0.851l1.557,4.377c0.571,0.064,1.148,0.104,1.737,0.104c0.588,0,1.165-0.04,1.736-0.104l1.558-4.377c0.715-0.218,1.399-0.504,2.049-0.851l4.193,1.993c0.909-0.725,1.733-1.549,2.458-2.458l-1.993-4.193c0.347-0.647,0.633-1.334,0.851-2.049L31.229,17.736zM16,20.871c-2.69,0-4.872-2.182-4.872-4.871c0-2.69,2.182-4.872,4.872-4.872c2.689,0,4.871,2.182,4.871,4.872C20.871,18.689,18.689,20.871,16,20.871z"></path><title>Link options.</title></g></g></g></g><!--z-index:123--><g   id="j_350" ><path  stroke="#444444" d="M 521 1079 L 675 1379" id="v-4598" stroke-width="2" stroke-dasharray="8 8" fill="none" style="opacity: 1;"></path><path  fill="black" stroke="black" d="M 0 0 0 0" transform="matrix(0.4566778062486522,0.8896321606596282,-0.8896321606596282,0.4566778062486522,521,1079)"></path><path  fill="#444444" stroke="#444444" d="M 20 0 L 0 10 L 20 20 z" id="v-4600" transform="matrix(-0.45667786547949546,-0.8896321302544619,0.8896321302544619,-0.45667786547949546,666.1036848913128,1383.5667376526521)" style="opacity: 1;"></path><path  d="M 521 1079 L 675 1379" id="v-4599" fill="none" style="cursor: auto; pointer-events: visiblepainted;"></path><g ><g id="v-4592"  label-idx="0" cursor="move" transform="matrix(1,0,0,1,598,1229)" style="cursor: default; opacity: 1;"><rect joint-selector="rect" id="v-4595" fill="#ffffff" rx="3" ry="3" pointer-events="none" width="162.1847381591797" height="92.80170822143555" transform="matrix(1,0,0,1,-82,-46.4)"></rect><text joint-selector="text" id="v-4594" font-size="24px" xml:space="preserve" y="0.8em" fill="#444444" text-anchor="middle" pointer-events="none" font-family="Open Sans, Tahoma, Arial" font-weight="normal" transform="matrix(1,0,0,1,0,-38.2)"><tspan dy="0" >Слушает:</tspan><tspan dy="1.2em" x="0" >Отправить</tspan><tspan dy="1.2em" x="0" >уведомление</tspan></text></g><g id="v-4593"  label-idx="1" cursor="move" transform="matrix(1,0,0,1,588,1269.800048828125)" style="cursor: default; opacity: 1;"><rect joint-selector="rect" id="v-4597" fill="#ffffff" rx="3" ry="3"  width="0" height="0" transform="matrix(1,0,0,1,0,0)" display="none"></rect><text joint-selector="text" id="v-4596" fill="#000000" font-size="14" text-anchor="middle" pointer-events="none"></text></g></g><g  display="none" style="display: none;"></g><g  id="v-4602" display="none"><g  id="v-4590"><path  end="source" d="M 26 0 L 0 13 L 26 26 z"></path></g><g  id="v-4591"><path  end="target" d="M 26 0 L 0 13 L 26 26 z"></path></g></g><g  id="v-4601" display="none"><g  id="v-4589" transform="translate(539.2671133966963, 1114.5852858377202) "><g  event="remove"><circle r="11"></circle><path transform="scale(.8) translate(-16, -16)" d="M24.778,21.419 19.276,15.917 24.777,10.415 21.949,7.585 16.447,13.087 10.945,7.585 8.117,10.415 13.618,15.917 8.116,21.419 10.946,24.248 16.447,18.746 21.948,24.248z"></path><title>Remove link.</title></g><g  event="link:options"><circle r="11" transform="translate(25)"></circle><path fill="white" transform="scale(.55) translate(29, -16)" d="M31.229,17.736c0.064-0.571,0.104-1.148,0.104-1.736s-0.04-1.166-0.104-1.737l-4.377-1.557c-0.218-0.716-0.504-1.401-0.851-2.05l1.993-4.192c-0.725-0.91-1.549-1.734-2.458-2.459l-4.193,1.994c-0.647-0.347-1.334-0.632-2.049-0.849l-1.558-4.378C17.165,0.708,16.588,0.667,16,0.667s-1.166,0.041-1.737,0.105L12.707,5.15c-0.716,0.217-1.401,0.502-2.05,0.849L6.464,4.005C5.554,4.73,4.73,5.554,4.005,6.464l1.994,4.192c-0.347,0.648-0.632,1.334-0.849,2.05l-4.378,1.557C0.708,14.834,0.667,15.412,0.667,16s0.041,1.165,0.105,1.736l4.378,1.558c0.217,0.715,0.502,1.401,0.849,2.049l-1.994,4.193c0.725,0.909,1.549,1.733,2.459,2.458l4.192-1.993c0.648,0.347,1.334,0.633,2.05,0.851l1.557,4.377c0.571,0.064,1.148,0.104,1.737,0.104c0.588,0,1.165-0.04,1.736-0.104l1.558-4.377c0.715-0.218,1.399-0.504,2.049-0.851l4.193,1.993c0.909-0.725,1.733-1.549,2.458-2.458l-1.993-4.193c0.347-0.647,0.633-1.334,0.851-2.049L31.229,17.736zM16,20.871c-2.69,0-4.872-2.182-4.872-4.871c0-2.69,2.182-4.872,4.872-4.872c2.689,0,4.871,2.182,4.871,4.872C20.871,18.689,18.689,20.871,16,20.871z"></path><title>Link options.</title></g></g></g></g><!--z-index:124--><g   id="j_351" ><path  stroke="#444444" d="M 1753 479 L 1958 668 C 1962.6666666666665 672.6666666666666 1967.3333333333333 677.3333333333333 1972 682 L 2064 779" id="v-4616" stroke-width="2" stroke-dasharray="8 8" fill="none" style="opacity: 1;"></path><path  fill="black" stroke="black" d="M 0 0 0 0" transform="matrix(0.7349572977083593,0.6781133906252156,-0.6781133906252156,0.7349572977083593,1752.5699462890625,479)"></path><path  fill="#444444" stroke="#444444" d="M 20 0 L 0 10 L 20 20 z" id="v-4618" transform="matrix(-0.6883093704992261,-0.7254172664632123,0.7254172664632123,-0.6883093704992261,2056.42579604036,785.8831159789994)" style="opacity: 1;"></path><path  d="M 1753 479 L 1958 668 C 1962.6666666666665 672.6666666666666 1967.3333333333333 677.3333333333333 1972 682 L 2064 779" id="v-4617" fill="none" style="cursor: auto; pointer-events: visiblepainted;"></path><g ><g id="v-4610"  label-idx="0" cursor="move" transform="matrix(1,0,0,1,1911.9237060546875,625.5199584960938)" style="cursor: default; opacity: 1;"><rect joint-selector="rect" id="v-4613" fill="#ffffff" rx="3" ry="3" pointer-events="none" width="187.3081817626953" height="35.20170211791992" transform="matrix(1,0,0,1,-94.5,-17.6)"></rect><text joint-selector="text" id="v-4612" font-size="24px" xml:space="preserve" y="0.8em" fill="#444444" text-anchor="middle" pointer-events="none" font-family="Open Sans, Tahoma, Arial" font-weight="normal" transform="matrix(1,0,0,1,0,-9.4)"><tspan dy="0" >Запрос расчета</tspan></text></g><g id="v-4611"  label-idx="1" cursor="move" transform="matrix(1,0,0,1,1901.9237060546875,637.5199584960938)" style="cursor: default; opacity: 1;"><rect joint-selector="rect" id="v-4615" fill="#ffffff" rx="3" ry="3"  width="0" height="0" transform="matrix(1,0,0,1,0,0)" display="none"></rect><text joint-selector="text" id="v-4614" fill="#000000" font-size="14" text-anchor="middle" pointer-events="none"></text></g></g><g  display="none" style="display: none;"><g  transform="translate(1965, 675)" id="v-4810"><circle  idx="0" r="10"></circle><path  idx="0" d="M16,5.333c-7.732,0-14,4.701-14,10.5c0,1.982,0.741,3.833,2.016,5.414L2,25.667l5.613-1.441c2.339,1.317,5.237,2.107,8.387,2.107c7.732,0,14-4.701,14-10.5C30,10.034,23.732,5.333,16,5.333z" transform="translate(5, -33)"></path><path  idx="0" transform="scale(.8) translate(9.5, -37)" d="M24.778,21.419 19.276,15.917 24.777,10.415 21.949,7.585 16.447,13.087 10.945,7.585 8.117,10.415 13.618,15.917 8.116,21.419 10.946,24.248 16.447,18.746 21.948,24.248z"><title>Remove vertex.</title></path></g></g><g  id="v-4620" display="none"><g  id="v-4608"><path  end="source" d="M 26 0 L 0 13 L 26 26 z"></path></g><g  id="v-4609"><path  end="target" d="M 26 0 L 0 13 L 26 26 z"></path></g></g><g  id="v-4619" display="none"><g  id="v-4606" transform="translate(1782.40863216683, 506.1133242903945) "><g  event="remove"><circle r="11"></circle><path transform="scale(.8) translate(-16, -16)" d="M24.778,21.419 19.276,15.917 24.777,10.415 21.949,7.585 16.447,13.087 10.945,7.585 8.117,10.415 13.618,15.917 8.116,21.419 10.946,24.248 16.447,18.746 21.948,24.248z"></path><title>Remove link.</title></g><g  event="link:options"><circle r="11" transform="translate(25)"></circle><path fill="white" transform="scale(.55) translate(29, -16)" d="M31.229,17.736c0.064-0.571,0.104-1.148,0.104-1.736s-0.04-1.166-0.104-1.737l-4.377-1.557c-0.218-0.716-0.504-1.401-0.851-2.05l1.993-4.192c-0.725-0.91-1.549-1.734-2.458-2.459l-4.193,1.994c-0.647-0.347-1.334-0.632-2.049-0.849l-1.558-4.378C17.165,0.708,16.588,0.667,16,0.667s-1.166,0.041-1.737,0.105L12.707,5.15c-0.716,0.217-1.401,0.502-2.05,0.849L6.464,4.005C5.554,4.73,4.73,5.554,4.005,6.464l1.994,4.192c-0.347,0.648-0.632,1.334-0.849,2.05l-4.378,1.557C0.708,14.834,0.667,15.412,0.667,16s0.041,1.165,0.105,1.736l4.378,1.558c0.217,0.715,0.502,1.401,0.849,2.049l-1.994,4.193c0.725,0.909,1.549,1.733,2.459,2.458l4.192-1.993c0.648,0.347,1.334,0.633,2.05,0.851l1.557,4.377c0.571,0.064,1.148,0.104,1.737,0.104c0.588,0,1.165-0.04,1.736-0.104l1.558-4.377c0.715-0.218,1.399-0.504,2.049-0.851l4.193,1.993c0.909-0.725,1.733-1.549,2.458-2.458l-1.993-4.193c0.347-0.647,0.633-1.334,0.851-2.049L31.229,17.736zM16,20.871c-2.69,0-4.872-2.182-4.872-4.871c0-2.69,2.182-4.872,4.872-4.872c2.689,0,4.871,2.182,4.871,4.872C20.871,18.689,18.689,20.871,16,20.871z"></path><title>Link options.</title></g></g></g></g><!--z-index:125--><g   id="j_352" ><path  stroke="#444444" d="M 2382 1079 L 2734 1379" id="v-4633" stroke-width="2" stroke-dasharray="8 8" fill="none" style="opacity: 1;"></path><path  fill="black" stroke="black" d="M 0 0 0 0" transform="matrix(0.7610851030637531,0.6486520376090993,-0.6486520376090993,0.7610851030637531,2382,1079)"></path><path  fill="#444444" stroke="#444444" d="M 20 0 L 0 10 L 20 20 z" id="v-4635" transform="matrix(-0.7610851030637532,-0.6486520376090991,0.6486520376090991,-0.7610851030637532,2727.5134908107966,1386.6107991411036)" style="opacity: 1;"></path><path  d="M 2382 1079 L 2734 1379" id="v-4634" fill="none" style="cursor: auto; pointer-events: visiblepainted;"></path><g ><g id="v-4627"  label-idx="0" cursor="move" transform="matrix(1,0,0,1,2558,1229)" style="cursor: default; opacity: 1;"><rect joint-selector="rect" id="v-4630" fill="#ffffff" rx="3" ry="3" pointer-events="none" width="199.23777770996094" height="35.20170211791992" transform="matrix(1,0,0,1,-100.4,-17.6)"></rect><text joint-selector="text" id="v-4629" font-size="24px" xml:space="preserve" y="0.8em" fill="#444444" text-anchor="middle" pointer-events="none" font-family="Open Sans, Tahoma, Arial" font-weight="normal" transform="matrix(1,0,0,1,0,-9.4)"><tspan dy="0" >Запуск процесса</tspan></text></g><g id="v-4628"  label-idx="1" cursor="move" transform="matrix(1,0,0,1,2548,1241)" style="cursor: default; opacity: 1;"><rect joint-selector="rect" id="v-4632" fill="#ffffff" rx="3" ry="3"  width="0" height="0" transform="matrix(1,0,0,1,0,0)" display="none"></rect><text joint-selector="text" id="v-4631" fill="#000000" font-size="14" text-anchor="middle" pointer-events="none"></text></g></g><g  display="none" style="display: none;"></g><g  id="v-4637" display="none"><g  id="v-4625"><path  end="source" d="M 26 0 L 0 13 L 26 26 z"></path></g><g  id="v-4626"><path  end="target" d="M 26 0 L 0 13 L 26 26 z"></path></g></g><g  id="v-4636" display="none"><g  id="v-4624" transform="translate(2412.443403355063, 1104.9460824048829) "><g  event="remove"><circle r="11"></circle><path transform="scale(.8) translate(-16, -16)" d="M24.778,21.419 19.276,15.917 24.777,10.415 21.949,7.585 16.447,13.087 10.945,7.585 8.117,10.415 13.618,15.917 8.116,21.419 10.946,24.248 16.447,18.746 21.948,24.248z"></path><title>Remove link.</title></g><g  event="link:options"><circle r="11" transform="translate(25)"></circle><path fill="white" transform="scale(.55) translate(29, -16)" d="M31.229,17.736c0.064-0.571,0.104-1.148,0.104-1.736s-0.04-1.166-0.104-1.737l-4.377-1.557c-0.218-0.716-0.504-1.401-0.851-2.05l1.993-4.192c-0.725-0.91-1.549-1.734-2.458-2.459l-4.193,1.994c-0.647-0.347-1.334-0.632-2.049-0.849l-1.558-4.378C17.165,0.708,16.588,0.667,16,0.667s-1.166,0.041-1.737,0.105L12.707,5.15c-0.716,0.217-1.401,0.502-2.05,0.849L6.464,4.005C5.554,4.73,4.73,5.554,4.005,6.464l1.994,4.192c-0.347,0.648-0.632,1.334-0.849,2.05l-4.378,1.557C0.708,14.834,0.667,15.412,0.667,16s0.041,1.165,0.105,1.736l4.378,1.558c0.217,0.715,0.502,1.401,0.849,2.049l-1.994,4.193c0.725,0.909,1.549,1.733,2.459,2.458l4.192-1.993c0.648,0.347,1.334,0.633,2.05,0.851l1.557,4.377c0.571,0.064,1.148,0.104,1.737,0.104c0.588,0,1.165-0.04,1.736-0.104l1.558-4.377c0.715-0.218,1.399-0.504,2.049-0.851l4.193,1.993c0.909-0.725,1.733-1.549,2.458-2.458l-1.993-4.193c0.347-0.647,0.633-1.334,0.851-2.049L31.229,17.736zM16,20.871c-2.69,0-4.872-2.182-4.872-4.871c0-2.69,2.182-4.872,4.872-4.872c2.689,0,4.871,2.182,4.871,4.872C20.871,18.689,18.689,20.871,16,20.871z"></path><title>Link options.</title></g></g></g></g><!--z-index:126--><g   id="j_353" ><path  stroke="#444444" d="M 3098 1679 L 3473 1979" id="v-4650" stroke-width="2" stroke-dasharray="8 8" fill="none" style="opacity: 1;"></path><path  fill="black" stroke="black" d="M 0 0 0 0" transform="matrix(0.7808688000832672,0.624695059254128,-0.624695059254128,0.7808688000832672,3097.5,1679)"></path><path  fill="#444444" stroke="#444444" d="M 20 0 L 0 10 L 20 20 z" id="v-4652" transform="matrix(-0.7808688416748548,-0.6246950072646416,0.6246950072646416,-0.7808688416748548,3466.253144594102,1986.8086902472076)" style="opacity: 1;"></path><path  d="M 3098 1679 L 3473 1979" id="v-4651" fill="none" style="cursor: auto; pointer-events: visiblepainted;"></path><g ><g id="v-4644"  label-idx="0" cursor="move" transform="matrix(1,0,0,1,3285.5,1829)" style="cursor: default; opacity: 1;"><rect joint-selector="rect" id="v-4647" fill="#ffffff" rx="3" ry="3" pointer-events="none" width="116.4788818359375" height="64.0017032623291" transform="matrix(1,0,0,1,-57.1,-32)"></rect><text joint-selector="text" id="v-4646" font-size="24px" xml:space="preserve" y="0.8em" fill="#444444" text-anchor="middle" pointer-events="none" font-family="Open Sans, Tahoma, Arial" font-weight="normal" transform="matrix(1,0,0,1,0,-23.8)"><tspan dy="0" >Проверка</tspan><tspan dy="1.2em" x="0" >перехода</tspan></text></g><g id="v-4645"  label-idx="1" cursor="move" transform="matrix(1,0,0,1,3275.5,1855.4000244140625)" style="cursor: default; opacity: 1;"><rect joint-selector="rect" id="v-4649" fill="#ffffff" rx="3" ry="3"  width="0" height="0" transform="matrix(1,0,0,1,0,0)" display="none"></rect><text joint-selector="text" id="v-4648" fill="#000000" font-size="14" text-anchor="middle" pointer-events="none"></text></g></g><g  display="none" style="display: none;"></g><g  id="v-4654" display="none"><g  id="v-4642"><path  end="source" d="M 26 0 L 0 13 L 26 26 z"></path></g><g  id="v-4643"><path  end="target" d="M 26 0 L 0 13 L 26 26 z"></path></g></g><g  id="v-4653" display="none"><g  id="v-4641" transform="translate(3129.234752377721, 1703.9878019021771) "><g  event="remove"><circle r="11"></circle><path transform="scale(.8) translate(-16, -16)" d="M24.778,21.419 19.276,15.917 24.777,10.415 21.949,7.585 16.447,13.087 10.945,7.585 8.117,10.415 13.618,15.917 8.116,21.419 10.946,24.248 16.447,18.746 21.948,24.248z"></path><title>Remove link.</title></g><g  event="link:options"><circle r="11" transform="translate(25)"></circle><path fill="white" transform="scale(.55) translate(29, -16)" d="M31.229,17.736c0.064-0.571,0.104-1.148,0.104-1.736s-0.04-1.166-0.104-1.737l-4.377-1.557c-0.218-0.716-0.504-1.401-0.851-2.05l1.993-4.192c-0.725-0.91-1.549-1.734-2.458-2.459l-4.193,1.994c-0.647-0.347-1.334-0.632-2.049-0.849l-1.558-4.378C17.165,0.708,16.588,0.667,16,0.667s-1.166,0.041-1.737,0.105L12.707,5.15c-0.716,0.217-1.401,0.502-2.05,0.849L6.464,4.005C5.554,4.73,4.73,5.554,4.005,6.464l1.994,4.192c-0.347,0.648-0.632,1.334-0.849,2.05l-4.378,1.557C0.708,14.834,0.667,15.412,0.667,16s0.041,1.165,0.105,1.736l4.378,1.558c0.217,0.715,0.502,1.401,0.849,2.049l-1.994,4.193c0.725,0.909,1.549,1.733,2.459,2.458l4.192-1.993c0.648,0.347,1.334,0.633,2.05,0.851l1.557,4.377c0.571,0.064,1.148,0.104,1.737,0.104c0.588,0,1.165-0.04,1.736-0.104l1.558-4.377c0.715-0.218,1.399-0.504,2.049-0.851l4.193,1.993c0.909-0.725,1.733-1.549,2.458-2.458l-1.993-4.193c0.347-0.647,0.633-1.334,0.851-2.049L31.229,17.736zM16,20.871c-2.69,0-4.872-2.182-4.872-4.871c0-2.69,2.182-4.872,4.872-4.872c2.689,0,4.871,2.182,4.871,4.872C20.871,18.689,18.689,20.871,16,20.871z"></path><title>Link options.</title></g></g></g></g><!--z-index:127--><g   id="j_354" ><path  stroke="#444444" d="M 3135 1619 L 4185 2039" id="v-4664" stroke-width="2" stroke-dasharray="8 8" fill="none" style="opacity: 1;"></path><path  fill="black" stroke="black" d="M 0 0 0 0" transform="matrix(0.9284766955435519,0.371390664708372,-0.371390664708372,0.9284766955435519,3135,1619)"></path><path  fill="#444444" stroke="#444444" d="M 20 0 L 0 10 L 20 20 z" id="v-4666" transform="matrix(-0.928476707906966,-0.3713906337998342,0.3713906337998342,-0.928476707906966,4181.286192772322,2048.284806229568)" style="opacity: 1;"></path><path  d="M 3135 1619 L 4185 2039" id="v-4665" fill="none" style="cursor: auto; pointer-events: visiblepainted;"></path><g ><g id="v-4658"  label-idx="0" cursor="move" transform="matrix(1,0,0,1,3660,1829)" style="cursor: default; opacity: 1;"><rect joint-selector="rect" id="v-4661" fill="#ffffff" rx="3" ry="3" pointer-events="none" width="78.32412719726562" height="35.20170211791992" transform="matrix(1,0,0,1,-37.6,-17.6)"></rect><text joint-selector="text" id="v-4660" font-size="24px" xml:space="preserve" y="0.8em" fill="#444444" text-anchor="middle" pointer-events="none" font-family="Open Sans, Tahoma, Arial" font-weight="normal" transform="matrix(1,0,0,1,0,-9.4)"><tspan dy="0" >Persist</tspan></text></g><g id="v-4659"  label-idx="1" cursor="move" transform="matrix(1,0,0,1,3650,1841)" style="cursor: default; opacity: 1;"><rect joint-selector="rect" id="v-4663" fill="#ffffff" rx="3" ry="3"  width="0" height="0" transform="matrix(1,0,0,1,0,0)" display="none"></rect><text joint-selector="text" id="v-4662" fill="#000000" font-size="14" text-anchor="middle" pointer-events="none"></text></g></g><g  display="none" style="display: none;"></g><g  id="v-4668" display="none"><g  id="v-4656"><path  end="source" d="M 26 0 L 0 13 L 26 26 z"></path></g><g  id="v-4657"><path  end="target" d="M 26 0 L 0 13 L 26 26 z"></path></g></g><g  id="v-4667" display="none"><g  id="v-4655" transform="translate(3172.13906763541, 1633.855627054164) "><g  event="remove"><circle r="11"></circle><path transform="scale(.8) translate(-16, -16)" d="M24.778,21.419 19.276,15.917 24.777,10.415 21.949,7.585 16.447,13.087 10.945,7.585 8.117,10.415 13.618,15.917 8.116,21.419 10.946,24.248 16.447,18.746 21.948,24.248z"></path><title>Remove link.</title></g><g  event="link:options"><circle r="11" transform="translate(25)"></circle><path fill="white" transform="scale(.55) translate(29, -16)" d="M31.229,17.736c0.064-0.571,0.104-1.148,0.104-1.736s-0.04-1.166-0.104-1.737l-4.377-1.557c-0.218-0.716-0.504-1.401-0.851-2.05l1.993-4.192c-0.725-0.91-1.549-1.734-2.458-2.459l-4.193,1.994c-0.647-0.347-1.334-0.632-2.049-0.849l-1.558-4.378C17.165,0.708,16.588,0.667,16,0.667s-1.166,0.041-1.737,0.105L12.707,5.15c-0.716,0.217-1.401,0.502-2.05,0.849L6.464,4.005C5.554,4.73,4.73,5.554,4.005,6.464l1.994,4.192c-0.347,0.648-0.632,1.334-0.849,2.05l-4.378,1.557C0.708,14.834,0.667,15.412,0.667,16s0.041,1.165,0.105,1.736l4.378,1.558c0.217,0.715,0.502,1.401,0.849,2.049l-1.994,4.193c0.725,0.909,1.549,1.733,2.459,2.458l4.192-1.993c0.648,0.347,1.334,0.633,2.05,0.851l1.557,4.377c0.571,0.064,1.148,0.104,1.737,0.104c0.588,0,1.165-0.04,1.736-0.104l1.558-4.377c0.715-0.218,1.399-0.504,2.049-0.851l4.193,1.993c0.909-0.725,1.733-1.549,2.458-2.458l-1.993-4.193c0.347-0.647,0.633-1.334,0.851-2.049L31.229,17.736zM16,20.871c-2.69,0-4.872-2.182-4.872-4.871c0-2.69,2.182-4.872,4.872-4.872c2.689,0,4.871,2.182,4.871,4.872C20.871,18.689,18.689,20.871,16,20.871z"></path><title>Link options.</title></g></g></g></g><!--z-index:128--><g   id="j_355" ><path  stroke="#444444" d="M 2723 1679 L 2348 1979" id="v-4681" stroke-width="2" stroke-dasharray="8 8" fill="none" style="opacity: 1;"></path><path  fill="black" stroke="black" d="M 0 0 0 0" transform="matrix(-0.7808688416748546,0.6246950072646418,-0.6246950072646418,-0.7808688416748546,2722.5,1679)"></path><path  fill="#444444" stroke="#444444" d="M 20 0 L 0 10 L 20 20 z" id="v-4683" transform="matrix(0.7808686753084834,-0.624695215222571,0.624695215222571,0.7808686753084834,2341.2529548446896,1971.1913171569533)" style="opacity: 1;"></path><path  d="M 2723 1679 L 2348 1979" id="v-4682" fill="none" style="cursor: auto; pointer-events: visiblepainted;"></path><g ><g id="v-4675"  label-idx="0" cursor="move" transform="matrix(1,0,0,1,2535.5,1829)" style="cursor: default; opacity: 1;"><rect joint-selector="rect" id="v-4678" fill="#ffffff" rx="3" ry="3" pointer-events="none" width="196.38128662109375" height="64.0017032623291" transform="matrix(1,0,0,1,-99,-32)"></rect><text joint-selector="text" id="v-4677" font-size="24px" xml:space="preserve" y="0.8em" fill="#444444" text-anchor="middle" pointer-events="none" font-family="Open Sans, Tahoma, Arial" font-weight="normal" transform="matrix(1,0,0,1,0,-23.8)"><tspan dy="0" >1. Получить</tspan><tspan dy="1.2em" x="0" >данные клиента</tspan></text></g><g id="v-4676"  label-idx="1" cursor="move" transform="matrix(1,0,0,1,2525.5,1855.4000244140625)" style="cursor: default; opacity: 1;"><rect joint-selector="rect" id="v-4680" fill="#ffffff" rx="3" ry="3"  width="0" height="0" transform="matrix(1,0,0,1,0,0)" display="none"></rect><text joint-selector="text" id="v-4679" fill="#000000" font-size="14" text-anchor="middle" pointer-events="none"></text></g></g><g  display="none" style="display: none;"></g><g  id="v-4685" display="none"><g  id="v-4673"><path  end="source" d="M 26 0 L 0 13 L 26 26 z"></path></g><g  id="v-4674"><path  end="target" d="M 26 0 L 0 13 L 26 26 z"></path></g></g><g  id="v-4684" display="none"><g  id="v-4672" transform="translate(2691.765247622279, 1703.9878019021771) "><g  event="remove"><circle r="11"></circle><path transform="scale(.8) translate(-16, -16)" d="M24.778,21.419 19.276,15.917 24.777,10.415 21.949,7.585 16.447,13.087 10.945,7.585 8.117,10.415 13.618,15.917 8.116,21.419 10.946,24.248 16.447,18.746 21.948,24.248z"></path><title>Remove link.</title></g><g  event="link:options"><circle r="11" transform="translate(25)"></circle><path fill="white" transform="scale(.55) translate(29, -16)" d="M31.229,17.736c0.064-0.571,0.104-1.148,0.104-1.736s-0.04-1.166-0.104-1.737l-4.377-1.557c-0.218-0.716-0.504-1.401-0.851-2.05l1.993-4.192c-0.725-0.91-1.549-1.734-2.458-2.459l-4.193,1.994c-0.647-0.347-1.334-0.632-2.049-0.849l-1.558-4.378C17.165,0.708,16.588,0.667,16,0.667s-1.166,0.041-1.737,0.105L12.707,5.15c-0.716,0.217-1.401,0.502-2.05,0.849L6.464,4.005C5.554,4.73,4.73,5.554,4.005,6.464l1.994,4.192c-0.347,0.648-0.632,1.334-0.849,2.05l-4.378,1.557C0.708,14.834,0.667,15.412,0.667,16s0.041,1.165,0.105,1.736l4.378,1.558c0.217,0.715,0.502,1.401,0.849,2.049l-1.994,4.193c0.725,0.909,1.549,1.733,2.459,2.458l4.192-1.993c0.648,0.347,1.334,0.633,2.05,0.851l1.557,4.377c0.571,0.064,1.148,0.104,1.737,0.104c0.588,0,1.165-0.04,1.736-0.104l1.558-4.377c0.715-0.218,1.399-0.504,2.049-0.851l4.193,1.993c0.909-0.725,1.733-1.549,2.458-2.458l-1.993-4.193c0.347-0.647,0.633-1.334,0.851-2.049L31.229,17.736zM16,20.871c-2.69,0-4.872-2.182-4.872-4.871c0-2.69,2.182-4.872,4.872-4.872c2.689,0,4.871,2.182,4.871,4.872C20.871,18.689,18.689,20.871,16,20.871z"></path><title>Link options.</title></g></g></g></g><!--z-index:129--><g   id="j_356" ><path  stroke="#444444" d="M 2910 1679 L 2910 1979" id="v-4698" stroke-width="2" stroke-dasharray="8 8" fill="none" style="opacity: 1;"></path><path  fill="black" stroke="black" d="M 0 0 0 0" transform="matrix(6.123233995736766e-17,1,-1,6.123233995736766e-17,2910,1679)"></path><path  fill="#444444" stroke="#444444" d="M 20 0 L 0 10 L 20 20 z" id="v-4700" transform="matrix(-1.8369701987210297e-16,-1,1,-1.8369701987210297e-16,2900,1979)" style="opacity: 1;"></path><path  d="M 2910 1679 L 2910 1979" id="v-4699" fill="none" style="cursor: auto; pointer-events: visiblepainted;"></path><g ><g id="v-4692"  label-idx="0" cursor="move" transform="matrix(1,0,0,1,2910,1829)" style="cursor: default; opacity: 1;"><rect joint-selector="rect" id="v-4695" fill="#ffffff" rx="3" ry="3" pointer-events="none" width="172.8499298095703" height="64.0017032623291" transform="matrix(1,0,0,1,-87.8,-32)"></rect><text joint-selector="text" id="v-4694" font-size="24px" xml:space="preserve" y="0.8em" fill="#444444" text-anchor="middle" pointer-events="none" font-family="Open Sans, Tahoma, Arial" font-weight="normal" transform="matrix(1,0,0,1,0,-23.8)"><tspan dy="0" >2. Обогатить</tspan><tspan dy="1.2em" x="0" >данными авто</tspan></text></g><g id="v-4693"  label-idx="1" cursor="move" transform="matrix(1,0,0,1,2900,1855.4000244140625)" style="cursor: default; opacity: 1;"><rect joint-selector="rect" id="v-4697" fill="#ffffff" rx="3" ry="3"  width="0" height="0" transform="matrix(1,0,0,1,0,0)" display="none"></rect><text joint-selector="text" id="v-4696" fill="#000000" font-size="14" text-anchor="middle" pointer-events="none"></text></g></g><g  display="none" style="display: none;"></g><g  id="v-4702" display="none"><g  id="v-4690"><path  end="source" d="M 26 0 L 0 13 L 26 26 z"></path></g><g  id="v-4691"><path  end="target" d="M 26 0 L 0 13 L 26 26 z"></path></g></g><g  id="v-4701" display="none"><g  id="v-4689" transform="translate(2910, 1719) "><g  event="remove"><circle r="11"></circle><path transform="scale(.8) translate(-16, -16)" d="M24.778,21.419 19.276,15.917 24.777,10.415 21.949,7.585 16.447,13.087 10.945,7.585 8.117,10.415 13.618,15.917 8.116,21.419 10.946,24.248 16.447,18.746 21.948,24.248z"></path><title>Remove link.</title></g><g  event="link:options"><circle r="11" transform="translate(25)"></circle><path fill="white" transform="scale(.55) translate(29, -16)" d="M31.229,17.736c0.064-0.571,0.104-1.148,0.104-1.736s-0.04-1.166-0.104-1.737l-4.377-1.557c-0.218-0.716-0.504-1.401-0.851-2.05l1.993-4.192c-0.725-0.91-1.549-1.734-2.458-2.459l-4.193,1.994c-0.647-0.347-1.334-0.632-2.049-0.849l-1.558-4.378C17.165,0.708,16.588,0.667,16,0.667s-1.166,0.041-1.737,0.105L12.707,5.15c-0.716,0.217-1.401,0.502-2.05,0.849L6.464,4.005C5.554,4.73,4.73,5.554,4.005,6.464l1.994,4.192c-0.347,0.648-0.632,1.334-0.849,2.05l-4.378,1.557C0.708,14.834,0.667,15.412,0.667,16s0.041,1.165,0.105,1.736l4.378,1.558c0.217,0.715,0.502,1.401,0.849,2.049l-1.994,4.193c0.725,0.909,1.549,1.733,2.459,2.458l4.192-1.993c0.648,0.347,1.334,0.633,2.05,0.851l1.557,4.377c0.571,0.064,1.148,0.104,1.737,0.104c0.588,0,1.165-0.04,1.736-0.104l1.558-4.377c0.715-0.218,1.399-0.504,2.049-0.851l4.193,1.993c0.909-0.725,1.733-1.549,2.458-2.458l-1.993-4.193c0.347-0.647,0.633-1.334,0.851-2.049L31.229,17.736zM16,20.871c-2.69,0-4.872-2.182-4.872-4.871c0-2.69,2.182-4.872,4.872-4.872c2.689,0,4.871,2.182,4.871,4.872C20.871,18.689,18.689,20.871,16,20.871z"></path><title>Link options.</title></g></g></g></g><!--z-index:130--><g   id="j_357" ><path  stroke="#444444" d="M 3135 1583 L 4775 1977 C 4781.666666666666 1978.3333333333333 4788 1980.3333333333333 4794 1983 L 4935 2039" id="v-4716" stroke-width="2" stroke-dasharray="8 8" fill="none" style="opacity: 1;"></path><path  fill="black" stroke="black" d="M 0 0 0 0" transform="matrix(0.9723873020607068,0.23337295214120202,-0.23337295214120202,0.9723873020607068,3135,1583)"></path><path  fill="#444444" stroke="#444444" d="M 20 0 L 0 10 L 20 20 z" id="v-4718" transform="matrix(-0.928476707906966,-0.3713906337998342,0.3713906337998342,-0.928476707906966,4931.286192772322,2048.284806229568)" style="opacity: 1;"></path><path  d="M 3135 1583 L 4775 1977 C 4781.666666666666 1978.3333333333333 4788 1980.3333333333333 4794 1983 L 4935 2039" id="v-4717" fill="none" style="cursor: auto; pointer-events: visiblepainted;"></path><g ><g id="v-4710"  label-idx="0" cursor="move" transform="matrix(1,0,0,1,4038.46337890625,1800.0516357421875)" style="cursor: default; opacity: 1;"><rect joint-selector="rect" id="v-4713" fill="#ffffff" rx="3" ry="3" pointer-events="none" width="158.28501892089844" height="64.0017032623291" transform="matrix(1,0,0,1,-78.4,-32)"></rect><text joint-selector="text" id="v-4712" font-size="24px" xml:space="preserve" y="0.8em" fill="#444444" text-anchor="middle" pointer-events="none" font-family="Open Sans, Tahoma, Arial" font-weight="normal" transform="matrix(1,0,0,1,0,-23.8)"><tspan dy="0" >3. Рассчитать</tspan><tspan dy="1.2em" x="0" >стоимость</tspan></text></g><g id="v-4711"  label-idx="1" cursor="move" transform="matrix(1,0,0,1,4028.46337890625,1826.4515380859375)" style="cursor: default; opacity: 1;"><rect joint-selector="rect" id="v-4715" fill="#ffffff" rx="3" ry="3"  width="0" height="0" transform="matrix(1,0,0,1,0,0)" display="none"></rect><text joint-selector="text" id="v-4714" fill="#000000" font-size="14" text-anchor="middle" pointer-events="none"></text></g></g><g  display="none" style="display: none;"><g  transform="translate(4785, 1979)" id="v-4811"><circle  idx="0" r="10"></circle><path  idx="0" d="M16,5.333c-7.732,0-14,4.701-14,10.5c0,1.982,0.741,3.833,2.016,5.414L2,25.667l5.613-1.441c2.339,1.317,5.237,2.107,8.387,2.107c7.732,0,14-4.701,14-10.5C30,10.034,23.732,5.333,16,5.333z" transform="translate(5, -33)"></path><path  idx="0" transform="scale(.8) translate(9.5, -37)" d="M24.778,21.419 19.276,15.917 24.777,10.415 21.949,7.585 16.447,13.087 10.945,7.585 8.117,10.415 13.618,15.917 8.116,21.419 10.946,24.248 16.447,18.746 21.948,24.248z"><title>Remove vertex.</title></path></g></g><g  id="v-4720" display="none"><g  id="v-4708"><path  end="source" d="M 26 0 L 0 13 L 26 26 z"></path></g><g  id="v-4709"><path  end="target" d="M 26 0 L 0 13 L 26 26 z"></path></g></g><g  id="v-4719" display="none"><g  id="v-4706" transform="translate(3173.893338356636, 1592.3438873856796) "><g  event="remove"><circle r="11"></circle><path transform="scale(.8) translate(-16, -16)" d="M24.778,21.419 19.276,15.917 24.777,10.415 21.949,7.585 16.447,13.087 10.945,7.585 8.117,10.415 13.618,15.917 8.116,21.419 10.946,24.248 16.447,18.746 21.948,24.248z"></path><title>Remove link.</title></g><g  event="link:options"><circle r="11" transform="translate(25)"></circle><path fill="white" transform="scale(.55) translate(29, -16)" d="M31.229,17.736c0.064-0.571,0.104-1.148,0.104-1.736s-0.04-1.166-0.104-1.737l-4.377-1.557c-0.218-0.716-0.504-1.401-0.851-2.05l1.993-4.192c-0.725-0.91-1.549-1.734-2.458-2.459l-4.193,1.994c-0.647-0.347-1.334-0.632-2.049-0.849l-1.558-4.378C17.165,0.708,16.588,0.667,16,0.667s-1.166,0.041-1.737,0.105L12.707,5.15c-0.716,0.217-1.401,0.502-2.05,0.849L6.464,4.005C5.554,4.73,4.73,5.554,4.005,6.464l1.994,4.192c-0.347,0.648-0.632,1.334-0.849,2.05l-4.378,1.557C0.708,14.834,0.667,15.412,0.667,16s0.041,1.165,0.105,1.736l4.378,1.558c0.217,0.715,0.502,1.401,0.849,2.049l-1.994,4.193c0.725,0.909,1.549,1.733,2.459,2.458l4.192-1.993c0.648,0.347,1.334,0.633,2.05,0.851l1.557,4.377c0.571,0.064,1.148,0.104,1.737,0.104c0.588,0,1.165-0.04,1.736-0.104l1.558-4.377c0.715-0.218,1.399-0.504,2.049-0.851l4.193,1.993c0.909-0.725,1.733-1.549,2.458-2.458l-1.993-4.193c0.347-0.647,0.633-1.334,0.851-2.049L31.229,17.736zM16,20.871c-2.69,0-4.872-2.182-4.872-4.871c0-2.69,2.182-4.872,4.872-4.872c2.689,0,4.871,2.182,4.871,4.872C20.871,18.689,18.689,20.871,16,20.871z"></path><title>Link options.</title></g></g></g></g><!--z-index:131--><g   id="j_358" ><path  stroke="#444444" d="M 2685 1669 L 2677 1674 C 2671.6666666666665 1677.3333333333333 2666 1680 2660 1682 L 1794 1976 C 1788 1978 1782 1980.3333333333333 1776 1983 L 1635 2039" id="v-4735" stroke-width="2" stroke-dasharray="8 8" fill="none" style="opacity: 1;"></path><path  fill="black" stroke="black" d="M 0 0 0 0" transform="matrix(-0.8489507742424643,0.5284719320012373,-0.5284719320012373,-0.8489507742424643,2685,1669.0400390625)"></path><path  fill="#444444" stroke="#444444" d="M 20 0 L 0 10 L 20 20 z" id="v-4737" transform="matrix(0.9284766089996245,-0.3713908810681253,0.3713908810681253,0.9284766089996245,1631.286115138385,2029.715275533185)" style="opacity: 1;"></path><path  d="M 2685 1669 L 2677 1674 C 2671.6666666666665 1677.3333333333333 2666 1680 2660 1682 L 1794 1976 C 1788 1978 1782 1980.3333333333333 1776 1983 L 1635 2039" id="v-4736" fill="none" style="cursor: auto; pointer-events: visiblepainted;"></path><g ><g id="v-4729"  label-idx="0" cursor="move" transform="matrix(1,0,0,1,2159.404052734375,1851.9482421875)" style="cursor: default; opacity: 1;"><rect joint-selector="rect" id="v-4732" fill="#ffffff" rx="3" ry="3" pointer-events="none" width="199.7294921875" height="64.0017032623291" transform="matrix(1,0,0,1,-101.1,-32)"></rect><text joint-selector="text" id="v-4731" font-size="24px" xml:space="preserve" y="0.8em" fill="#444444" text-anchor="middle" pointer-events="none" font-family="Open Sans, Tahoma, Arial" font-weight="normal" transform="matrix(1,0,0,1,0,-23.8)"><tspan dy="0" >4. Опубликовать</tspan><tspan dy="1.2em" x="0" >событие</tspan></text></g><g id="v-4730"  label-idx="1" cursor="move" transform="matrix(1,0,0,1,2149.404052734375,1878.3482666015625)" style="cursor: default; opacity: 1;"><rect joint-selector="rect" id="v-4734" fill="#ffffff" rx="3" ry="3"  width="0" height="0" transform="matrix(1,0,0,1,0,0)" display="none"></rect><text joint-selector="text" id="v-4733" fill="#000000" font-size="14" text-anchor="middle" pointer-events="none"></text></g></g><g  display="none" style="display: none;"><g  transform="translate(2669, 1679)" id="v-4812"><circle  idx="0" r="10"></circle><path  idx="0" d="M16,5.333c-7.732,0-14,4.701-14,10.5c0,1.982,0.741,3.833,2.016,5.414L2,25.667l5.613-1.441c2.339,1.317,5.237,2.107,8.387,2.107c7.732,0,14-4.701,14-10.5C30,10.034,23.732,5.333,16,5.333z" transform="translate(5, -33)"></path><path  idx="0" transform="scale(.8) translate(9.5, -37)" d="M24.778,21.419 19.276,15.917 24.777,10.415 21.949,7.585 16.447,13.087 10.945,7.585 8.117,10.415 13.618,15.917 8.116,21.419 10.946,24.248 16.447,18.746 21.948,24.248z"><title>Remove vertex.</title></path></g><g  transform="translate(1785, 1979)" id="v-4813"><circle  idx="1" r="10"></circle><path  idx="1" d="M16,5.333c-7.732,0-14,4.701-14,10.5c0,1.982,0.741,3.833,2.016,5.414L2,25.667l5.613-1.441c2.339,1.317,5.237,2.107,8.387,2.107c7.732,0,14-4.701,14-10.5C30,10.034,23.732,5.333,16,5.333z" transform="translate(5, -33)"></path><path  idx="1" transform="scale(.8) translate(9.5, -37)" d="M24.778,21.419 19.276,15.917 24.777,10.415 21.949,7.585 16.447,13.087 10.945,7.585 8.117,10.415 13.618,15.917 8.116,21.419 10.946,24.248 16.447,18.746 21.948,24.248z"><title>Remove vertex.</title></path></g></g><g  id="v-4739" display="none"><g  id="v-4727"><path  end="source" d="M 26 0 L 0 13 L 26 26 z"></path></g><g  id="v-4728"><path  end="target" d="M 26 0 L 0 13 L 26 26 z"></path></g></g><g  id="v-4738" display="none"><g  id="v-4724" transform="translate(2648.886726830541, 1685.7728664108788) "><g  event="remove"><circle r="11"></circle><path transform="scale(.8) translate(-16, -16)" d="M24.778,21.419 19.276,15.917 24.777,10.415 21.949,7.585 16.447,13.087 10.945,7.585 8.117,10.415 13.618,15.917 8.116,21.419 10.946,24.248 16.447,18.746 21.948,24.248z"></path><title>Remove link.</title></g><g  event="link:options"><circle r="11" transform="translate(25)"></circle><path fill="white" transform="scale(.55) translate(29, -16)" d="M31.229,17.736c0.064-0.571,0.104-1.148,0.104-1.736s-0.04-1.166-0.104-1.737l-4.377-1.557c-0.218-0.716-0.504-1.401-0.851-2.05l1.993-4.192c-0.725-0.91-1.549-1.734-2.458-2.459l-4.193,1.994c-0.647-0.347-1.334-0.632-2.049-0.849l-1.558-4.378C17.165,0.708,16.588,0.667,16,0.667s-1.166,0.041-1.737,0.105L12.707,5.15c-0.716,0.217-1.401,0.502-2.05,0.849L6.464,4.005C5.554,4.73,4.73,5.554,4.005,6.464l1.994,4.192c-0.347,0.648-0.632,1.334-0.849,2.05l-4.378,1.557C0.708,14.834,0.667,15.412,0.667,16s0.041,1.165,0.105,1.736l4.378,1.558c0.217,0.715,0.502,1.401,0.849,2.049l-1.994,4.193c0.725,0.909,1.549,1.733,2.459,2.458l4.192-1.993c0.648,0.347,1.334,0.633,2.05,0.851l1.557,4.377c0.571,0.064,1.148,0.104,1.737,0.104c0.588,0,1.165-0.04,1.736-0.104l1.558-4.377c0.715-0.218,1.399-0.504,2.049-0.851l4.193,1.993c0.909-0.725,1.733-1.549,2.458-2.458l-1.993-4.193c0.347-0.647,0.633-1.334,0.851-2.049L31.229,17.736zM16,20.871c-2.69,0-4.872-2.182-4.872-4.871c0-2.69,2.182-4.872,4.872-4.872c2.689,0,4.871,2.182,4.871,4.872C20.871,18.689,18.689,20.871,16,20.871z"></path><title>Link options.</title></g></g></g></g><!--z-index:132--><g   id="j_359" ><path  stroke="#444444" d="M 1365 462 L 1015 670 C 1009 673.3333333333333 1005 678.3333333333333 1003 685 L 797 1379" id="v-4753" stroke-width="2" stroke-dasharray="8 8" fill="none" style="opacity: 1;"></path><path  fill="black" stroke="black" d="M 0 0 0 0" transform="matrix(-0.8603343215003335,0.5097301788677621,-0.5097301788677621,-0.8603343215003335,1365,462.29998779296875)"></path><path  fill="#444444" stroke="#444444" d="M 20 0 L 0 10 L 20 20 z" id="v-4755" transform="matrix(0.28508610161962217,-0.9585019116638873,0.9585019116638873,0.28508610161962217,787.0249963320086,1376.1491971629428)" style="opacity: 1;"></path><path  d="M 1365 462 L 1015 670 C 1009 673.3333333333333 1005 678.3333333333333 1003 685 L 797 1379" id="v-4754" fill="none" style="cursor: auto; pointer-events: visiblepainted;"></path><g ><g id="v-4747"  label-idx="0" cursor="move" transform="matrix(1,0,0,1,960.734130859375,827.3909301757812)" style="cursor: default; opacity: 1;"><rect joint-selector="rect" id="v-4750" fill="#ffffff" rx="3" ry="3" pointer-events="none" width="156.34059143066406" height="121.6017074584961" transform="matrix(1,0,0,1,-76.7,-60.8)"></rect><text joint-selector="text" id="v-4749" font-size="24px" xml:space="preserve" y="0.8em" fill="#444444" text-anchor="middle" pointer-events="none" font-family="Open Sans, Tahoma, Arial" font-weight="normal" transform="matrix(1,0,0,1,0,-52.6)"><tspan dy="0" >Управление</tspan><tspan dy="1.2em" x="0" >шаблонами /</tspan><tspan dy="1.2em" x="0" >Прямая</tspan><tspan dy="1.2em" x="0" >отправка</tspan></text></g><g id="v-4748"  label-idx="1" cursor="move" transform="matrix(1,0,0,1,950.734130859375,882.5908813476562)" style="cursor: default; opacity: 1;"><rect joint-selector="rect" id="v-4752" fill="#ffffff" rx="3" ry="3"  width="0" height="0" transform="matrix(1,0,0,1,0,0)" display="none"></rect><text joint-selector="text" id="v-4751" fill="#000000" font-size="14" text-anchor="middle" pointer-events="none"></text></g></g><g  display="none" style="display: none;"><g  transform="translate(1006, 675)" id="v-4814"><circle  idx="0" r="10"></circle><path  idx="0" d="M16,5.333c-7.732,0-14,4.701-14,10.5c0,1.982,0.741,3.833,2.016,5.414L2,25.667l5.613-1.441c2.339,1.317,5.237,2.107,8.387,2.107c7.732,0,14-4.701,14-10.5C30,10.034,23.732,5.333,16,5.333z" transform="translate(5, -33)"></path><path  idx="0" transform="scale(.8) translate(9.5, -37)" d="M24.778,21.419 19.276,15.917 24.777,10.415 21.949,7.585 16.447,13.087 10.945,7.585 8.117,10.415 13.618,15.917 8.116,21.419 10.946,24.248 16.447,18.746 21.948,24.248z"><title>Remove vertex.</title></path></g></g><g  id="v-4757" display="none"><g  id="v-4745"><path  end="source" d="M 26 0 L 0 13 L 26 26 z"></path></g><g  id="v-4746"><path  end="target" d="M 26 0 L 0 13 L 26 26 z"></path></g></g><g  id="v-4756" display="none"><g  id="v-4743" transform="translate(1330.6138996174357, 482.4351682273526) "><g  event="remove"><circle r="11"></circle><path transform="scale(.8) translate(-16, -16)" d="M24.778,21.419 19.276,15.917 24.777,10.415 21.949,7.585 16.447,13.087 10.945,7.585 8.117,10.415 13.618,15.917 8.116,21.419 10.946,24.248 16.447,18.746 21.948,24.248z"></path><title>Remove link.</title></g><g  event="link:options"><circle r="11" transform="translate(25)"></circle><path fill="white" transform="scale(.55) translate(29, -16)" d="M31.229,17.736c0.064-0.571,0.104-1.148,0.104-1.736s-0.04-1.166-0.104-1.737l-4.377-1.557c-0.218-0.716-0.504-1.401-0.851-2.05l1.993-4.192c-0.725-0.91-1.549-1.734-2.458-2.459l-4.193,1.994c-0.647-0.347-1.334-0.632-2.049-0.849l-1.558-4.378C17.165,0.708,16.588,0.667,16,0.667s-1.166,0.041-1.737,0.105L12.707,5.15c-0.716,0.217-1.401,0.502-2.05,0.849L6.464,4.005C5.554,4.73,4.73,5.554,4.005,6.464l1.994,4.192c-0.347,0.648-0.632,1.334-0.849,2.05l-4.378,1.557C0.708,14.834,0.667,15.412,0.667,16s0.041,1.165,0.105,1.736l4.378,1.558c0.217,0.715,0.502,1.401,0.849,2.049l-1.994,4.193c0.725,0.909,1.549,1.733,2.459,2.458l4.192-1.993c0.648,0.347,1.334,0.633,2.05,0.851l1.557,4.377c0.571,0.064,1.148,0.104,1.737,0.104c0.588,0,1.165-0.04,1.736-0.104l1.558-4.377c0.715-0.218,1.399-0.504,2.049-0.851l4.193,1.993c0.909-0.725,1.733-1.549,2.458-2.458l-1.993-4.193c0.347-0.647,0.633-1.334,0.851-2.049L31.229,17.736zM16,20.871c-2.69,0-4.872-2.182-4.872-4.871c0-2.69,2.182-4.872,4.872-4.872c2.689,0,4.871,2.182,4.871,4.872C20.871,18.689,18.689,20.871,16,20.871z"></path><title>Link options.</title></g></g></g></g><!--z-index:133--><g   id="j_360" ><path  stroke="#444444" d="M 977 1662 L 997 1674 C 1003 1677.3333333333333 1009 1680.3333333333333 1015 1683 L 1776 1975 C 1782 1977.6666666666665 1788 1980.3333333333333 1794 1983 L 1935 2039" id="v-4772" stroke-width="2" stroke-dasharray="8 8" fill="none" style="opacity: 1;"></path><path  fill="black" stroke="black" d="M 0 0 0 0" transform="matrix(0.861009274778945,0.5085892534694724,-0.5085892534694724,0.861009274778945,977,1661.8699951171875)"></path><path  fill="#444444" stroke="#444444" d="M 20 0 L 0 10 L 20 20 z" id="v-4774" transform="matrix(-0.928476707906966,-0.3713906337998342,0.3713906337998342,-0.928476707906966,1931.2860707020088,2048.284806229568)" style="opacity: 1;"></path><path  d="M 977 1662 L 997 1674 C 1003 1677.3333333333333 1009 1680.3333333333333 1015 1683 L 1776 1975 C 1782 1977.6666666666665 1788 1980.3333333333333 1794 1983 L 1935 2039" id="v-4773" fill="none" style="cursor: auto; pointer-events: visiblepainted;"></path><g ><g id="v-4766"  label-idx="0" cursor="move" transform="matrix(1,0,0,1,1455.2320556640625,1851.9195556640625)" style="cursor: default; opacity: 1;"><rect joint-selector="rect" id="v-4769" fill="#ffffff" rx="3" ry="3" pointer-events="none" width="199.63363647460938" height="92.80170822143555" transform="matrix(1,0,0,1,-99.8,-46.4)"></rect><text joint-selector="text" id="v-4768" font-size="24px" xml:space="preserve" y="0.8em" fill="#444444" text-anchor="middle" pointer-events="none" font-family="Open Sans, Tahoma, Arial" font-weight="normal" transform="matrix(1,0,0,1,0,-38.2)"><tspan dy="0" >Запрос</tspan><tspan dy="1.2em" x="0" >контактов (через</tspan><tspan dy="1.2em" x="0" >API CRM)</tspan></text></g><g id="v-4767"  label-idx="1" cursor="move" transform="matrix(1,0,0,1,1445.2320556640625,1892.719482421875)" style="cursor: default; opacity: 1;"><rect joint-selector="rect" id="v-4771" fill="#ffffff" rx="3" ry="3"  width="0" height="0" transform="matrix(1,0,0,1,0,0)" display="none"></rect><text joint-selector="text" id="v-4770" fill="#000000" font-size="14" text-anchor="middle" pointer-events="none"></text></g></g><g  display="none" style="display: none;"><g  transform="translate(1006, 1679)" id="v-4815"><circle  idx="0" r="10"></circle><path  idx="0" d="M16,5.333c-7.732,0-14,4.701-14,10.5c0,1.982,0.741,3.833,2.016,5.414L2,25.667l5.613-1.441c2.339,1.317,5.237,2.107,8.387,2.107c7.732,0,14-4.701,14-10.5C30,10.034,23.732,5.333,16,5.333z" transform="translate(5, -33)"></path><path  idx="0" transform="scale(.8) translate(9.5, -37)" d="M24.778,21.419 19.276,15.917 24.777,10.415 21.949,7.585 16.447,13.087 10.945,7.585 8.117,10.415 13.618,15.917 8.116,21.419 10.946,24.248 16.447,18.746 21.948,24.248z"><title>Remove vertex.</title></path></g><g  transform="translate(1785, 1979)" id="v-4816"><circle  idx="1" r="10"></circle><path  idx="1" d="M16,5.333c-7.732,0-14,4.701-14,10.5c0,1.982,0.741,3.833,2.016,5.414L2,25.667l5.613-1.441c2.339,1.317,5.237,2.107,8.387,2.107c7.732,0,14-4.701,14-10.5C30,10.034,23.732,5.333,16,5.333z" transform="translate(5, -33)"></path><path  idx="1" transform="scale(.8) translate(9.5, -37)" d="M24.778,21.419 19.276,15.917 24.777,10.415 21.949,7.585 16.447,13.087 10.945,7.585 8.117,10.415 13.618,15.917 8.116,21.419 10.946,24.248 16.447,18.746 21.948,24.248z"><title>Remove vertex.</title></path></g></g><g  id="v-4776" display="none"><g  id="v-4764"><path  end="source" d="M 26 0 L 0 13 L 26 26 z"></path></g><g  id="v-4765"><path  end="target" d="M 26 0 L 0 13 L 26 26 z"></path></g></g><g  id="v-4775" display="none"><g  id="v-4761" transform="translate(1011.87109375, 1681.579158782959) "><g  event="remove"><circle r="11"></circle><path transform="scale(.8) translate(-16, -16)" d="M24.778,21.419 19.276,15.917 24.777,10.415 21.949,7.585 16.447,13.087 10.945,7.585 8.117,10.415 13.618,15.917 8.116,21.419 10.946,24.248 16.447,18.746 21.948,24.248z"></path><title>Remove link.</title></g><g  event="link:options"><circle r="11" transform="translate(25)"></circle><path fill="white" transform="scale(.55) translate(29, -16)" d="M31.229,17.736c0.064-0.571,0.104-1.148,0.104-1.736s-0.04-1.166-0.104-1.737l-4.377-1.557c-0.218-0.716-0.504-1.401-0.851-2.05l1.993-4.192c-0.725-0.91-1.549-1.734-2.458-2.459l-4.193,1.994c-0.647-0.347-1.334-0.632-2.049-0.849l-1.558-4.378C17.165,0.708,16.588,0.667,16,0.667s-1.166,0.041-1.737,0.105L12.707,5.15c-0.716,0.217-1.401,0.502-2.05,0.849L6.464,4.005C5.554,4.73,4.73,5.554,4.005,6.464l1.994,4.192c-0.347,0.648-0.632,1.334-0.849,2.05l-4.378,1.557C0.708,14.834,0.667,15.412,0.667,16s0.041,1.165,0.105,1.736l4.378,1.558c0.217,0.715,0.502,1.401,0.849,2.049l-1.994,4.193c0.725,0.909,1.549,1.733,2.459,2.458l4.192-1.993c0.648,0.347,1.334,0.633,2.05,0.851l1.557,4.377c0.571,0.064,1.148,0.104,1.737,0.104c0.588,0,1.165-0.04,1.736-0.104l1.558-4.377c0.715-0.218,1.399-0.504,2.049-0.851l4.193,1.993c0.909-0.725,1.733-1.549,2.458-2.458l-1.993-4.193c0.347-0.647,0.633-1.334,0.851-2.049L31.229,17.736zM16,20.871c-2.69,0-4.872-2.182-4.872-4.871c0-2.69,2.182-4.872,4.872-4.872c2.689,0,4.871,2.182,4.871,4.872C20.871,18.689,18.689,20.871,16,20.871z"></path><title>Link options.</title></g></g></g></g><!--z-index:134--><g   id="j_361" ><path  stroke="#444444" d="M 2160 2279 L 2160 2579" id="v-4786" stroke-width="2" stroke-dasharray="8 8" fill="none" style="opacity: 1;"></path><path  fill="black" stroke="black" d="M 0 0 0 0" transform="matrix(6.123233995736766e-17,1,-1,6.123233995736766e-17,2160,2279)"></path><path  fill="#444444" stroke="#444444" d="M 20 0 L 0 10 L 20 20 z" id="v-4788" transform="matrix(-1.8369701987210297e-16,-1,1,-1.8369701987210297e-16,2150,2579)" style="opacity: 1;"></path><path  d="M 2160 2279 L 2160 2579" id="v-4787" fill="none" style="cursor: auto; pointer-events: visiblepainted;"></path><g ><g id="v-4780"  label-idx="0" cursor="move" transform="matrix(1,0,0,1,2160,2429)" style="cursor: default; opacity: 1;"><rect joint-selector="rect" id="v-4783" fill="#ffffff" rx="3" ry="3" pointer-events="none" width="56.91289520263672" height="35.20170211791992" transform="matrix(1,0,0,1,-27.3,-17.6)"></rect><text joint-selector="text" id="v-4782" font-size="24px" xml:space="preserve" y="0.8em" fill="#444444" text-anchor="middle" pointer-events="none" font-family="Open Sans, Tahoma, Arial" font-weight="normal" transform="matrix(1,0,0,1,0,-9.4)"><tspan dy="0" >REST</tspan></text></g><g id="v-4781"  label-idx="1" cursor="move" transform="matrix(1,0,0,1,2150,2441)" style="cursor: default; opacity: 1;"><rect joint-selector="rect" id="v-4785" fill="#ffffff" rx="3" ry="3"  width="0" height="0" transform="matrix(1,0,0,1,0,0)" display="none"></rect><text joint-selector="text" id="v-4784" fill="#000000" font-size="14" text-anchor="middle" pointer-events="none"></text></g></g><g  display="none" style="display: none;"></g><g  id="v-4790" display="none"><g  id="v-4778"><path  end="source" d="M 26 0 L 0 13 L 26 26 z"></path></g><g  id="v-4779"><path  end="target" d="M 26 0 L 0 13 L 26 26 z"></path></g></g><g  id="v-4789" display="none"><g  id="v-4777" transform="translate(2160, 2319) "><g  event="remove"><circle r="11"></circle><path transform="scale(.8) translate(-16, -16)" d="M24.778,21.419 19.276,15.917 24.777,10.415 21.949,7.585 16.447,13.087 10.945,7.585 8.117,10.415 13.618,15.917 8.116,21.419 10.946,24.248 16.447,18.746 21.948,24.248z"></path><title>Remove link.</title></g><g  event="link:options"><circle r="11" transform="translate(25)"></circle><path fill="white" transform="scale(.55) translate(29, -16)" d="M31.229,17.736c0.064-0.571,0.104-1.148,0.104-1.736s-0.04-1.166-0.104-1.737l-4.377-1.557c-0.218-0.716-0.504-1.401-0.851-2.05l1.993-4.192c-0.725-0.91-1.549-1.734-2.458-2.459l-4.193,1.994c-0.647-0.347-1.334-0.632-2.049-0.849l-1.558-4.378C17.165,0.708,16.588,0.667,16,0.667s-1.166,0.041-1.737,0.105L12.707,5.15c-0.716,0.217-1.401,0.502-2.05,0.849L6.464,4.005C5.554,4.73,4.73,5.554,4.005,6.464l1.994,4.192c-0.347,0.648-0.632,1.334-0.849,2.05l-4.378,1.557C0.708,14.834,0.667,15.412,0.667,16s0.041,1.165,0.105,1.736l4.378,1.558c0.217,0.715,0.502,1.401,0.849,2.049l-1.994,4.193c0.725,0.909,1.549,1.733,2.459,2.458l4.192-1.993c0.648,0.347,1.334,0.633,2.05,0.851l1.557,4.377c0.571,0.064,1.148,0.104,1.737,0.104c0.588,0,1.165-0.04,1.736-0.104l1.558-4.377c0.715-0.218,1.399-0.504,2.049-0.851l4.193,1.993c0.909-0.725,1.733-1.549,2.458-2.458l-1.993-4.193c0.347-0.647,0.633-1.334,0.851-2.049L31.229,17.736zM16,20.871c-2.69,0-4.872-2.182-4.872-4.871c0-2.69,2.182-4.872,4.872-4.872c2.689,0,4.871,2.182,4.871,4.872C20.871,18.689,18.689,20.871,16,20.871z"></path><title>Link options.</title></g></g></g></g><!--z-index:135--><g   id="j_362" ><path  stroke="#444444" d="M 2910 2279 L 2910 2579" id="v-4800" stroke-width="2" stroke-dasharray="8 8" fill="none" style="opacity: 1;"></path><path  fill="black" stroke="black" d="M 0 0 0 0" transform="matrix(6.123233995736766e-17,1,-1,6.123233995736766e-17,2910,2279)"></path><path  fill="#444444" stroke="#444444" d="M 20 0 L 0 10 L 20 20 z" id="v-4802" transform="matrix(-1.8369701987210297e-16,-1,1,-1.8369701987210297e-16,2900,2579)" style="opacity: 1;"></path><path  d="M 2910 2279 L 2910 2579" id="v-4801" fill="none" style="cursor: auto; pointer-events: visiblepainted;"></path><g ><g id="v-4794"  label-idx="0" cursor="move" transform="matrix(1,0,0,1,2910,2429)" style="cursor: default; opacity: 1;"><rect joint-selector="rect" id="v-4797" fill="#ffffff" rx="3" ry="3" pointer-events="none" width="56.91289520263672" height="35.20170211791992" transform="matrix(1,0,0,1,-27.3,-17.6)"></rect><text joint-selector="text" id="v-4796" font-size="24px" xml:space="preserve" y="0.8em" fill="#444444" text-anchor="middle" pointer-events="none" font-family="Open Sans, Tahoma, Arial" font-weight="normal" transform="matrix(1,0,0,1,0,-9.4)"><tspan dy="0" >REST</tspan></text></g><g id="v-4795"  label-idx="1" cursor="move" transform="matrix(1,0,0,1,2900,2441)" style="cursor: default; opacity: 1;"><rect joint-selector="rect" id="v-4799" fill="#ffffff" rx="3" ry="3"  width="0" height="0" transform="matrix(1,0,0,1,0,0)" display="none"></rect><text joint-selector="text" id="v-4798" fill="#000000" font-size="14" text-anchor="middle" pointer-events="none"></text></g></g><g  display="none" style="display: none;"></g><g  id="v-4804" display="none"><g  id="v-4792"><path  end="source" d="M 26 0 L 0 13 L 26 26 z"></path></g><g  id="v-4793"><path  end="target" d="M 26 0 L 0 13 L 26 26 z"></path></g></g><g  id="v-4803" display="none"><g  id="v-4791" transform="translate(2910, 2319) "><g  event="remove"><circle r="11"></circle><path transform="scale(.8) translate(-16, -16)" d="M24.778,21.419 19.276,15.917 24.777,10.415 21.949,7.585 16.447,13.087 10.945,7.585 8.117,10.415 13.618,15.917 8.116,21.419 10.946,24.248 16.447,18.746 21.948,24.248z"></path><title>Remove link.</title></g><g  event="link:options"><circle r="11" transform="translate(25)"></circle><path fill="white" transform="scale(.55) translate(29, -16)" d="M31.229,17.736c0.064-0.571,0.104-1.148,0.104-1.736s-0.04-1.166-0.104-1.737l-4.377-1.557c-0.218-0.716-0.504-1.401-0.851-2.05l1.993-4.192c-0.725-0.91-1.549-1.734-2.458-2.459l-4.193,1.994c-0.647-0.347-1.334-0.632-2.049-0.849l-1.558-4.378C17.165,0.708,16.588,0.667,16,0.667s-1.166,0.041-1.737,0.105L12.707,5.15c-0.716,0.217-1.401,0.502-2.05,0.849L6.464,4.005C5.554,4.73,4.73,5.554,4.005,6.464l1.994,4.192c-0.347,0.648-0.632,1.334-0.849,2.05l-4.378,1.557C0.708,14.834,0.667,15.412,0.667,16s0.041,1.165,0.105,1.736l4.378,1.558c0.217,0.715,0.502,1.401,0.849,2.049l-1.994,4.193c0.725,0.909,1.549,1.733,2.459,2.458l4.192-1.993c0.648,0.347,1.334,0.633,2.05,0.851l1.557,4.377c0.571,0.064,1.148,0.104,1.737,0.104c0.588,0,1.165-0.04,1.736-0.104l1.558-4.377c0.715-0.218,1.399-0.504,2.049-0.851l4.193,1.993c0.909-0.725,1.733-1.549,2.458-2.458l-1.993-4.193c0.347-0.647,0.633-1.334,0.851-2.049L31.229,17.736zM16,20.871c-2.69,0-4.872-2.182-4.872-4.871c0-2.69,2.182-4.872,4.872-4.872c2.689,0,4.871,2.182,4.871,4.872C20.871,18.689,18.689,20.871,16,20.871z"></path><title>Link options.</title></g></g></g></g><!--z-index:136--><!--z-index:137--><!--z-index:138--><!--z-index:139--><!--z-index:140--><!--z-index:141--><!--z-index:142--><!--z-index:143--><!--z-index:144--></g><g ></g><g ></g><g ></g></g></svg>